<svg width="135" height="40" viewBox="0 0 135 40" fill="none" xmlns="http://www.w3.org/2000/svg">
<path fill-rule="evenodd" clip-rule="evenodd" d="M6.69566 38.987C6.99164 38.994 7.28123 38.9979 7.5771 38.9979L126.338 39L127.421 38.9979H127.422C127.712 38.9979 128.01 38.9939 128.296 38.987L128.308 38.9867C128.881 38.9795 129.454 38.9274 130.02 38.8309C130.496 38.7461 130.959 38.5868 131.392 38.3574C131.813 38.1337 132.199 37.8396 132.534 37.4853L132.541 37.4774C132.877 37.1297 133.159 36.7276 133.378 36.2851C133.598 35.8263 133.751 35.3339 133.829 34.8248L133.83 34.8192C133.924 34.2253 133.977 33.6249 133.988 33.0228C133.992 32.7105 133.992 32.4061 133.992 32.0663V32.0557L133.992 32.0452C134 31.6837 134 31.3236 134 30.942V9.05692C134 8.67931 134 8.3159 133.992 7.93539L133.992 7.92531V7.91524C133.992 7.59911 133.992 7.28757 133.989 6.99841C133.978 6.38497 133.924 5.77325 133.828 5.16816L133.827 5.1663C133.748 4.66336 133.597 4.17676 133.38 3.72294C132.937 2.82224 132.24 2.09628 131.394 1.63915C130.959 1.41168 130.496 1.2533 130.019 1.1684C129.457 1.07214 128.888 1.02028 128.319 1.0132L128.317 1.01318L127.418 1H7.58464L6.68757 1.01268C6.11196 1.02014 5.53762 1.07255 4.96931 1.16952C4.49856 1.25316 4.04132 1.41016 3.61278 1.63609C3.18996 1.86279 2.80187 2.15826 2.46331 2.51287L2.45966 2.51669C2.12264 2.86598 1.84038 3.27154 1.62499 3.71837L1.62418 3.72004C1.40243 4.17789 1.2484 4.66961 1.16811 5.17815C1.07309 5.77733 1.0217 6.38398 1.01463 6.99145L1.01454 6.99941L1.01432 7.00737C1.01162 7.10541 1.00803 7.3317 1.00505 7.54138L1 7.9214V32.0657L1.00485 32.4525C1.00776 32.6663 1.01133 32.8965 1.01424 32.9975L1.01448 33.0058L1.01458 33.0141C1.02196 33.6227 1.07355 34.2298 1.16889 34.8301C1.24894 35.3367 1.4028 35.8272 1.62417 36.283L1.62494 36.2846C1.84066 36.7308 2.12386 37.1351 2.46214 37.4824L2.47128 37.4917C2.806 37.8444 3.19117 38.137 3.6114 38.3593C4.04195 38.5868 4.50123 38.7455 4.97418 38.8311C5.54036 38.927 6.11244 38.979 6.68578 38.9868L6.69566 38.987ZM0 32.0714V7.91524C0 7.91524 0.00884614 7.19223 0.0147002 6.97982C0.0223313 6.32383 0.0777061 5.66941 0.180345 5.0222C0.27585 4.41729 0.459246 3.83117 0.724183 3.28415C0.985129 2.7428 1.32818 2.24915 1.74003 1.82232C2.15142 1.39143 2.62494 1.03064 3.14334 0.753121C3.66445 0.477981 4.22217 0.286241 4.79781 0.184325C5.41844 0.0782559 6.0458 0.0209098 6.67462 0.012768L7.57757 0H127.418L128.331 0.0132804C128.954 0.0210177 129.576 0.0778522 130.191 0.1833C130.772 0.286495 131.336 0.479573 131.863 0.756185C132.902 1.31547 133.747 2.20032 134.28 3.2867C134.54 3.82995 134.721 4.41128 134.815 5.01097C134.919 5.66349 134.977 6.32306 134.989 6.98442C134.992 7.28056 134.992 7.59866 134.992 7.91524C135 8.30737 135 8.68061 135 9.05692V30.942C135 31.3219 135 31.6926 134.992 32.0663V32.0683C134.992 32.4076 134.992 32.7185 134.988 33.0385C134.977 33.688 134.919 34.3358 134.817 34.9767C134.724 35.5843 134.542 36.1733 134.277 36.723C134.013 37.2588 133.67 37.7478 133.26 38.172C132.852 38.6047 132.379 38.9657 131.86 39.2412C131.335 39.5194 130.772 39.7132 130.191 39.8162C129.572 39.9217 128.947 39.9788 128.32 39.9867C128.027 39.9938 127.72 39.9979 127.422 39.9979L126.338 40L7.57708 39.9979C7.27219 39.9979 6.97466 39.9938 6.67216 39.9867C6.04551 39.9782 5.42032 39.9212 4.80172 39.8162C4.22491 39.7124 3.66614 39.5193 3.14383 39.2432C2.62632 38.9695 2.1543 38.6106 1.74586 38.1802C1.33151 37.7549 0.986552 37.2616 0.724643 36.7199C0.459849 36.1746 0.276595 35.5902 0.181266 34.9869C0.0783187 34.3387 0.0226201 33.6833 0.0146502 33.0262C0.00830577 32.8057 0 32.0714 0 32.0714Z" fill="black"/>
<path d="M23.7689 19.7303C23.7908 18.0338 24.6802 16.4668 26.1255 15.5783C25.2096 14.2701 23.7304 13.4705 22.1343 13.4206C20.4551 13.2443 18.8271 14.4254 17.9714 14.4254C17.0992 14.4254 15.7817 13.4381 14.3629 13.4673C12.4963 13.5276 10.7982 14.5632 9.89001 16.1951C7.95601 19.5436 9.3986 24.4646 11.2512 27.1712C12.1781 28.4966 13.2614 29.977 14.6788 29.9245C16.0659 29.867 16.5839 29.04 18.2582 29.04C19.917 29.04 20.403 29.9245 21.8492 29.8911C23.3376 29.867 24.2754 28.5599 25.1698 27.222C25.8357 26.2776 26.3482 25.2339 26.6882 24.1295C24.9204 23.3818 23.771 21.6497 23.7689 19.7303Z" fill="black"/>
<path d="M21.0373 11.6405C21.8488 10.6663 22.2486 9.41413 22.1518 8.1499C20.912 8.28012 19.7667 8.87268 18.9442 9.80951C18.1321 10.7338 17.7206 11.9431 17.8005 13.1709C19.057 13.1838 20.25 12.6198 21.0373 11.6405Z" fill="black"/>
<path fill-rule="evenodd" clip-rule="evenodd" d="M36.5689 26.5693H41.3023L42.4381 29.9257H44.4771L39.9937 17.5077H37.9107L33.4273 29.9257H35.4322L36.5689 26.5693ZM40.8112 25.0205H37.0592L38.9098 19.5732H38.9615L40.8112 25.0205Z" fill="black"/>
<path fill-rule="evenodd" clip-rule="evenodd" d="M50.3814 30.0205C52.6539 30.0205 54.1597 28.2128 54.1597 25.3994C54.1597 22.5937 52.6451 20.7773 50.3472 20.7773C49.1649 20.7392 48.0572 21.3541 47.4644 22.3779H47.4303V20.872H45.6314V32.9208H47.4898V28.4365H47.5328C48.1004 29.4667 49.2068 30.0819 50.3814 30.0205ZM49.857 22.3613C51.3023 22.3613 52.2496 23.5664 52.2496 25.3994C52.2496 27.249 51.3023 28.4453 49.857 28.4453C48.4371 28.4453 47.482 27.2236 47.482 25.3994C47.482 23.5917 48.4371 22.3613 49.857 22.3613Z" fill="black"/>
<path fill-rule="evenodd" clip-rule="evenodd" d="M60.3463 30.0205C62.6187 30.0205 64.1246 28.2128 64.1246 25.3994C64.1246 22.5937 62.6099 20.7773 60.312 20.7773C59.1297 20.7392 58.022 21.3541 57.4292 22.3779H57.3951V20.872H55.5962V32.9208H57.4546V28.4365H57.4976C58.0652 29.4667 59.1716 30.0819 60.3463 30.0205ZM59.8218 22.3613C61.2672 22.3613 62.2144 23.5664 62.2144 25.3994C62.2144 27.249 61.2672 28.4453 59.8218 28.4453C58.4019 28.4453 57.4468 27.2236 57.4468 25.3994C57.4468 23.5917 58.4019 22.3613 59.8218 22.3613Z" fill="black"/>
<path d="M70.7105 26.4658C70.8482 27.6972 72.0445 28.5058 73.6793 28.5058C75.2457 28.5058 76.3726 27.6972 76.3726 26.5868C76.3726 25.6229 75.6929 25.0458 74.0836 24.6503L72.4742 24.2626C70.1939 23.7118 69.1353 22.6454 69.1353 20.9149C69.1353 18.7724 71.0025 17.3007 73.6539 17.3007C76.2779 17.3007 78.0767 18.7724 78.1373 20.9149H76.2613C76.149 19.6757 75.1246 18.9276 73.6275 18.9276C72.1304 18.9276 71.106 19.6845 71.106 20.786C71.106 21.664 71.7603 22.1806 73.3609 22.576L74.7291 22.912C77.2769 23.5145 78.3355 24.538 78.3355 26.3544C78.3355 28.6776 76.4849 30.1327 73.5416 30.1327C70.7876 30.1327 68.9283 28.7118 68.8082 26.4657L70.7105 26.4658Z" fill="black"/>
<path d="M82.3463 18.7294V20.872H84.0679V22.3437H82.3463V27.3349C82.3463 28.1103 82.691 28.4716 83.4478 28.4716C83.6522 28.4681 83.8563 28.4537 84.0592 28.4286V29.8915C83.7189 29.9551 83.373 29.9839 83.0269 29.9775C81.1939 29.9775 80.4791 29.289 80.4791 27.5331V22.3437H79.1627V20.872H80.4791V18.7294H82.3463Z" fill="black"/>
<path fill-rule="evenodd" clip-rule="evenodd" d="M89.359 20.7607C86.7428 20.7607 85.0651 22.5507 85.0651 25.3994C85.0651 28.2558 86.7261 30.038 89.359 30.038C91.9928 30.038 93.6539 28.2558 93.6539 25.3994C93.6539 22.5507 91.984 20.7607 89.359 20.7607ZM89.359 22.2919C90.8649 22.2919 91.7604 23.4453 91.7604 25.3994C91.7604 27.3613 90.8649 28.5058 89.359 28.5058C87.8531 28.5058 86.9586 27.3613 86.9586 25.3994C86.9586 23.4541 87.8531 22.2919 89.359 22.2919Z" fill="black"/>
<path d="M95.1861 20.872H96.9586V22.413H97.0016C97.2487 21.421 98.1577 20.7383 99.1793 20.7773C99.3935 20.7765 99.607 20.7998 99.816 20.8466V22.5849C99.5457 22.5023 99.2636 22.4643 98.981 22.4726C98.4347 22.4504 97.9059 22.6682 97.5336 23.0686C97.1613 23.4691 96.9826 24.0123 97.0445 24.5556V29.9257H95.1861L95.1861 20.872Z" fill="black"/>
<path fill-rule="evenodd" clip-rule="evenodd" d="M104.486 30.038C106.534 30.038 108.134 28.9101 108.384 27.2665L106.62 27.2665C106.281 28.1066 105.431 28.6245 104.529 28.54C103.853 28.5649 103.198 28.2981 102.732 27.8074C102.266 27.3168 102.034 26.6496 102.093 25.9755V25.8632H108.488V25.2265C108.488 22.4814 106.913 20.7607 104.408 20.7607C101.861 20.7607 100.217 22.6025 100.217 25.4423C100.217 28.2734 101.852 30.038 104.486 30.038ZM106.628 24.5644L102.102 24.5644C102.101 23.9531 102.343 23.3666 102.776 22.9351C103.209 22.5036 103.797 22.2629 104.408 22.2665C105.014 22.2535 105.599 22.4941 106.02 22.9303C106.442 23.3665 106.662 23.9587 106.628 24.5644Z" fill="black"/>
<path d="M35.7384 10.683H36.5362C36.8139 10.7176 37.0934 10.6345 37.307 10.4538C37.5207 10.2732 37.6491 10.0114 37.6612 9.73182C37.6612 9.18153 37.2471 8.82606 36.545 8.82606C36.2607 8.78634 35.9725 8.86321 35.7457 9.03921C35.5189 9.21521 35.373 9.47539 35.3409 9.76063H34.4649C34.4954 9.24254 34.7397 8.7604 35.1395 8.42949C35.5393 8.09857 36.0586 7.94863 36.5733 8.01551C37.7481 8.01551 38.5753 8.67322 38.5753 9.62C38.581 10.2736 38.1292 10.8424 37.4913 10.9848V11.0551C38.2553 11.089 38.8484 11.7337 38.8185 12.4979C38.7636 13.031 38.4964 13.5196 38.0771 13.8533C37.6578 14.1871 37.1217 14.3379 36.5899 14.2719C36.0569 14.3445 35.5172 14.1976 35.0946 13.8647C34.6721 13.5318 34.4028 13.0415 34.3487 12.5062H35.2384C35.2921 13.077 35.8165 13.4452 36.5899 13.4452C37.3634 13.4452 37.8682 13.0317 37.8682 12.4487C37.8682 11.8574 37.3927 11.4931 36.5616 11.4931H35.7384V10.683Z" fill="black"/>
<path fill-rule="evenodd" clip-rule="evenodd" d="M41.504 11.5097C40.4337 11.5761 39.8292 12.0433 39.8292 12.8539C39.8307 13.2382 39.9947 13.604 40.2807 13.8607C40.5667 14.1175 40.9479 14.2413 41.3302 14.2015C41.8755 14.2267 42.3922 13.9566 42.6827 13.4945H42.753V14.1273H43.6095V11.0507C43.6095 10.0995 42.9727 9.53749 41.8438 9.53749C40.8223 9.53749 40.0938 10.0336 40.003 10.807H40.8634C40.963 10.4887 41.3058 10.3065 41.8018 10.3065C42.4102 10.3065 42.7237 10.5751 42.7237 11.0507V11.4393L41.504 11.5097ZM42.7237 12.0927V12.4691C42.7043 12.7561 42.5692 13.0229 42.3494 13.2085C42.1296 13.3941 41.8439 13.4825 41.5577 13.4535C41.0742 13.4535 40.7227 13.2177 40.7227 12.8124C40.7227 12.4154 41.0039 12.2045 41.6241 12.163L42.7237 12.0927Z" fill="black"/>
<path d="M45.9678 10.3724V14.1273H45.0792V9.62439H48.0441V10.3724L45.9678 10.3724Z" fill="black"/>
<path fill-rule="evenodd" clip-rule="evenodd" d="M51.5694 14.2016C52.7061 14.2016 53.4298 13.3046 53.4298 11.8739C53.4298 10.4428 52.7061 9.54969 51.5606 9.54972C50.9729 9.53525 50.4266 9.85158 50.1466 10.3686H50.0802V9.6244H49.2247V15.6244H50.1134V13.4452H50.1837C50.4591 13.9454 50.9997 14.2405 51.5694 14.2016ZM51.3126 10.348C52.0655 10.348 52.5157 10.9227 52.5157 11.8739C52.5157 12.829 52.0655 13.4037 51.3087 13.4037C50.5645 13.4037 50.0968 12.8163 50.0968 11.8778C50.0968 10.9349 50.5646 10.348 51.3126 10.348Z" fill="black"/>
<path d="M54.6134 15.7401V14.975C54.7095 14.9872 54.8064 14.9928 54.9034 14.9916C55.2954 15.0206 55.6465 14.7498 55.7178 14.3632L55.7842 14.1439L54.1543 9.62439H55.1221L56.2511 13.2011H56.3214L57.4464 9.62439H58.3887L56.7101 14.3134C56.3253 15.4091 55.8995 15.7606 54.9815 15.7606C54.9073 15.7606 54.6964 15.7523 54.6134 15.7401Z" fill="black"/>
<path d="M59.0811 12.8495H59.9659C60.0528 13.2465 60.4249 13.4535 60.9454 13.4535C61.5372 13.4535 61.9005 13.1928 61.9005 12.7875C61.9005 12.3534 61.5743 12.1464 60.9454 12.1464H60.2716V11.456H60.9337C61.4708 11.456 61.7442 11.2494 61.7442 10.873C61.7442 10.5424 61.4796 10.29 60.9337 10.29C60.4366 10.29 60.0733 10.5009 60.0157 10.8564H59.1593C59.2925 10.0066 60.0816 9.42008 60.9337 9.53751C62.004 9.53751 62.6163 10.0214 62.6163 10.7821C62.6266 11.2187 62.3302 11.603 61.9053 11.704V11.7743C62.4134 11.8399 62.792 12.2753 62.7862 12.7875C62.7862 13.6435 62.0577 14.2099 60.9454 14.2099C59.962 14.2098 59.1632 13.7592 59.0811 12.8495Z" fill="black"/>
<path d="M64.066 14.1273V9.62439H64.9469V12.7216H65.0172L67.0924 9.6244H67.9732V14.1273H67.0924V11.0136H67.026L64.9469 14.1273L64.066 14.1273Z" fill="black"/>
<path d="M72.8258 10.3724H71.4078V14.1273H70.5181V10.3724H69.1001V9.62444H72.8258V10.3724Z" fill="black"/>
<path fill-rule="evenodd" clip-rule="evenodd" d="M75.6607 14.2142C76.5409 14.3094 77.363 13.7608 77.6129 12.9115L76.7564 12.9115C76.5434 13.2937 76.1206 13.5093 75.6861 13.4574C75.3507 13.4614 75.0292 13.3236 74.8008 13.078C74.5724 12.8323 74.4584 12.5016 74.4869 12.1674V12.1176H77.6666V11.8075C77.6666 10.3935 76.9097 9.53747 75.6568 9.53747C75.0548 9.53234 74.4803 9.78865 74.0819 10.24C73.6836 10.6914 73.5007 11.2934 73.5806 11.89C73.4985 12.485 73.6821 13.086 74.0827 13.5336C74.4832 13.9812 75.0603 14.2301 75.6607 14.2142ZM76.7603 11.4603H74.4869C74.4825 11.1497 74.604 10.8506 74.8236 10.6309C75.0432 10.4112 75.3423 10.2896 75.6529 10.2938C75.9591 10.287 76.254 10.4098 76.4648 10.6319C76.6757 10.8541 76.783 11.1549 76.7603 11.4603Z" fill="black"/>
<path fill-rule="evenodd" clip-rule="evenodd" d="M81.3804 9.62439H83.4107C84.2916 9.62439 84.8082 10.0707 84.8082 10.7694C84.811 11.2263 84.4938 11.6229 84.0474 11.7206V11.7909C84.5936 11.8254 85.0169 12.2818 85.0103 12.829C85.0103 13.6146 84.4195 14.1273 83.4312 14.1273H81.3804V9.62439ZM82.2613 10.3065V11.4725H83.1422C83.6793 11.4725 83.9361 11.266 83.9361 10.8851C83.9361 10.5341 83.7125 10.3065 83.2408 10.3065L82.2613 10.3065ZM82.2613 13.4452V12.1259L83.2037 12.1259C83.8033 12.1259 84.1217 12.3368 84.1217 12.7875C84.1217 13.2133 83.8404 13.4452 83.3151 13.4452H82.2613Z" fill="black"/>
</svg>
