<svg width="480" height="480" viewBox="0 0 480 480" fill="none" xmlns="http://www.w3.org/2000/svg">
<rect x="36" y="135" width="407" height="113" rx="15" fill="#637886"/>
<rect x="74" y="173" width="331" height="38" rx="15" fill="#0C171E"/>
<path d="M357.259 191.5C366.723 191.5 374.891 198.133 376.833 207.395L428.945 455.895C431.551 468.322 422.068 480 409.371 480H70.8456C58.4072 480 48.9857 468.767 51.151 456.518L95.0799 208.018C96.7689 198.464 105.072 191.5 114.775 191.5L357.259 191.5Z" fill="url(#paint0_linear)"/>
<mask id="mask0" mask-type="alpha" maskUnits="userSpaceOnUse" x="50" y="151" width="380" height="329">
<path d="M347.813 151.5C357.252 151.5 365.406 158.1 367.374 167.332L428.85 455.832C431.502 468.276 422.013 480 409.289 480H70.9121C58.4514 480 49.0243 468.729 51.2271 456.464L103.043 167.965C104.754 158.435 113.046 151.5 122.728 151.5L347.813 151.5Z" fill="#C4C4C4"/>
</mask>
<g mask="url(#mask0)">
<g opacity="0.2">
<path opacity="0.5" d="M401.751 414.064C417.353 416.37 424.413 429.738 417.522 443.924L413.149 452.925C412.736 453.777 411.641 454.354 410.705 454.216V454.216C395.104 451.91 388.043 438.542 394.935 424.356L399.308 415.355C399.721 414.503 400.815 413.926 401.751 414.064V414.064Z" fill="white"/>
<path opacity="0.5" d="M349.208 414.064C364.809 416.37 371.87 429.738 364.979 443.924L360.606 452.925C360.192 453.777 359.098 454.354 358.162 454.216V454.216C342.561 451.91 335.5 438.542 342.391 424.356L346.764 415.355C347.178 414.503 348.272 413.926 349.208 414.064V414.064Z" fill="white"/>
<path opacity="0.5" d="M296.664 414.064C312.266 416.37 319.327 429.738 312.435 443.924L308.062 452.925C307.649 453.777 306.555 454.354 305.619 454.216V454.216C290.017 451.91 282.956 438.542 289.848 424.356L294.221 415.355C294.634 414.503 295.728 413.926 296.664 414.064V414.064Z" fill="white"/>
<path opacity="0.5" d="M244.121 414.064C259.722 416.37 266.783 429.738 259.892 443.924L255.519 452.925C255.105 453.777 254.011 454.354 253.075 454.216V454.216C237.474 451.91 230.413 438.542 237.304 424.356L241.677 415.355C242.091 414.503 243.185 413.926 244.121 414.064V414.064Z" fill="white"/>
<path opacity="0.5" d="M191.578 414.064C207.179 416.37 214.24 429.738 207.348 443.924L202.975 452.925C202.562 453.777 201.468 454.354 200.532 454.216V454.216C184.93 451.91 177.87 438.542 184.761 424.356L189.134 415.355C189.548 414.503 190.642 413.926 191.578 414.064V414.064Z" fill="white"/>
<path opacity="0.5" d="M139.034 414.064C154.636 416.37 161.696 429.738 154.805 443.924L150.432 452.925C150.018 453.777 148.924 454.354 147.988 454.216V454.216C132.387 451.91 125.326 438.542 132.218 424.356L136.591 415.355C137.004 414.503 138.098 413.926 139.034 414.064V414.064Z" fill="white"/>
<path opacity="0.5" d="M86.4908 414.064C102.092 416.37 109.153 429.738 102.262 443.924L97.8886 452.925C97.4751 453.777 96.3811 454.354 95.445 454.216V454.216C79.8436 451.91 72.7828 438.542 79.6742 424.356L84.0472 415.355C84.4607 414.503 85.5548 413.926 86.4908 414.064V414.064Z" fill="white"/>
<path opacity="0.5" d="M33.9475 414.064C49.5489 416.37 56.6097 429.738 49.7183 443.924L45.3453 452.925C44.9318 453.777 43.8377 454.354 42.9017 454.216V454.216C27.3003 451.91 20.2395 438.542 27.1309 424.356L31.5039 415.355C31.9174 414.503 33.0114 413.926 33.9475 414.064V414.064Z" fill="white"/>
<path opacity="0.5" d="M428.55 450.345C448.681 453.32 457.792 470.57 448.899 488.874L443.257 500.489C442.723 501.587 441.312 502.332 440.104 502.154V502.154C419.973 499.179 410.862 481.929 419.754 463.625L425.397 452.01C425.93 450.912 427.342 450.166 428.55 450.345V450.345Z" fill="white"/>
<path opacity="0.5" d="M375.704 450.345C395.834 453.32 404.945 470.57 396.053 488.874L390.41 500.489C389.877 501.587 388.465 502.332 387.257 502.154V502.154C367.127 499.179 358.016 481.929 366.908 463.625L372.551 452.01C373.084 450.912 374.496 450.166 375.704 450.345V450.345Z" fill="white"/>
<path opacity="0.5" d="M322.857 450.345C342.988 453.32 352.099 470.57 343.207 488.874L337.564 500.489C337.031 501.587 335.619 502.332 334.411 502.154V502.154C314.28 499.179 305.17 481.929 314.062 463.625L319.704 452.01C320.238 450.912 321.649 450.166 322.857 450.345V450.345Z" fill="white"/>
<path opacity="0.5" d="M270.011 450.345C290.142 453.32 299.253 470.57 290.36 488.874L284.718 500.489C284.184 501.587 282.773 502.332 281.565 502.154V502.154C261.434 499.179 252.323 481.929 261.215 463.625L266.858 452.01C267.392 450.912 268.803 450.166 270.011 450.345V450.345Z" fill="white"/>
<path opacity="0.5" d="M217.165 450.345C237.296 453.32 246.406 470.57 237.514 488.874L231.871 500.489C231.338 501.587 229.926 502.332 228.718 502.154V502.154C208.588 499.179 199.477 481.929 208.369 463.625L214.012 452.01C214.545 450.912 215.957 450.166 217.165 450.345V450.345Z" fill="white"/>
<path opacity="0.5" d="M164.318 450.345C184.449 453.32 193.56 470.57 184.668 488.874L179.025 500.489C178.492 501.587 177.08 502.332 175.872 502.154V502.154C155.741 499.179 146.631 481.929 155.523 463.625L161.165 452.01C161.699 450.912 163.111 450.166 164.318 450.345V450.345Z" fill="white"/>
<path opacity="0.5" d="M111.472 450.345C131.603 453.32 140.714 470.57 131.821 488.874L126.179 500.489C125.645 501.587 124.234 502.332 123.026 502.154V502.154C102.895 499.179 93.7843 481.929 102.676 463.625L108.319 452.01C108.853 450.912 110.264 450.166 111.472 450.345V450.345Z" fill="white"/>
<path opacity="0.5" d="M58.6258 450.345C78.7566 453.32 87.8673 470.57 78.9752 488.874L73.3326 500.489C72.799 501.587 71.3874 502.332 70.1795 502.154V502.154C50.0487 499.179 40.938 481.929 49.8301 463.625L55.4727 452.01C56.0063 450.912 57.4179 450.166 58.6258 450.345V450.345Z" fill="white"/>
<path opacity="0.5" d="M425.041 387.564C436.616 389.274 441.855 399.193 436.742 409.718L433.498 416.396C433.191 417.028 432.379 417.456 431.685 417.354V417.354C420.109 415.643 414.871 405.724 419.984 395.2L423.228 388.521C423.535 387.89 424.347 387.461 425.041 387.564V387.564Z" fill="white"/>
<path opacity="0.5" d="M373.041 387.564C384.616 389.274 389.855 399.193 384.742 409.718L381.498 416.396C381.191 417.028 380.379 417.456 379.685 417.354V417.354C368.109 415.643 362.871 405.724 367.984 395.2L371.228 388.521C371.535 387.89 372.347 387.461 373.041 387.564V387.564Z" fill="white"/>
<path opacity="0.5" d="M321.041 387.564C332.616 389.274 337.855 399.193 332.742 409.718L329.498 416.396C329.191 417.028 328.379 417.456 327.685 417.354V417.354C316.109 415.643 310.871 405.724 315.984 395.2L319.228 388.521C319.535 387.89 320.347 387.461 321.041 387.564V387.564Z" fill="white"/>
<path opacity="0.5" d="M269.041 387.564C280.616 389.274 285.855 399.193 280.742 409.718L277.498 416.396C277.191 417.028 276.379 417.456 275.685 417.354V417.354C264.109 415.643 258.871 405.724 263.984 395.2L267.228 388.521C267.535 387.89 268.347 387.461 269.041 387.564V387.564Z" fill="white"/>
<path opacity="0.5" d="M217.041 387.564C228.616 389.274 233.855 399.193 228.742 409.718L225.498 416.396C225.191 417.028 224.379 417.456 223.685 417.354V417.354C212.109 415.643 206.871 405.724 211.984 395.2L215.228 388.521C215.535 387.89 216.347 387.461 217.041 387.564V387.564Z" fill="white"/>
<path opacity="0.5" d="M165.041 387.564C176.616 389.274 181.855 399.193 176.742 409.718L173.498 416.396C173.191 417.028 172.379 417.456 171.685 417.354V417.354C160.109 415.643 154.871 405.724 159.984 395.2L163.228 388.521C163.535 387.89 164.347 387.461 165.041 387.564V387.564Z" fill="white"/>
<path opacity="0.5" d="M113.041 387.564C124.616 389.274 129.855 399.193 124.742 409.718L121.498 416.396C121.191 417.028 120.379 417.456 119.685 417.354V417.354C108.109 415.643 102.871 405.724 107.984 395.2L111.228 388.521C111.535 387.89 112.347 387.461 113.041 387.564V387.564Z" fill="white"/>
<path opacity="0.5" d="M61.0412 387.564C72.6164 389.274 77.8551 399.193 72.7421 409.718L69.4976 416.396C69.1909 417.028 68.3791 417.456 67.6846 417.354V417.354C56.1094 415.643 50.8708 405.724 55.9837 395.2L59.2282 388.521C59.535 387.89 60.3467 387.461 61.0412 387.564V387.564Z" fill="white"/>
<path opacity="0.5" d="M400.775 364.212C410.84 365.699 415.396 374.324 410.95 383.476L408.128 389.284C407.862 389.833 407.156 390.206 406.552 390.116V390.116C396.486 388.629 391.931 380.004 396.377 370.852L399.198 365.044C399.465 364.495 400.171 364.123 400.775 364.212V364.212Z" fill="white"/>
<path opacity="0.5" d="M346.102 364.212C356.167 365.699 360.723 374.324 356.277 383.476L353.455 389.284C353.188 389.833 352.483 390.206 351.879 390.116V390.116C341.813 388.629 337.258 380.004 341.704 370.852L344.525 365.044C344.792 364.495 345.498 364.123 346.102 364.212V364.212Z" fill="white"/>
<path opacity="0.5" d="M291.429 364.212C301.494 365.699 306.049 374.324 301.603 383.476L298.782 389.284C298.515 389.833 297.809 390.206 297.206 390.116V390.116C287.14 388.629 282.585 380.004 287.031 370.852L289.852 365.044C290.119 364.495 290.825 364.123 291.429 364.212V364.212Z" fill="white"/>
<path opacity="0.5" d="M242.756 364.212C252.821 365.699 257.376 374.324 252.93 383.476L250.109 389.284C249.842 389.833 249.136 390.206 248.532 390.116V390.116C238.467 388.629 233.912 380.004 238.358 370.852L241.179 365.044C241.446 364.495 242.152 364.123 242.756 364.212V364.212Z" fill="white"/>
<path opacity="0.5" d="M192.082 364.212C202.148 365.699 206.703 374.324 202.257 383.476L199.436 389.284C199.169 389.833 198.463 390.206 197.859 390.116V390.116C187.794 388.629 183.238 380.004 187.685 370.852L190.506 365.044C190.773 364.495 191.478 364.123 192.082 364.212V364.212Z" fill="white"/>
<path opacity="0.5" d="M139.409 364.212C149.475 365.699 154.03 374.324 149.584 383.476L146.763 389.284C146.496 389.833 145.79 390.206 145.186 390.116V390.116C135.121 388.629 130.565 380.004 135.011 370.852L137.833 365.044C138.1 364.495 138.805 364.123 139.409 364.212V364.212Z" fill="white"/>
<path opacity="0.5" d="M84.736 364.212C94.8014 365.699 99.3568 374.324 94.9107 383.476L92.0894 389.284C91.8227 389.833 91.1168 390.206 90.5129 390.116V390.116C80.4475 388.629 75.8921 380.004 80.3382 370.852L83.1595 365.044C83.4263 364.495 84.1321 364.123 84.736 364.212V364.212Z" fill="white"/>
<path opacity="0.5" d="M36.0628 364.212C46.1282 365.699 50.6836 374.324 46.2375 383.476L43.4162 389.284C43.1495 389.833 42.4436 390.206 41.8397 390.116V390.116C31.7743 388.629 27.2189 380.004 31.665 370.852L34.4863 365.044C34.7531 364.495 35.4589 364.123 36.0628 364.212V364.212Z" fill="white"/>
<path opacity="0.5" d="M419.67 346.108C428.136 347.359 431.968 354.615 428.228 362.313L425.855 367.198C425.631 367.66 425.037 367.974 424.529 367.898V367.898C416.062 366.647 412.23 359.392 415.97 351.694L418.343 346.809C418.568 346.347 419.162 346.033 419.67 346.108V346.108Z" fill="white"/>
<path opacity="0.5" d="M370.868 346.108C379.335 347.359 383.167 354.615 379.427 362.313L377.054 367.198C376.829 367.66 376.235 367.974 375.727 367.898V367.898C367.261 366.647 363.429 359.392 367.169 351.694L369.542 346.809C369.766 346.347 370.36 346.033 370.868 346.108V346.108Z" fill="white"/>
<path opacity="0.5" d="M317.067 346.108C325.533 347.359 329.365 354.615 325.625 362.313L323.252 367.198C323.028 367.66 322.434 367.974 321.926 367.898V367.898C313.459 366.647 309.627 359.392 313.367 351.694L315.74 346.809C315.965 346.347 316.559 346.033 317.067 346.108V346.108Z" fill="white"/>
<path opacity="0.5" d="M214.464 346.108C222.93 347.359 226.762 354.615 223.022 362.313L220.649 367.198C220.425 367.66 219.831 367.974 219.323 367.898V367.898C210.856 366.647 207.024 359.392 210.764 351.694L213.137 346.809C213.362 346.347 213.955 346.033 214.464 346.108V346.108Z" fill="white"/>
<path opacity="0.5" d="M160.662 346.108C169.129 347.359 172.961 354.615 169.221 362.313L166.847 367.198C166.623 367.66 166.029 367.974 165.521 367.898V367.898C157.055 366.647 153.223 359.392 156.963 351.694L159.336 346.809C159.56 346.347 160.154 346.033 160.662 346.108V346.108Z" fill="white"/>
<path opacity="0.5" d="M110.86 346.108C119.327 347.359 123.159 354.615 119.419 362.313L117.046 367.198C116.822 367.66 116.228 367.974 115.72 367.898V367.898C107.253 366.647 103.421 359.392 107.161 351.694L109.534 346.809C109.759 346.347 110.352 346.033 110.86 346.108V346.108Z" fill="white"/>
<path opacity="0.5" d="M61.059 346.108C69.5257 347.359 73.3576 354.615 69.6177 362.313L67.2445 367.198C67.0201 367.66 66.4263 367.974 65.9183 367.898V367.898C57.4516 366.647 53.6197 359.392 57.3596 351.694L59.7328 346.809C59.9572 346.347 60.551 346.033 61.059 346.108V346.108Z" fill="white"/>
<path opacity="0.5" d="M395.352 331.069C402.337 332.101 405.499 338.087 402.413 344.438L400.455 348.468C400.27 348.849 399.78 349.108 399.361 349.046V349.046C392.376 348.014 389.215 342.028 392.3 335.677L394.258 331.647C394.443 331.266 394.933 331.007 395.352 331.069V331.069Z" fill="white"/>
<path opacity="0.5" d="M346.066 331.069C353.051 332.101 356.213 338.087 353.127 344.438L351.169 348.468C350.984 348.849 350.494 349.108 350.075 349.046V349.046C343.09 348.014 339.929 342.028 343.014 335.677L344.972 331.647C345.157 331.266 345.647 331.007 346.066 331.069V331.069Z" fill="white"/>
<path opacity="0.5" d="M289.78 331.069C296.765 332.101 299.926 338.087 296.841 344.438L294.883 348.468C294.698 348.849 294.208 349.108 293.789 349.046V349.046C286.804 348.014 283.642 342.028 286.728 335.677L288.686 331.647C288.871 331.266 289.361 331.007 289.78 331.069V331.069Z" fill="white"/>
<path opacity="0.5" d="M241.494 331.069C248.479 332.101 251.64 338.087 248.555 344.438L246.597 348.468C246.412 348.849 245.922 349.108 245.503 349.046V349.046C238.518 348.014 235.356 342.028 238.442 335.677L240.4 331.647C240.585 331.266 241.075 331.007 241.494 331.069V331.069Z" fill="white"/>
<path opacity="0.5" d="M190.207 331.069C197.192 332.101 200.354 338.087 197.268 344.438L195.31 348.468C195.125 348.849 194.635 349.108 194.216 349.046V349.046C187.231 348.014 184.07 342.028 187.155 335.677L189.113 331.647C189.298 331.266 189.788 331.007 190.207 331.069V331.069Z" fill="white"/>
<path opacity="0.5" d="M135.921 331.069C142.906 332.101 146.067 338.087 142.982 344.438L141.024 348.468C140.839 348.849 140.349 349.108 139.93 349.046V349.046C132.945 348.014 129.784 342.028 132.869 335.677L134.827 331.647C135.012 331.266 135.502 331.007 135.921 331.069V331.069Z" fill="white"/>
<path opacity="0.5" d="M86.6349 331.069C93.6199 332.101 96.7812 338.087 93.6958 344.438L91.7379 348.468C91.5528 348.849 91.0629 349.108 90.6438 349.046V349.046C83.6587 348.014 80.4975 342.028 83.5829 335.677L85.5408 331.647C85.7259 331.266 86.2158 331.007 86.6349 331.069V331.069Z" fill="white"/>
<path opacity="0.5" d="M319.035 319.034C324.539 319.848 327.029 324.564 324.598 329.568L323.056 332.743C322.91 333.043 322.524 333.247 322.194 333.198V333.198C316.69 332.385 314.2 327.669 316.631 322.665L318.173 319.49C318.319 319.189 318.705 318.986 319.035 319.034V319.034Z" fill="white"/>
<path opacity="0.5" d="M272.204 319.034C277.707 319.848 280.198 324.564 277.767 329.568L276.224 332.743C276.078 333.043 275.692 333.247 275.362 333.198V333.198C269.859 332.385 267.368 327.669 269.799 322.665L271.342 319.49C271.487 319.189 271.873 318.986 272.204 319.034V319.034Z" fill="white"/>
<path opacity="0.5" d="M164.406 319.034C169.909 319.848 172.4 324.564 169.969 329.568L168.426 332.743C168.281 333.043 167.895 333.247 167.564 333.198V333.198C162.061 332.385 159.57 327.669 162.001 322.665L163.544 319.49C163.69 319.189 164.076 318.986 164.406 319.034V319.034Z" fill="white"/>
<path opacity="0.5" d="M111.635 319.034C117.138 319.848 119.629 324.564 117.198 329.568L115.655 332.743C115.51 333.043 115.124 333.247 114.793 333.198V333.198C109.29 332.385 106.799 327.669 109.23 322.665L110.773 319.49C110.919 319.189 111.305 318.986 111.635 319.034V319.034Z" fill="white"/>
<path opacity="0.5" d="M292.802 303.584C297.882 304.335 300.181 308.688 297.937 313.307L296.513 316.238C296.378 316.515 296.022 316.703 295.717 316.658V316.658C290.637 315.907 288.338 311.554 290.582 306.935L292.006 304.004C292.141 303.727 292.497 303.539 292.802 303.584V303.584Z" fill="white"/>
<path opacity="0.5" d="M241.573 303.584C246.653 304.335 248.952 308.688 246.708 313.307L245.284 316.238C245.149 316.515 244.793 316.703 244.488 316.658V316.658C239.408 315.907 237.109 311.554 239.353 306.935L240.777 304.004C240.912 303.727 241.268 303.539 241.573 303.584V303.584Z" fill="white"/>
<path opacity="0.5" d="M141.067 303.584C146.147 304.335 148.446 308.688 146.202 313.307L144.778 316.238C144.644 316.515 144.288 316.703 143.983 316.658V316.658C138.903 315.907 136.604 311.554 138.848 306.935L140.271 304.004C140.406 303.727 140.762 303.539 141.067 303.584V303.584Z" fill="white"/>
<path opacity="0.5" d="M193.067 303.584C198.147 304.335 200.446 308.688 198.202 313.307L196.778 316.238C196.644 316.515 196.288 316.703 195.983 316.658V316.658C190.903 315.907 188.604 311.554 190.848 306.935L192.271 304.004C192.406 303.727 192.762 303.539 193.067 303.584V303.584Z" fill="white"/>
<path opacity="0.5" d="M89.3555 303.584C94.4355 304.335 96.7346 308.688 94.4907 313.307L93.0667 316.238C92.9321 316.515 92.5759 316.703 92.2711 316.658V316.658C87.191 315.907 84.8919 311.554 87.1358 306.935L88.5598 304.004C88.6944 303.727 89.0507 303.539 89.3555 303.584V303.584Z" fill="white"/>
<path opacity="0.5" d="M421.335 288.678C425.568 289.304 427.484 292.932 425.614 296.781L424.428 299.223C424.315 299.454 424.018 299.611 423.764 299.574V299.574C419.531 298.948 417.615 295.32 419.485 291.471L420.672 289.029C420.784 288.798 421.081 288.641 421.335 288.678V288.678Z" fill="white"/>
<path opacity="0.5" d="M396.335 271.58C400.568 272.206 402.484 275.833 400.614 279.683L399.428 282.125C399.315 282.356 399.018 282.513 398.764 282.475V282.475C394.531 281.85 392.615 278.222 394.485 274.373L395.672 271.93C395.784 271.699 396.081 271.543 396.335 271.58V271.58Z" fill="white"/>
<path opacity="0.5" d="M296.889 200.981C301.122 201.607 303.038 205.234 301.168 209.084L299.982 211.526C299.87 211.757 299.573 211.914 299.319 211.876V211.876C295.085 211.251 293.169 207.623 295.039 203.774L296.226 201.331C296.338 201.1 296.635 200.944 296.889 200.981V200.981Z" fill="white"/>
<path opacity="0.5" d="M318.222 288.678C322.456 289.304 324.372 292.932 322.502 296.781L321.315 299.223C321.203 299.454 320.906 299.611 320.652 299.574V299.574C316.419 298.948 314.503 295.32 316.373 291.471L317.559 289.029C317.672 288.798 317.968 288.641 318.222 288.678V288.678Z" fill="white"/>
<path opacity="0.5" d="M296.796 235.729C301.029 236.355 302.945 239.982 301.075 243.832L299.889 246.274C299.777 246.505 299.48 246.662 299.226 246.624V246.624C294.992 245.999 293.076 242.371 294.946 238.522L296.133 236.079C296.245 235.848 296.542 235.692 296.796 235.729V235.729Z" fill="white"/>
<path opacity="0.5" d="M296.796 271.58C301.029 272.206 302.945 275.834 301.075 279.683L299.889 282.125C299.777 282.356 299.48 282.513 299.226 282.475V282.475C294.992 281.85 293.076 278.222 294.946 274.373L296.133 271.931C296.245 271.7 296.542 271.543 296.796 271.58V271.58Z" fill="white"/>
<path opacity="0.5" d="M271.796 254.482C276.029 255.108 277.945 258.735 276.075 262.584L274.889 265.027C274.777 265.258 274.48 265.415 274.226 265.377V265.377C269.992 264.752 268.076 261.124 269.946 257.275L271.133 254.832C271.245 254.601 271.542 254.444 271.796 254.482V254.482Z" fill="white"/>
<path opacity="0.5" d="M166.796 255.034C171.029 255.659 172.945 259.287 171.075 263.136L169.889 265.578C169.777 265.809 169.48 265.966 169.226 265.929V265.929C164.992 265.303 163.076 261.675 164.946 257.826L166.133 255.384C166.245 255.153 166.542 254.996 166.796 255.034V255.034Z" fill="white"/>
<path opacity="0.5" d="M166.335 288.678C170.568 289.304 172.484 292.932 170.614 296.781L169.428 299.223C169.315 299.454 169.018 299.611 168.764 299.574V299.574C164.531 298.948 162.615 295.32 164.485 291.471L165.672 289.029C165.784 288.798 166.081 288.641 166.335 288.678V288.678Z" fill="white"/>
<path opacity="0.5" d="M113.335 255.034C117.568 255.659 119.484 259.287 117.614 263.136L116.428 265.578C116.315 265.809 116.018 265.966 115.764 265.929V265.929C111.531 265.303 109.615 261.675 111.485 257.826L112.672 255.384C112.784 255.153 113.081 254.996 113.335 255.034V255.034Z" fill="white"/>
<path opacity="0.5" d="M113.335 288.678C117.568 289.304 119.484 292.932 117.614 296.781L116.428 299.223C116.315 299.454 116.018 299.611 115.764 299.574V299.574C111.531 298.948 109.615 295.32 111.485 291.471L112.672 289.029C112.784 288.798 113.081 288.641 113.335 288.678V288.678Z" fill="white"/>
<path opacity="0.5" d="M91.3348 165.13C95.5682 165.756 97.4841 169.383 95.6141 173.233L94.4275 175.675C94.3153 175.906 94.0185 176.063 93.7645 176.025V176.025C89.5311 175.4 87.6151 171.772 89.4851 167.923L90.6717 165.48C90.7839 165.249 91.0808 165.093 91.3348 165.13V165.13Z" fill="white"/>
<path opacity="0.5" d="M62.3348 288.678C66.5682 289.304 68.4841 292.932 66.6141 296.781L65.4275 299.223C65.3153 299.454 65.0185 299.611 64.7645 299.574V299.574C60.5311 298.948 58.6151 295.32 60.4851 291.471L61.6717 289.029C61.7839 288.798 62.0808 288.641 62.3348 288.678V288.678Z" fill="white"/>
</g>
</g>
<path d="M369.602 282.599L369.152 280.162L360.6 280.243L359.847 276.163L380.772 275.944L381.525 280.024L373.144 280.102L373.458 281.801L382.725 286.527L383.691 291.763L372.428 285.663L362.846 292.414L361.985 287.749L369.602 282.599ZM387.048 309.949L366.126 310.182L365.37 306.088L382.801 305.895L381.842 300.701L372.561 300.427C369.656 300.291 367.472 299.744 366.009 298.785C364.557 297.834 363.64 296.453 363.257 294.642L362.944 292.943L366.39 292.811L366.558 293.413C366.894 294.503 367.634 295.312 368.777 295.84C369.931 296.367 371.631 296.61 373.88 296.569L375.388 296.55L384.609 296.734L387.048 309.949ZM379.198 321.017L389.731 324.487L390.579 329.082L372.507 322.597C370.821 322.044 369.555 321.352 368.71 320.519C367.876 319.694 367.342 318.645 367.107 317.373L366.887 315.787L370.327 315.469L370.414 316.489C370.533 317.13 370.777 317.646 371.147 318.039C371.517 318.431 372.096 318.761 372.885 319.028L373.86 319.396L387.5 312.4L388.269 316.563L379.198 321.017ZM389.856 344.119L388.237 335.346L384.184 335.388L384.661 338.051C385.061 340.271 384.807 342.118 383.898 343.591C382.989 345.065 381.575 345.906 379.656 346.117C377.614 346.34 375.842 345.793 374.342 344.477C372.841 343.16 371.871 341.309 371.431 338.923L370.043 331.404L390.968 331.184L393.348 344.079L389.856 344.119ZM380.706 335.426L374.267 335.491L374.803 338.473C375.002 339.55 375.474 340.418 376.22 341.077C376.977 341.744 377.885 342.061 378.944 342.029C379.811 341.994 380.457 341.697 380.882 341.138C381.316 340.578 381.466 339.826 381.33 338.882L380.706 335.426Z" fill="#EA001B"/>
<path d="M357.148 296.705L336.223 296.925L335.467 292.831L343.454 292.883C342.955 291.794 342.586 290.547 342.346 289.142C341.943 286.855 342.232 284.992 343.215 283.553C344.206 282.112 345.741 281.325 347.819 281.191L354.264 281.082L355.017 285.162L348.56 285.288C347.41 285.347 346.605 285.644 346.148 286.18C345.701 286.723 345.568 287.563 345.749 288.701C345.903 289.69 346.264 290.996 346.832 292.619L356.392 292.612L357.148 296.705ZM348.124 312.18L346.69 304.41L341.085 304.465L342.771 313.6L339.307 313.635L336.868 300.42L357.793 300.201L360.227 313.388L356.732 313.413L355.054 304.32L350.065 304.363L351.505 312.161L348.124 312.18ZM361.658 321.144L347.455 326.343L363.514 331.198L364.516 336.628L343.591 336.848L342.836 332.754L348.8 332.69L358.188 333.001L341.952 327.963L341.435 325.164L356.251 319.622L346.025 320.156L340.52 320.207L339.767 316.127L360.692 315.908L361.658 321.144ZM347.228 356.551L346.473 352.457L363.903 352.264L362.456 344.424L345.023 344.604L344.27 340.524L365.195 340.304L368.151 356.318L347.228 356.551ZM370.98 371.65L371.762 375.883L350.837 376.102L350.081 372.008L363.706 371.869L348.657 364.294L347.878 360.074L368.803 359.855L369.556 363.935L355.918 364.077L370.98 371.65ZM352.733 387.934C352.512 386.583 352.608 385.336 353.022 384.194C353.446 383.06 354.173 382.086 355.204 381.272C356.245 380.465 357.5 379.878 358.968 379.511C360.472 379.128 362.126 378.991 363.932 379.099C365.737 379.207 367.382 379.614 368.866 380.319C370.349 381.025 371.533 381.953 372.418 383.105C373.304 384.266 373.871 385.592 374.117 387.083C374.341 388.452 374.236 389.705 373.803 390.841C373.379 391.976 372.64 392.942 371.588 393.741C370.545 394.539 369.297 395.114 367.846 395.469C366.229 395.863 364.516 395.997 362.707 395.87C360.899 395.743 359.276 395.327 357.841 394.623C356.405 393.918 355.255 392.993 354.391 391.847C353.528 390.71 352.976 389.406 352.733 387.934ZM364.772 391.687L366.116 391.555C367.785 391.342 368.997 390.888 369.752 390.192C370.508 389.505 370.805 388.616 370.642 387.523C370.384 385.813 369.382 384.601 367.638 383.887C365.895 383.181 363.61 383.022 360.782 383.41C359.122 383.62 357.895 384.072 357.101 384.766C356.317 385.458 356.009 386.364 356.178 387.485C356.382 388.955 357.171 390.057 358.545 390.792C359.928 391.525 361.747 391.838 364.002 391.729L364.772 391.687ZM358.02 415.022L357.267 410.942L366.234 410.842L364.782 402.975L355.813 403.061L355.06 398.981L375.985 398.761L376.738 402.841L368.257 402.924L369.712 410.805L378.19 410.709L378.943 414.789L358.02 415.022ZM359.919 426.868C359.698 425.517 359.795 424.27 360.208 423.128C360.632 421.994 361.359 421.02 362.39 420.206C363.431 419.399 364.686 418.812 366.154 418.445C367.658 418.062 369.313 417.925 371.118 418.033C372.924 418.142 374.568 418.548 376.052 419.254C377.536 419.959 378.72 420.888 379.604 422.039C380.491 423.201 381.057 424.526 381.303 426.017C381.527 427.387 381.423 428.639 380.989 429.775C380.565 430.91 379.826 431.876 378.774 432.675C377.731 433.473 376.484 434.048 375.032 434.403C373.416 434.797 371.703 434.931 369.894 434.804C368.085 434.677 366.463 434.261 365.027 433.557C363.591 432.852 362.441 431.927 361.577 430.781C360.715 429.644 360.162 428.34 359.919 426.868ZM371.958 430.621L373.302 430.489C374.971 430.277 376.184 429.822 376.938 429.126C377.695 428.44 377.991 427.55 377.828 426.457C377.57 424.748 376.569 423.536 374.824 422.821C373.081 422.115 370.796 421.956 367.968 422.344C366.308 422.554 365.081 423.006 364.288 423.7C363.503 424.392 363.195 425.298 363.364 426.419C363.568 427.889 364.357 428.991 365.731 429.726C367.114 430.46 368.934 430.772 371.188 430.663L371.958 430.621ZM362.246 437.915L383.171 437.696L384.324 444.02C384.748 446.37 384.596 448.222 383.866 449.576C383.137 450.93 381.903 451.71 380.165 451.915C378.09 452.164 376.372 451.257 375.012 449.195C374.883 450.054 374.474 450.777 373.786 451.365C373.107 451.951 372.241 452.307 371.19 452.434C369.253 452.657 367.624 452.18 366.303 451.004C364.993 449.834 364.12 448.066 363.683 445.699L362.246 437.915ZM372.113 441.911L366.463 441.96L367.043 445.179C367.228 446.182 367.629 446.977 368.246 447.564C368.872 448.149 369.62 448.428 370.489 448.402C371.348 448.378 371.976 448.142 372.374 447.694C372.782 447.254 372.927 446.608 372.808 445.757L372.113 441.911ZM375.157 441.867L375.641 444.644C375.85 445.671 376.246 446.466 376.83 447.03C377.416 447.604 378.134 447.879 378.984 447.857C380.661 447.787 381.324 446.777 380.973 444.826L380.432 441.815L375.157 441.867Z" fill="white"/>
<path d="M100 107.231H140.352V67.1812C131.945 83.1374 116.178 93.5061 100 97.4999C100 100.519 100 107.25 100 107.25" fill="#008FB4"/>
<path d="M112.901 87.0938C122.369 82.1216 130.233 74.5596 135.577 65.2875C135.577 65.2875 135.577 60.675 135.577 60.5625C127.084 57.7831 119.336 53.1021 112.92 46.875C112.92 57.8625 112.92 87.15 112.92 87.15" fill="#008FB4"/>
<path d="M115.074 26.55C115.074 26.55 115.074 38.775 115.074 41.8313C118.168 44.8881 121.576 47.6094 125.241 49.9501V33.5625C121.583 31.6326 118.164 29.279 115.055 26.55" fill="#008FB4"/>
<path d="M174.899 39.375C174.775 38.3622 174.353 37.4095 173.686 36.6381C173.019 35.8667 172.138 35.3117 171.154 35.0437C170.026 34.6856 168.855 34.4776 167.672 34.425C166.848 34.3776 166.023 34.3776 165.2 34.425H164.863V29.7937H168.758L173.046 30.4124L173.214 26.5125H160.069L160.594 31.3687V42.2437L159.976 47.4H163.477H164.882C165.518 47.4 166.192 47.4 166.848 47.4H167.409C169.508 47.4634 171.565 46.8013 173.233 45.525C174.03 44.7396 174.604 43.7563 174.897 42.6757C175.19 41.5951 175.191 40.456 174.899 39.375ZM170.574 40.4437C170.605 40.8493 170.605 41.2568 170.574 41.6625C170.522 42.1089 170.353 42.5336 170.083 42.8928C169.813 43.252 169.453 43.5327 169.039 43.7062C167.756 44.1965 166.367 44.3388 165.013 44.1187V37.9687C166.476 37.6554 168.001 37.8061 169.376 38.4C169.776 38.58 170.114 38.8764 170.344 39.2509C170.575 39.6254 170.687 40.0606 170.668 40.5" fill="#191646"/>
<path d="M188.138 28.9313L187.501 26.3438H183.138L182.633 28.6125L177.352 42.375L175.03 47.3063H179.618L180.423 43.5563L181.528 40.7062H188.1L189.617 44.3438L190.422 47.2688H196.339L194.336 43.7813L188.138 28.9313ZM186.846 37.5937H184.749H182.689C183.082 36.6 183.513 35.5875 183.925 34.5938C184.337 33.6 184.561 33.1125 184.861 32.3813L186.846 37.5937Z" fill="#191646"/>
<path d="M230.568 47.3625H236.598L227.011 36.4875L235.998 26.55H230.699L229.201 28.7437C229.201 28.7437 225.063 33.2062 222.872 35.625V30.225L223.49 26.475H217.966L218.303 30.225V43.0687L217.966 47.325H223.584L222.872 43.125V37.95L230.568 47.3625Z" fill="#191646"/>
<path d="M214.222 41.1001C214.222 39.7126 214.222 30.3188 214.222 30.3188L214.708 26.5688H209.241L209.69 30.1876C209.69 30.1876 209.69 32.9251 209.69 34.5563H201.957C201.827 32.1607 202.016 29.7584 202.518 27.4126L202.743 26.5688H197.126V27.3376C197.126 27.6001 197.482 30.5063 197.538 31.8376C197.538 34.6501 197.538 37.4626 197.538 40.2751V40.8938C197.538 42.0751 197.257 45.6938 197.144 46.3313L196.976 47.1563H202.481L202.387 46.3876L202.238 45.0001C202.088 43.9313 201.957 42.9001 201.901 41.8688C201.844 40.8376 201.901 39.7501 201.901 38.7001V37.9688H209.784C209.784 38.4751 209.784 39.0001 209.784 39.5063C209.935 41.8019 209.752 44.1073 209.241 46.3501L209.016 47.2126H214.765L214.615 46.4063C214.324 44.6531 214.193 42.8771 214.222 41.1001Z" fill="#191646"/>
<path d="M283.222 57.6188L283.391 56.7938H271.632V57.5813C272.062 61.1063 272.362 64.4063 272.549 67.6876C272.699 70.0501 272.662 72.4688 272.549 74.8126C272.549 75.6563 272.549 76.4813 272.549 77.3251H250.716C250.335 70.7384 250.832 64.1301 252.195 57.6751L252.401 56.8126H240.305V57.6001C240.305 57.6001 241.223 65.5313 241.335 69.2626C241.56 76.4438 241.504 83.7751 241.335 90.8626V92.5501C241.335 95.6251 240.605 105.038 240.286 106.725L240.118 107.55H251.783V106.781C251.652 105.563 251.484 104.344 251.334 103.031C250.997 100.35 250.641 97.5938 250.491 94.8751C250.342 92.1563 250.379 89.3626 250.491 86.6813C250.491 85.6876 250.491 84.7126 250.491 83.7188H272.868C272.868 85.4063 272.868 87.0938 272.868 88.7438C273.239 94.7322 272.754 100.743 271.426 106.594L271.201 107.475H283.335L283.185 106.65C282.389 102.126 282.006 97.5379 282.043 92.9438C282.043 89.1938 282.043 72.5813 282.193 67.9876C282.249 64.4794 282.581 60.9812 283.185 57.5251" fill="#191646"/>
<path d="M211.544 101.363V83.3813C217.161 83.5313 227.872 84.375 227.984 84.3938H228.715V76.1438L211.506 77.1188V63C216.656 63 226.243 62.8875 231.224 64.4438L232.01 64.6875L232.122 63.8813C232.287 61.747 232.287 59.6031 232.122 57.4688V56.8313H201.114L201.245 57.6188C202.093 64.239 202.393 70.9179 202.144 77.5876C202.144 79.0876 202.144 80.6063 202.144 82.125C202.238 91.875 201.114 106.631 201.114 106.875V107.606L231.973 107.756V107.081C231.973 105.431 232.179 101.025 232.254 100.388V99.4501L231.336 99.6375C224.776 100.942 218.1 101.57 211.413 101.513" fill="#191646"/>
<path d="M185.179 79.1249L185.61 78.8437C188.4 76.9687 191.621 74.1562 191.808 69.4687C192.093 66.4856 191.234 63.5056 189.405 61.134C187.576 58.7624 184.913 57.177 181.959 56.6999C176.09 55.3928 169.986 55.6123 164.226 57.3374C161.174 58.1812 160.65 58.4437 160.743 59.2124C160.931 60.5437 161.193 62.0437 161.436 63.4874C161.623 64.5562 161.811 65.6249 161.979 66.6749C162.007 66.8613 162.086 67.036 162.209 67.1787C162.331 67.3214 162.492 67.4263 162.672 67.4812C162.854 67.5148 163.042 67.4996 163.216 67.437C163.39 67.3745 163.545 67.2668 163.664 67.1249L164.058 66.6937C165.568 65.1317 167.402 63.9208 169.431 63.1465C171.459 62.3722 173.633 62.0533 175.798 62.2124C177.239 62.1816 178.648 62.6415 179.795 63.5168C180.941 64.3922 181.757 65.6312 182.108 67.0312C182.932 70.7812 181.547 74.1749 178.588 75.4874C176.975 76.1747 175.283 76.6596 173.551 76.9312C171.679 77.2874 167.934 77.5312 167.821 77.5312H167.147L167.409 84.0374H168.083C168.083 84.0374 171.491 83.9249 174.3 83.9249C176.876 83.8947 179.429 84.4124 181.79 85.4437C182.675 85.9628 183.444 86.6583 184.05 87.4872C184.655 88.3161 185.084 89.2607 185.31 90.2624C185.872 93.1312 186.359 100.012 178.888 101.644C172.409 103.069 167.147 101.644 163.215 97.4062L162.148 96.2624L161.736 95.8312C161.603 95.6874 161.428 95.5899 161.236 95.5528C161.044 95.5157 160.845 95.5409 160.668 95.6249C160.503 95.6755 160.357 95.7735 160.247 95.9069C160.137 96.0402 160.069 96.203 160.051 96.3749L159.845 97.9687C159.657 99.5062 159.489 100.969 159.264 102.412C159.163 102.938 159.245 103.482 159.497 103.953C159.75 104.424 160.157 104.794 160.65 105C165.007 107.434 169.91 108.724 174.899 108.75C175.892 108.75 176.884 108.75 177.895 108.619C181.915 108.291 185.744 106.762 188.887 104.231C190.926 102.743 192.548 100.753 193.594 98.4539C194.64 96.1545 195.077 93.6237 194.86 91.1062C194.336 85.3124 191.115 81.3187 185.104 79.2374" fill="#191646"/>
<path d="M333.143 85.4251V79.2375C332.888 72.0154 333.295 64.7851 334.36 57.6375L334.51 56.8313H322.414L322.563 57.6375C322.975 59.7938 323.312 62.1 323.612 64.4813C323.676 64.7444 323.673 65.0192 323.605 65.2811C323.536 65.5429 323.403 65.7836 323.219 65.9813C319.361 70.1063 315.598 74.3063 311.984 78.3563C308.67 82.1063 305.243 85.8563 301.741 89.6063C301.741 86.4376 301.741 83.2688 301.741 80.2313C301.573 72.4501 301.442 65.1001 303.352 57.7313L303.576 56.8688H291.181L291.443 57.7688C292.407 61.494 292.805 65.3436 292.622 69.1876V72.9376C292.622 79.5376 292.622 86.3813 292.622 93.0938C292.622 94.1063 292.622 95.1188 292.622 96.1126C292.753 97.9853 292.753 99.8648 292.622 101.738C292.478 102.874 292.265 104.001 291.986 105.113C291.855 105.656 291.742 106.181 291.611 106.725L291.443 107.55H303.389L303.258 106.763C302.996 105.113 302.827 103.481 302.659 101.888C302.659 100.969 302.453 100.013 302.341 99.1126C302.314 98.6801 302.447 98.2529 302.715 97.9126C306.123 94.1626 309.475 90.4126 312.714 86.8501C316.459 82.7438 320.204 78.5063 324.099 74.3251V75.5813C324.099 77.4563 324.099 79.3313 324.099 81.2063C324.099 83.4563 324.099 85.7251 324.099 87.9376C324.099 91.3313 324.099 94.8376 324.099 98.2688C323.964 100.201 323.714 102.123 323.35 104.025C323.2 104.906 323.05 105.788 322.919 106.688L322.807 107.475H334.697L334.547 106.669C333.485 99.6154 333.078 92.4787 333.33 85.3501" fill="#191646"/>
<path d="M363.683 63.5812C363.683 63.5812 363.683 63.3187 363.683 63.1499L378.963 65.0249L377.989 56.6437H339.809L338.966 65.0249L355.332 63.1499V64.0312C355.332 70.3874 355.332 94.0312 355.332 95.1562L353.759 107.55H365.35L363.889 95.3812C363.889 95.1562 363.739 74.0624 363.702 63.5062" fill="#191646"/>
<g filter="url(#filter0_d)">
<rect x="366" y="148" width="52" height="13" rx="5" fill="#00B274"/>
</g>
<defs>
<filter id="filter0_d" x="361" y="143" width="62" height="23" filterUnits="userSpaceOnUse" color-interpolation-filters="sRGB">
<feFlood flood-opacity="0" result="BackgroundImageFix"/>
<feColorMatrix in="SourceAlpha" type="matrix" values="0 0 0 0 0 0 0 0 0 0 0 0 0 0 0 0 0 0 127 0"/>
<feOffset/>
<feGaussianBlur stdDeviation="2.5"/>
<feColorMatrix type="matrix" values="0 0 0 0 0 0 0 0 0 0.698039 0 0 0 0 0.454902 0 0 0 1 0"/>
<feBlend mode="normal" in2="BackgroundImageFix" result="effect1_dropShadow"/>
<feBlend mode="normal" in="SourceGraphic" in2="effect1_dropShadow" result="shape"/>
</filter>
<linearGradient id="paint0_linear" x1="434.001" y1="467.5" x2="47.0021" y2="-131" gradientUnits="userSpaceOnUse">
<stop stop-color="#2F4654"/>
<stop offset="1" stop-color="#11202D"/>
</linearGradient>
</defs>
</svg>
