<svg width="600" height="387" viewBox="0 0 600 387" fill="none" xmlns="http://www.w3.org/2000/svg">
<rect width="600" height="387" rx="20" fill="url(#paint0_linear)"/>
<path d="M355.641 314.094V323H352.641V300.25H361.031C363.521 300.25 365.469 300.885 366.875 302.156C368.292 303.427 369 305.109 369 307.203C369 309.411 368.307 311.115 366.922 312.312C365.547 313.5 363.573 314.094 361 314.094H355.641ZM355.641 311.641H361.031C362.635 311.641 363.865 311.266 364.719 310.516C365.573 309.755 366 308.661 366 307.234C366 305.88 365.573 304.797 364.719 303.984C363.865 303.172 362.693 302.75 361.203 302.719H355.641V311.641ZM379.172 323.312C376.88 323.312 375.016 322.562 373.578 321.062C372.141 319.552 371.422 317.536 371.422 315.016V314.484C371.422 312.807 371.74 311.312 372.375 310C373.021 308.677 373.917 307.646 375.062 306.906C376.219 306.156 377.469 305.781 378.812 305.781C381.01 305.781 382.719 306.505 383.938 307.953C385.156 309.401 385.766 311.474 385.766 314.172V315.375H374.312C374.354 317.042 374.839 318.391 375.766 319.422C376.703 320.443 377.891 320.953 379.328 320.953C380.349 320.953 381.214 320.745 381.922 320.328C382.63 319.911 383.25 319.359 383.781 318.672L385.547 320.047C384.13 322.224 382.005 323.312 379.172 323.312ZM378.812 308.156C377.646 308.156 376.667 308.583 375.875 309.438C375.083 310.281 374.594 311.469 374.406 313H382.875V312.781C382.792 311.312 382.396 310.177 381.688 309.375C380.979 308.562 380.021 308.156 378.812 308.156ZM400.047 308.484H392.25V323H389.344V306.094H400.047V308.484ZM413.5 306.094H416.391V323H413.5V310.672L405.703 323H402.812V306.094H405.703V318.438L413.5 306.094ZM427.812 320.953C428.844 320.953 429.745 320.641 430.516 320.016C431.286 319.391 431.714 318.609 431.797 317.672H434.531C434.479 318.641 434.146 319.562 433.531 320.438C432.917 321.312 432.094 322.01 431.062 322.531C430.042 323.052 428.958 323.312 427.812 323.312C425.51 323.312 423.677 322.547 422.312 321.016C420.958 319.474 420.281 317.37 420.281 314.703V314.219C420.281 312.573 420.583 311.109 421.188 309.828C421.792 308.547 422.656 307.552 423.781 306.844C424.917 306.135 426.255 305.781 427.797 305.781C429.693 305.781 431.266 306.349 432.516 307.484C433.776 308.62 434.448 310.094 434.531 311.906H431.797C431.714 310.812 431.297 309.917 430.547 309.219C429.807 308.51 428.891 308.156 427.797 308.156C426.328 308.156 425.188 308.688 424.375 309.75C423.573 310.802 423.172 312.328 423.172 314.328V314.875C423.172 316.823 423.573 318.323 424.375 319.375C425.177 320.427 426.323 320.953 427.812 320.953ZM450.344 308.438H444.672V323H441.781V308.438H436.219V306.094H450.344V308.438ZM467.438 314.734C467.438 317.307 466.849 319.38 465.672 320.953C464.495 322.526 462.901 323.312 460.891 323.312C458.839 323.312 457.224 322.661 456.047 321.359V329.5H453.156V306.094H455.797L455.938 307.969C457.115 306.51 458.75 305.781 460.844 305.781C462.875 305.781 464.479 306.547 465.656 308.078C466.844 309.609 467.438 311.74 467.438 314.469V314.734ZM464.547 314.406C464.547 312.5 464.141 310.995 463.328 309.891C462.516 308.786 461.401 308.234 459.984 308.234C458.234 308.234 456.922 309.01 456.047 310.562V318.641C456.911 320.182 458.234 320.953 460.016 320.953C461.401 320.953 462.5 320.406 463.312 319.312C464.135 318.208 464.547 316.573 464.547 314.406ZM481.562 323C481.396 322.667 481.26 322.073 481.156 321.219C479.812 322.615 478.208 323.312 476.344 323.312C474.677 323.312 473.307 322.844 472.234 321.906C471.172 320.958 470.641 319.76 470.641 318.312C470.641 316.552 471.307 315.188 472.641 314.219C473.984 313.24 475.87 312.75 478.297 312.75H481.109V311.422C481.109 310.411 480.807 309.609 480.203 309.016C479.599 308.411 478.708 308.109 477.531 308.109C476.5 308.109 475.635 308.37 474.938 308.891C474.24 309.411 473.891 310.042 473.891 310.781H470.984C470.984 309.938 471.281 309.125 471.875 308.344C472.479 307.552 473.292 306.927 474.312 306.469C475.344 306.01 476.474 305.781 477.703 305.781C479.651 305.781 481.177 306.271 482.281 307.25C483.385 308.219 483.958 309.557 484 311.266V319.047C484 320.599 484.198 321.833 484.594 322.75V323H481.562ZM476.766 320.797C477.672 320.797 478.531 320.562 479.344 320.094C480.156 319.625 480.745 319.016 481.109 318.266V314.797H478.844C475.302 314.797 473.531 315.833 473.531 317.906C473.531 318.812 473.833 319.521 474.438 320.031C475.042 320.542 475.818 320.797 476.766 320.797ZM488.781 306.094H491.688V320.641H499.469V306.094H502.359V320.641H504.375L504.094 328.016H501.5V323H488.781V306.094ZM518.438 306.094H521.328V323H518.438V310.672L510.641 323H507.75V306.094H510.641V318.438L518.438 306.094ZM538.891 306.094V323H535.984V316.422H531.625L527.641 323H524.516L528.766 315.984C527.682 315.589 526.849 314.979 526.266 314.156C525.693 313.323 525.406 312.354 525.406 311.25C525.406 309.708 525.984 308.469 527.141 307.531C528.297 306.583 529.844 306.104 531.781 306.094H538.891ZM528.312 311.281C528.312 312.104 528.594 312.771 529.156 313.281C529.719 313.781 530.464 314.036 531.391 314.047H535.984V308.438H531.828C530.755 308.438 529.901 308.703 529.266 309.234C528.63 309.755 528.312 310.438 528.312 311.281Z" fill="#293C48"/>
<rect x="41" y="278" width="258" height="68" rx="9" fill="#2E4654" stroke="#2E4654" stroke-width="2"/>
<path d="M127.891 323V300.25H135.328C137.797 300.25 139.651 300.76 140.891 301.781C142.141 302.802 142.766 304.312 142.766 306.312C142.766 307.375 142.464 308.318 141.859 309.141C141.255 309.953 140.432 310.583 139.391 311.031C140.62 311.375 141.589 312.031 142.297 313C143.016 313.958 143.375 315.104 143.375 316.438C143.375 318.479 142.714 320.083 141.391 321.25C140.068 322.417 138.198 323 135.781 323H127.891ZM130.891 312.359V320.547H135.844C137.24 320.547 138.339 320.188 139.141 319.469C139.953 318.74 140.359 317.74 140.359 316.469C140.359 313.729 138.87 312.359 135.891 312.359H130.891ZM130.891 309.953H135.422C136.734 309.953 137.781 309.625 138.562 308.969C139.354 308.312 139.75 307.422 139.75 306.297C139.75 305.047 139.385 304.141 138.656 303.578C137.927 303.005 136.818 302.719 135.328 302.719H130.891V309.953ZM146.609 314.391C146.609 312.734 146.932 311.245 147.578 309.922C148.234 308.599 149.141 307.578 150.297 306.859C151.464 306.141 152.792 305.781 154.281 305.781C156.583 305.781 158.443 306.578 159.859 308.172C161.286 309.766 162 311.885 162 314.531V314.734C162 316.38 161.682 317.859 161.047 319.172C160.422 320.474 159.521 321.49 158.344 322.219C157.177 322.948 155.833 323.312 154.312 323.312C152.021 323.312 150.161 322.516 148.734 320.922C147.318 319.328 146.609 317.219 146.609 314.594V314.391ZM149.516 314.734C149.516 316.609 149.948 318.115 150.812 319.25C151.688 320.385 152.854 320.953 154.312 320.953C155.781 320.953 156.948 320.38 157.812 319.234C158.677 318.078 159.109 316.464 159.109 314.391C159.109 312.536 158.667 311.036 157.781 309.891C156.906 308.734 155.74 308.156 154.281 308.156C152.854 308.156 151.703 308.724 150.828 309.859C149.953 310.995 149.516 312.62 149.516 314.734ZM176.562 306.094H179.453V323H176.562V310.672L168.766 323H165.875V306.094H168.766V318.438L176.562 306.094ZM177.344 299.938C177.344 301.198 176.911 302.214 176.047 302.984C175.193 303.745 174.068 304.125 172.672 304.125C171.276 304.125 170.146 303.74 169.281 302.969C168.417 302.198 167.984 301.188 167.984 299.938H170.344C170.344 300.667 170.542 301.24 170.938 301.656C171.333 302.062 171.911 302.266 172.672 302.266C173.401 302.266 173.969 302.062 174.375 301.656C174.792 301.25 175 300.677 175 299.938H177.344ZM196.656 308.438H190.984V323H188.094V308.438H182.531V306.094H196.656V308.438ZM210.406 306.094H213.297V323H210.406V310.672L202.609 323H199.719V306.094H202.609V318.438L210.406 306.094Z" fill="white"/>
<rect x="41" y="180" width="518" height="68" rx="9" stroke="#2F4654" stroke-opacity="0.2" stroke-width="2"/>
<path d="M80.0156 225H77V204.719H65.7812V225H62.7812V202.25H80.0156V225ZM95.4688 225C95.3021 224.667 95.1667 224.073 95.0625 223.219C93.7188 224.615 92.1146 225.312 90.25 225.312C88.5833 225.312 87.2135 224.844 86.1406 223.906C85.0781 222.958 84.5469 221.76 84.5469 220.312C84.5469 218.552 85.2135 217.188 86.5469 216.219C87.8906 215.24 89.776 214.75 92.2031 214.75H95.0156V213.422C95.0156 212.411 94.7135 211.609 94.1094 211.016C93.5052 210.411 92.6146 210.109 91.4375 210.109C90.4062 210.109 89.5417 210.37 88.8438 210.891C88.1458 211.411 87.7969 212.042 87.7969 212.781H84.8906C84.8906 211.938 85.1875 211.125 85.7812 210.344C86.3854 209.552 87.1979 208.927 88.2188 208.469C89.25 208.01 90.3802 207.781 91.6094 207.781C93.5573 207.781 95.0833 208.271 96.1875 209.25C97.2917 210.219 97.8646 211.557 97.9062 213.266V221.047C97.9062 222.599 98.1042 223.833 98.5 224.75V225H95.4688ZM90.6719 222.797C91.5781 222.797 92.4375 222.562 93.25 222.094C94.0625 221.625 94.651 221.016 95.0156 220.266V216.797H92.75C89.2083 216.797 87.4375 217.833 87.4375 219.906C87.4375 220.812 87.7396 221.521 88.3438 222.031C88.9479 222.542 89.724 222.797 90.6719 222.797ZM116.719 216.734C116.719 219.307 116.13 221.38 114.953 222.953C113.776 224.526 112.182 225.312 110.172 225.312C108.12 225.312 106.505 224.661 105.328 223.359V231.5H102.438V208.094H105.078L105.219 209.969C106.396 208.51 108.031 207.781 110.125 207.781C112.156 207.781 113.76 208.547 114.938 210.078C116.125 211.609 116.719 213.74 116.719 216.469V216.734ZM113.828 216.406C113.828 214.5 113.422 212.995 112.609 211.891C111.797 210.786 110.682 210.234 109.266 210.234C107.516 210.234 106.203 211.01 105.328 212.562V220.641C106.193 222.182 107.516 222.953 109.297 222.953C110.682 222.953 111.781 222.406 112.594 221.312C113.417 220.208 113.828 218.573 113.828 216.406ZM119.641 216.391C119.641 214.734 119.964 213.245 120.609 211.922C121.266 210.599 122.172 209.578 123.328 208.859C124.495 208.141 125.823 207.781 127.312 207.781C129.615 207.781 131.474 208.578 132.891 210.172C134.318 211.766 135.031 213.885 135.031 216.531V216.734C135.031 218.38 134.714 219.859 134.078 221.172C133.453 222.474 132.552 223.49 131.375 224.219C130.208 224.948 128.865 225.312 127.344 225.312C125.052 225.312 123.193 224.516 121.766 222.922C120.349 221.328 119.641 219.219 119.641 216.594V216.391ZM122.547 216.734C122.547 218.609 122.979 220.115 123.844 221.25C124.719 222.385 125.885 222.953 127.344 222.953C128.812 222.953 129.979 222.38 130.844 221.234C131.708 220.078 132.141 218.464 132.141 216.391C132.141 214.536 131.698 213.036 130.812 211.891C129.938 210.734 128.771 210.156 127.312 210.156C125.885 210.156 124.734 210.724 123.859 211.859C122.984 212.995 122.547 214.62 122.547 216.734ZM152.266 208.094V225H149.359V210.484H143.609L143.266 216.812C143.078 219.719 142.589 221.797 141.797 223.047C141.016 224.297 139.771 224.948 138.062 225H136.906V222.453L137.734 222.391C138.672 222.286 139.344 221.745 139.75 220.766C140.156 219.786 140.417 217.974 140.531 215.328L140.844 208.094H152.266ZM160.062 213.922H164.453C166.37 213.943 167.885 214.443 169 215.422C170.115 216.401 170.672 217.729 170.672 219.406C170.672 221.094 170.099 222.448 168.953 223.469C167.807 224.49 166.266 225 164.328 225H157.172V208.094H160.062V213.922ZM160.062 216.281V222.641H164.359C165.443 222.641 166.281 222.365 166.875 221.812C167.469 221.25 167.766 220.484 167.766 219.516C167.766 218.578 167.474 217.812 166.891 217.219C166.318 216.615 165.51 216.302 164.469 216.281H160.062Z" fill="#293C48"/>
<rect x="41" y="93" width="518" height="68" rx="9" stroke="#2F4654" stroke-opacity="0.2" stroke-width="2"/>
<path d="M80.125 138H77.1094V127.484H65.6406V138H62.6406V115.25H65.6406V125.031H77.1094V115.25H80.125V138ZM84.2344 129.391C84.2344 127.734 84.5573 126.245 85.2031 124.922C85.8594 123.599 86.7656 122.578 87.9219 121.859C89.0885 121.141 90.4167 120.781 91.9062 120.781C94.2083 120.781 96.0677 121.578 97.4844 123.172C98.9115 124.766 99.625 126.885 99.625 129.531V129.734C99.625 131.38 99.3073 132.859 98.6719 134.172C98.0469 135.474 97.1458 136.49 95.9688 137.219C94.8021 137.948 93.4583 138.312 91.9375 138.312C89.6458 138.312 87.7865 137.516 86.3594 135.922C84.9427 134.328 84.2344 132.219 84.2344 129.594V129.391ZM87.1406 129.734C87.1406 131.609 87.5729 133.115 88.4375 134.25C89.3125 135.385 90.4792 135.953 91.9375 135.953C93.4062 135.953 94.5729 135.38 95.4375 134.234C96.3021 133.078 96.7344 131.464 96.7344 129.391C96.7344 127.536 96.2917 126.036 95.4062 124.891C94.5312 123.734 93.3646 123.156 91.9062 123.156C90.4792 123.156 89.3281 123.724 88.4531 124.859C87.5781 125.995 87.1406 127.62 87.1406 129.734ZM112.984 134.172L118.734 121.094H122.344V138H119.453V125.703L113.984 138H111.984L106.406 125.438V138H103.516V121.094H107.266L112.984 134.172ZM134.016 138.312C131.724 138.312 129.859 137.562 128.422 136.062C126.984 134.552 126.266 132.536 126.266 130.016V129.484C126.266 127.807 126.583 126.312 127.219 125C127.865 123.677 128.76 122.646 129.906 121.906C131.062 121.156 132.312 120.781 133.656 120.781C135.854 120.781 137.562 121.505 138.781 122.953C140 124.401 140.609 126.474 140.609 129.172V130.375H129.156C129.198 132.042 129.682 133.391 130.609 134.422C131.547 135.443 132.734 135.953 134.172 135.953C135.193 135.953 136.057 135.745 136.766 135.328C137.474 134.911 138.094 134.359 138.625 133.672L140.391 135.047C138.974 137.224 136.849 138.312 134.016 138.312ZM133.656 123.156C132.49 123.156 131.51 123.583 130.719 124.438C129.927 125.281 129.438 126.469 129.25 128H137.719V127.781C137.635 126.312 137.24 125.177 136.531 124.375C135.823 123.562 134.865 123.156 133.656 123.156ZM158.25 129.734C158.25 132.307 157.661 134.38 156.484 135.953C155.307 137.526 153.714 138.312 151.703 138.312C149.651 138.312 148.036 137.661 146.859 136.359V144.5H143.969V121.094H146.609L146.75 122.969C147.927 121.51 149.562 120.781 151.656 120.781C153.688 120.781 155.292 121.547 156.469 123.078C157.656 124.609 158.25 126.74 158.25 129.469V129.734ZM155.359 129.406C155.359 127.5 154.953 125.995 154.141 124.891C153.328 123.786 152.214 123.234 150.797 123.234C149.047 123.234 147.734 124.01 146.859 125.562V133.641C147.724 135.182 149.047 135.953 150.828 135.953C152.214 135.953 153.312 135.406 154.125 134.312C154.948 133.208 155.359 131.573 155.359 129.406ZM175.141 130.797H173.031V138H170.125V121.094H173.031V128.25H174.922L180.609 121.094H184.109L177.422 129.219L184.672 138H181L175.141 130.797ZM197.594 138C197.427 137.667 197.292 137.073 197.188 136.219C195.844 137.615 194.24 138.312 192.375 138.312C190.708 138.312 189.339 137.844 188.266 136.906C187.203 135.958 186.672 134.76 186.672 133.312C186.672 131.552 187.339 130.188 188.672 129.219C190.016 128.24 191.901 127.75 194.328 127.75H197.141V126.422C197.141 125.411 196.839 124.609 196.234 124.016C195.63 123.411 194.74 123.109 193.562 123.109C192.531 123.109 191.667 123.37 190.969 123.891C190.271 124.411 189.922 125.042 189.922 125.781H187.016C187.016 124.938 187.312 124.125 187.906 123.344C188.51 122.552 189.323 121.927 190.344 121.469C191.375 121.01 192.505 120.781 193.734 120.781C195.682 120.781 197.208 121.271 198.312 122.25C199.417 123.219 199.99 124.557 200.031 126.266V134.047C200.031 135.599 200.229 136.833 200.625 137.75V138H197.594ZM192.797 135.797C193.703 135.797 194.562 135.562 195.375 135.094C196.188 134.625 196.776 134.016 197.141 133.266V129.797H194.875C191.333 129.797 189.562 130.833 189.562 132.906C189.562 133.812 189.865 134.521 190.469 135.031C191.073 135.542 191.849 135.797 192.797 135.797ZM218.844 129.734C218.844 132.307 218.255 134.38 217.078 135.953C215.901 137.526 214.307 138.312 212.297 138.312C210.245 138.312 208.63 137.661 207.453 136.359V144.5H204.562V121.094H207.203L207.344 122.969C208.521 121.51 210.156 120.781 212.25 120.781C214.281 120.781 215.885 121.547 217.062 123.078C218.25 124.609 218.844 126.74 218.844 129.469V129.734ZM215.953 129.406C215.953 127.5 215.547 125.995 214.734 124.891C213.922 123.786 212.807 123.234 211.391 123.234C209.641 123.234 208.328 124.01 207.453 125.562V133.641C208.318 135.182 209.641 135.953 211.422 135.953C212.807 135.953 213.906 135.406 214.719 134.312C215.542 133.208 215.953 131.573 215.953 129.406ZM233.844 123.438H228.172V138H225.281V123.438H219.719V121.094H233.844V123.438ZM239.812 126.922H244.203C246.12 126.943 247.635 127.443 248.75 128.422C249.865 129.401 250.422 130.729 250.422 132.406C250.422 134.094 249.849 135.448 248.703 136.469C247.557 137.49 246.016 138 244.078 138H236.922V121.094H239.812V126.922ZM256.453 138H253.547V121.094H256.453V138ZM239.812 129.281V135.641H244.109C245.193 135.641 246.031 135.365 246.625 134.812C247.219 134.25 247.516 133.484 247.516 132.516C247.516 131.578 247.224 130.812 246.641 130.219C246.068 129.615 245.26 129.302 244.219 129.281H239.812Z" fill="#293C48"/>
<path fill-rule="evenodd" clip-rule="evenodd" d="M558.607 29.7574C557.956 30.4083 557.956 31.4636 558.607 32.1144L566.856 40.364L558.607 48.6136C557.956 49.2645 557.956 50.3197 558.607 50.9706C559.258 51.6215 560.313 51.6215 560.964 50.9706L569.213 42.7211L577.463 50.9706C578.114 51.6215 579.169 51.6215 579.82 50.9706C580.471 50.3197 580.471 49.2645 579.82 48.6136L571.57 40.364L579.82 32.1144C580.471 31.4635 580.471 30.4083 579.82 29.7574C579.169 29.1065 578.114 29.1065 577.463 29.7574L569.213 38.007L560.964 29.7574C560.313 29.1065 559.257 29.1065 558.607 29.7574Z" fill="#293C48" fill-opacity="0.5"/>
<path d="M42.0312 60V37.25H50C52.7604 37.25 54.8542 37.7812 56.2812 38.8438C57.7083 39.8958 58.4219 41.4427 58.4219 43.4844C58.4219 44.599 58.1354 45.5833 57.5625 46.4375C56.9896 47.2812 56.1927 47.901 55.1719 48.2969C56.3385 48.5885 57.2552 49.1771 57.9219 50.0625C58.599 50.9479 58.9375 52.0312 58.9375 53.3125C58.9375 55.5 58.2396 57.1562 56.8438 58.2812C55.4479 59.4062 53.4583 59.9792 50.875 60H42.0312ZM46.7188 50.0938V56.2344H50.7344C51.8385 56.2344 52.6979 55.974 53.3125 55.4531C53.9375 54.9219 54.25 54.1927 54.25 53.2656C54.25 51.1823 53.1719 50.125 51.0156 50.0938H46.7188ZM46.7188 46.7812H50.1875C52.5521 46.7396 53.7344 45.7969 53.7344 43.9531C53.7344 42.9219 53.4323 42.1823 52.8281 41.7344C52.2344 41.276 51.2917 41.0469 50 41.0469H46.7188V46.7812ZM68.6094 48.1406L71.4531 43.0938H76.2812L71.4688 51.375L76.4844 60H71.6406L68.625 54.6875L65.625 60H60.7656L65.7812 51.375L60.9844 43.0938H65.8281L68.6094 48.1406ZM77.125 51.3906C77.125 49.7135 77.4479 48.2188 78.0938 46.9062C78.7396 45.5938 79.6667 44.5781 80.875 43.8594C82.0938 43.1406 83.5052 42.7812 85.1094 42.7812C87.3906 42.7812 89.25 43.4792 90.6875 44.875C92.1354 46.2708 92.9427 48.1667 93.1094 50.5625L93.1406 51.7188C93.1406 54.3125 92.4167 56.3958 90.9688 57.9688C89.5208 59.5312 87.5781 60.3125 85.1406 60.3125C82.7031 60.3125 80.7552 59.5312 79.2969 57.9688C77.849 56.4062 77.125 54.2812 77.125 51.5938V51.3906ZM81.6406 51.7188C81.6406 53.3229 81.9427 54.5521 82.5469 55.4062C83.151 56.25 84.0156 56.6719 85.1406 56.6719C86.2344 56.6719 87.0885 56.2552 87.7031 55.4219C88.3177 54.5781 88.625 53.2344 88.625 51.3906C88.625 49.8177 88.3177 48.599 87.7031 47.7344C87.0885 46.8698 86.224 46.4375 85.1094 46.4375C84.0052 46.4375 83.151 46.8698 82.5469 47.7344C81.9427 48.5885 81.6406 49.9167 81.6406 51.7188ZM95.0312 56.3594C96.0521 55.276 96.7448 54.2031 97.1094 53.1406C97.474 52.0781 97.6771 50.5729 97.7188 48.625L97.8438 43.0938H110.281V56.3594H112.719V65.0781H108.203V60H98.1875V65.0781H93.5781V56.3594H95.0312ZM100.359 56.3594H105.781V46.8281H102.266L102.234 48.8594C102.141 51.9635 101.516 54.4635 100.359 56.3594ZM123.281 60V43.0938H130.344C132.646 43.0938 134.411 43.5 135.641 44.3125C136.87 45.125 137.484 46.2917 137.484 47.8125C137.484 48.5938 137.224 49.2969 136.703 49.9219C136.193 50.5365 135.443 51.0104 134.453 51.3438C135.661 51.5729 136.609 52.026 137.297 52.7031C137.995 53.3698 138.344 54.1927 138.344 55.1719C138.344 56.7448 137.75 57.9427 136.562 58.7656C135.385 59.5885 133.672 60 131.422 60H123.281ZM127.797 52.9844V56.3906H131.438C133.031 56.3906 133.828 55.8333 133.828 54.7188C133.828 53.5833 133.068 53.0052 131.547 52.9844H127.797ZM127.797 49.9531H130.594C132.177 49.9323 132.969 49.4219 132.969 48.4219C132.969 47.8073 132.75 47.3698 132.312 47.1094C131.885 46.849 131.229 46.7188 130.344 46.7188H127.797V49.9531ZM155.703 53.7656H153.891V60H149.375V43.0938H153.891V49.4531H155.5L159.188 43.0938H164.891L159.359 51.1406L165.406 60H159.391L155.703 53.7656ZM176.906 60C176.698 59.5938 176.547 59.0885 176.453 58.4844C175.359 59.7031 173.938 60.3125 172.188 60.3125C170.531 60.3125 169.156 59.8333 168.062 58.875C166.979 57.9167 166.438 56.7083 166.438 55.25C166.438 53.4583 167.099 52.0833 168.422 51.125C169.755 50.1667 171.677 49.6823 174.188 49.6719H176.266V48.7031C176.266 47.9219 176.062 47.2969 175.656 46.8281C175.26 46.3594 174.63 46.125 173.766 46.125C173.005 46.125 172.406 46.3073 171.969 46.6719C171.542 47.0365 171.328 47.5365 171.328 48.1719H166.812C166.812 47.1927 167.115 46.2865 167.719 45.4531C168.323 44.6198 169.177 43.9688 170.281 43.5C171.385 43.0208 172.625 42.7812 174 42.7812C176.083 42.7812 177.734 43.3073 178.953 44.3594C180.182 45.401 180.797 46.8698 180.797 48.7656V56.0938C180.807 57.6979 181.031 58.9115 181.469 59.7344V60H176.906ZM173.172 56.8594C173.839 56.8594 174.453 56.7135 175.016 56.4219C175.578 56.1198 175.995 55.7188 176.266 55.2188V52.3125H174.578C172.318 52.3125 171.115 53.0938 170.969 54.6562L170.953 54.9219C170.953 55.4844 171.151 55.9479 171.547 56.3125C171.943 56.6771 172.484 56.8594 173.172 56.8594ZM192.656 44.0312C194.823 44.0312 196.552 44.75 197.844 46.1875C199.135 47.625 199.781 49.5781 199.781 52.0469V52.2656C199.781 54.7031 199.062 56.6562 197.625 58.125C196.188 59.5938 194.255 60.3281 191.828 60.3281C189.391 60.3281 187.448 59.5365 186 57.9531C184.562 56.3594 183.844 54.1979 183.844 51.4688V50.7188C183.865 46.9167 184.505 43.9427 185.766 41.7969C187.036 39.6406 188.943 38.2812 191.484 37.7188C192.818 37.4271 193.677 37.1406 194.062 36.8594C194.448 36.5677 194.641 36.1667 194.641 35.6562H198.297C198.297 37.2917 197.854 38.5208 196.969 39.3438C196.094 40.1667 194.531 40.8021 192.281 41.25C190.948 41.5208 189.896 42.0469 189.125 42.8281C188.354 43.6094 187.833 44.7083 187.562 46.125C189 44.7292 190.698 44.0312 192.656 44.0312ZM191.797 47.6875C190.724 47.6875 189.88 48.0469 189.266 48.7656C188.661 49.4844 188.359 50.651 188.359 52.2656C188.359 53.7031 188.656 54.8021 189.25 55.5625C189.844 56.3125 190.703 56.6875 191.828 56.6875C192.922 56.6875 193.766 56.3177 194.359 55.5781C194.953 54.8385 195.255 53.75 195.266 52.3125V51.9375C195.266 50.5521 194.958 49.5 194.344 48.7812C193.74 48.0521 192.891 47.6875 191.797 47.6875ZM212.391 43.0938H216.906V60H212.391V49.5625L206.734 60H202.203V43.0938H206.734V53.5156L212.391 43.0938ZM235.016 60H230.484V53.5H224.875V60H220.359V43.0938H224.875V49.875H230.484V43.0938H235.016V60ZM246.297 60.3125C243.818 60.3125 241.797 59.5521 240.234 58.0312C238.682 56.5104 237.906 54.4844 237.906 51.9531V51.5156C237.906 49.8177 238.234 48.3021 238.891 46.9688C239.547 45.625 240.474 44.5938 241.672 43.875C242.88 43.1458 244.255 42.7812 245.797 42.7812C248.109 42.7812 249.927 43.5104 251.25 44.9688C252.583 46.4271 253.25 48.4948 253.25 51.1719V53.0156H242.484C242.63 54.1198 243.068 55.0052 243.797 55.6719C244.536 56.3385 245.469 56.6719 246.594 56.6719C248.333 56.6719 249.693 56.0417 250.672 54.7812L252.891 57.2656C252.214 58.224 251.297 58.974 250.141 59.5156C248.984 60.0469 247.703 60.3125 246.297 60.3125ZM245.781 46.4375C244.885 46.4375 244.156 46.7396 243.594 47.3438C243.042 47.9479 242.688 48.8125 242.531 49.9375H248.812V49.5781C248.792 48.5781 248.521 47.8073 248 47.2656C247.479 46.7135 246.74 46.4375 245.781 46.4375ZM269.672 46.7188H264.25V60H259.719V46.7188H254.391V43.0938H269.672V46.7188Z" fill="#293C48"/>
<defs>
<linearGradient id="paint0_linear" x1="587.725" y1="5.32096e-05" x2="-6.2489" y2="377.159" gradientUnits="userSpaceOnUse">
<stop stop-color="#FBFBFB"/>
<stop offset="1" stop-color="#CFDAE3"/>
</linearGradient>
</defs>
</svg>
