<?xml version="1.0" encoding="utf-8"?>
<!-- Generator: Adobe Illustrator 23.0.6, SVG Export Plug-In . SVG Version: 6.00 Build 0)  -->
<svg version="1.1" id="bg" xmlns="http://www.w3.org/2000/svg" xmlns:xlink="http://www.w3.org/1999/xlink" x="0px" y="0px"
	 viewBox="0 0 370.3 370.3" style="enable-background:new 0 0 370.3 370.3;" xml:space="preserve">
<style type="text/css">
	.st0{opacity:7.800000e-02;}
	.st1{fill:none;}
	.st2{fill:none;stroke:#FFFFFF;}
	.st3{opacity:2.700000e-02;fill:#FFFFFF;enable-background:new    ;}
	.st4{opacity:0.2;fill:#FFFFFF;enable-background:new    ;}
</style>
<g id="border" transform="translate(1 92.631) rotate(-45)" class="st0">
	
		<rect x="-0.7" y="-0.7" transform="matrix(-1 2.535182e-06 -2.535182e-06 -1 129.5859 129.5856)" class="st1" width="131" height="131"/>
	
		<rect x="-0.2" y="-0.2" transform="matrix(-1 2.535182e-06 -2.535182e-06 -1 129.5859 129.5856)" class="st2" width="130" height="130"/>
</g>
<g id="border-2" transform="translate(186 92.631) rotate(-45)" class="st0">
	
		<rect x="-0.7" y="-0.7" transform="matrix(-1 2.535182e-06 -2.535182e-06 -1 129.5859 129.5856)" class="st1" width="131" height="131"/>
	
		<rect x="-0.2" y="-0.2" transform="matrix(-1 2.535182e-06 -2.535182e-06 -1 129.5859 129.5856)" class="st2" width="130" height="130"/>
</g>
<g id="border-3" transform="translate(1 277.631) rotate(-45)" class="st0">
	
		<rect x="-0.7" y="-0.7" transform="matrix(-1 2.535182e-06 -2.535182e-06 -1 129.5859 129.5856)" class="st1" width="131" height="131"/>
	
		<rect x="-0.2" y="-0.2" transform="matrix(-1 2.535182e-06 -2.535182e-06 -1 129.5859 129.5856)" class="st2" width="130" height="130"/>
</g>
<g id="border-4" transform="translate(186 277.631) rotate(-45)" class="st0">
	
		<rect x="-0.7" y="-0.7" transform="matrix(-1 2.535182e-06 -2.535182e-06 -1 129.5859 129.5856)" class="st1" width="131" height="131"/>
	
		<rect x="-0.2" y="-0.2" transform="matrix(-1 2.535182e-06 -2.535182e-06 -1 129.5859 129.5856)" class="st2" width="130" height="130"/>
</g>
<rect id="square" x="32.9" y="32.9" transform="matrix(0.7071 -0.7071 0.7071 0.7071 -38.4608 92.8529)" class="st3" width="120" height="120"/>
<rect id="square-2" x="217.9" y="217.9" transform="matrix(0.7071 -0.7071 0.7071 0.7071 -115.0903 277.8529)" class="st3" width="120" height="120"/>
<circle id="Ellipse_152" class="st4" cx="93" cy="93" r="2"/>
<circle id="Ellipse_153" class="st4" cx="93" cy="278" r="2"/>
<circle id="Ellipse_154" class="st4" cx="278" cy="93" r="2"/>
<circle id="Ellipse_155" class="st4" cx="278" cy="278" r="2"/>
</svg>
