<svg width="512" height="512" viewBox="0 0 512 512" fill="none" xmlns="http://www.w3.org/2000/svg">
<path d="M89.889 133H422.111C438.065 133 451 145.935 451 161.889V349.667C451 365.621 438.065 378.556 422.111 378.556H89.889C73.9352 378.555 61 365.621 61 349.667V161.889C61 145.935 73.9352 133 89.889 133Z" fill="url(#paint0_linear)"/>
<path d="M140.9 201.843H100.157C94.6341 201.843 90.157 206.32 90.157 211.843V240.438C90.157 245.961 94.6341 250.438 100.157 250.438H140.9C146.423 250.438 150.9 245.961 150.9 240.438V211.843C150.9 206.32 146.423 201.843 140.9 201.843Z" fill="#FDB62F"/>
<path d="M102.306 220.066H96.2312C92.8765 220.066 90.157 222.786 90.157 226.14C90.157 229.495 92.8765 232.215 96.2312 232.215H102.306C105.661 232.215 108.38 229.495 108.38 226.14C108.38 222.786 105.661 220.066 102.306 220.066Z" fill="#FD7B2F"/>
<path d="M144.827 220.066H138.752C135.397 220.066 132.678 222.786 132.678 226.14C132.678 229.495 135.397 232.215 138.752 232.215H144.827C148.181 232.215 150.901 229.495 150.901 226.14C150.901 222.786 148.181 220.066 144.827 220.066Z" fill="#FD7B2F"/>
<path d="M389.307 354.247C409.25 354.247 425.418 338.08 425.418 318.136C425.418 298.193 409.25 282.025 389.307 282.025C369.363 282.025 353.196 298.193 353.196 318.136C353.196 338.08 369.363 354.247 389.307 354.247Z" fill="#FDB62F"/>
<path d="M345.973 354.247C365.917 354.247 382.084 338.08 382.084 318.136C382.084 298.193 365.917 282.025 345.973 282.025C326.029 282.025 309.862 298.193 309.862 318.136C309.862 338.08 326.029 354.247 345.973 354.247Z" fill="#DE4C3C"/>
<path d="M125.123 310.372H97.9881C93.515 310.372 89.8889 313.998 89.8889 318.471C89.8889 322.944 93.5151 326.57 97.9881 326.57H125.123C129.596 326.57 133.222 322.944 133.222 318.471C133.222 313.998 129.596 310.372 125.123 310.372Z" fill="#87CED9"/>
<path d="M197.345 310.372H170.21C165.737 310.372 162.111 313.998 162.111 318.471C162.111 322.944 165.737 326.57 170.21 326.57H197.345C201.818 326.57 205.444 322.944 205.444 318.471C205.444 313.998 201.818 310.372 197.345 310.372Z" fill="#87CED9"/>
<path d="M269.567 310.372H242.432C237.959 310.372 234.333 313.998 234.333 318.471C234.333 322.944 237.959 326.57 242.432 326.57H269.567C274.04 326.57 277.666 322.944 277.666 318.471C277.666 313.998 274.04 310.372 269.567 310.372Z" fill="#87CED9"/>
<defs>
<linearGradient id="paint0_linear" x1="75.5785" y1="133" x2="451.381" y2="475.595" gradientUnits="userSpaceOnUse">
<stop stop-color="#50B6FB"/>
<stop offset="1" stop-color="#266793"/>
</linearGradient>
</defs>
</svg>
