<svg width="476" height="300" viewBox="0 0 476 300" fill="none" xmlns="http://www.w3.org/2000/svg">
<g clip-path="url(#clip0)">
<path d="M0 300H475.434V0H0V300Z" fill="#403C3A"/>
<path d="M0 300H475.434V0H0V300Z" fill="#201D1F"/>
<path fill-rule="evenodd" clip-rule="evenodd" d="M467.237 14.9667C470.117 15.78 472.85 16.2356 475.436 16.3895V0H434.231C433.492 1.72224 432.925 3.46114 432.537 5.16556C463.822 14.0028 435.956 6.13389 467.237 14.9667Z" fill="#383533"/>
<path fill-rule="evenodd" clip-rule="evenodd" d="M467.237 55.9012C470.117 56.7151 472.85 57.1712 475.436 57.3245V25.0306L471.671 23.9673C449.191 17.6134 435.55 32.8884 432.537 46.1018C463.822 54.9373 435.956 47.0685 467.237 55.9012Z" fill="#383533"/>
<path fill-rule="evenodd" clip-rule="evenodd" d="M467.237 96.8368C470.117 97.6501 472.85 98.1062 475.436 98.2595V65.9646L471.671 64.9007C449.191 58.5485 435.55 73.824 432.537 87.0356C463.822 95.8723 435.956 88.0035 467.237 96.8368Z" fill="#383533"/>
<path fill-rule="evenodd" clip-rule="evenodd" d="M467.237 137.771C470.117 138.585 472.85 139.041 475.436 139.194V106.901L471.671 105.837C449.191 99.4833 435.55 114.758 432.537 127.972C463.822 136.807 435.956 128.938 467.237 137.771Z" fill="#383533"/>
<path fill-rule="evenodd" clip-rule="evenodd" d="M467.237 178.705C470.117 179.519 472.85 179.975 475.436 180.129V147.835L471.671 146.771C449.191 140.417 435.55 155.693 432.537 168.906C463.822 177.743 435.956 169.872 467.237 178.705Z" fill="#383533"/>
<path fill-rule="evenodd" clip-rule="evenodd" d="M467.237 219.641C470.117 220.455 472.85 220.911 475.436 221.064V188.769L471.671 187.705C449.191 181.353 435.55 196.628 432.537 209.84C463.822 218.677 435.956 210.808 467.237 219.641Z" fill="#383533"/>
<path fill-rule="evenodd" clip-rule="evenodd" d="M467.237 260.576C470.117 261.389 472.85 261.845 475.436 261.999V229.704L471.671 228.64C449.191 222.288 435.55 237.563 432.537 250.775C463.822 259.612 435.956 251.743 467.237 260.576Z" fill="#383533"/>
<path fill-rule="evenodd" clip-rule="evenodd" d="M475.436 270.639L471.671 269.576C449.191 263.224 435.55 278.499 432.537 291.711C461.799 299.976 439.317 293.628 461.883 300H475.436V270.639Z" fill="#383533"/>
<path fill-rule="evenodd" clip-rule="evenodd" d="M407.589 33.1479C424.992 38.0651 435.555 26.2412 437.891 16.0085C413.665 9.16293 435.244 15.2618 411.024 8.41791C393.616 3.49848 383.054 15.3263 380.72 25.5568C404.944 32.4007 383.367 26.3079 407.589 33.1479Z" fill="#383533"/>
<path fill-rule="evenodd" clip-rule="evenodd" d="M407.589 74.0826C424.992 78.9982 435.555 67.1743 437.891 56.9438C413.665 50.0977 435.244 56.1949 411.024 49.3532C393.616 44.4338 383.054 56.2616 380.72 66.4921C404.944 73.336 383.367 67.2427 407.589 74.0826Z" fill="#383533"/>
<path fill-rule="evenodd" clip-rule="evenodd" d="M407.589 115.017C424.992 119.934 435.555 108.111 437.891 97.8784C413.665 91.0322 435.244 97.1317 411.024 90.2878C393.616 85.3683 383.054 97.1961 380.72 107.427C404.944 114.271 383.367 108.177 407.589 115.017Z" fill="#383533"/>
<path fill-rule="evenodd" clip-rule="evenodd" d="M407.589 155.953C424.992 160.87 435.555 149.044 437.891 138.813C413.665 131.968 435.244 138.065 411.024 131.223C393.616 126.303 383.054 138.132 380.72 148.362C404.944 155.206 383.367 149.113 407.589 155.953Z" fill="#383533"/>
<path fill-rule="evenodd" clip-rule="evenodd" d="M407.589 196.888C424.992 201.803 435.555 189.979 437.891 179.749C413.665 172.903 435.244 179 411.024 172.158C393.616 167.239 383.054 179.066 380.72 189.297C404.944 196.139 383.367 190.048 407.589 196.888Z" fill="#383533"/>
<path fill-rule="evenodd" clip-rule="evenodd" d="M407.589 237.822C424.992 242.739 435.555 230.915 437.891 220.684C413.665 213.838 435.244 219.936 411.024 213.092C393.616 208.173 383.054 220.001 380.72 230.233C404.944 237.075 383.367 230.982 407.589 237.822Z" fill="#383533"/>
<path fill-rule="evenodd" clip-rule="evenodd" d="M407.589 278.757C424.992 283.674 435.555 271.851 437.891 261.618C413.665 254.774 435.244 260.869 411.024 254.027C393.616 249.108 383.054 260.936 380.72 271.168C404.944 278.01 383.367 271.917 407.589 278.757Z" fill="#383533"/>
<path fill-rule="evenodd" clip-rule="evenodd" d="M431.051 300L411.024 294.342C400.32 291.318 392.206 294.626 387 300H431.051Z" fill="#383533"/>
<path fill-rule="evenodd" clip-rule="evenodd" d="M363.916 13.0317C376.967 16.7205 384.893 7.85002 386.643 0.177211L386.017 0H347.349C345.534 2.26333 344.326 4.86392 343.762 7.34054C361.931 12.4717 345.749 7.90111 363.916 13.0317Z" fill="#383533"/>
<path fill-rule="evenodd" clip-rule="evenodd" d="M363.916 53.4621C376.967 57.1483 384.893 48.2799 386.643 40.6072C368.472 35.4721 384.658 40.0444 366.491 34.9138C353.433 31.2233 345.51 40.0955 343.762 47.7683C361.931 52.9016 345.749 48.3311 363.916 53.4621Z" fill="#383533"/>
<path fill-rule="evenodd" clip-rule="evenodd" d="M363.916 94.5495C376.967 98.2384 384.893 89.3678 386.643 81.6951C368.472 76.56 384.658 81.1322 366.491 76.0017C353.433 72.3112 345.51 81.1834 343.762 88.8584C361.931 93.9889 345.749 89.4189 363.916 94.5495Z" fill="#383533"/>
<path fill-rule="evenodd" clip-rule="evenodd" d="M363.916 133.664C376.967 137.351 384.893 128.482 386.643 120.809C368.472 115.675 384.658 120.247 366.491 115.116C353.433 111.425 345.51 120.298 343.762 127.971C361.931 133.103 345.749 128.533 363.916 133.664Z" fill="#383533"/>
<path fill-rule="evenodd" clip-rule="evenodd" d="M363.916 174.751C376.967 178.44 384.893 169.569 386.643 161.894C368.472 156.762 384.658 161.334 366.491 156.203C353.433 152.513 345.51 161.385 343.762 169.06C361.931 174.191 345.749 169.622 363.916 174.751Z" fill="#383533"/>
<path fill-rule="evenodd" clip-rule="evenodd" d="M363.916 215.182C376.967 218.87 384.893 209.999 386.643 202.324C368.472 197.192 384.658 201.764 366.491 196.633C353.433 192.943 345.51 201.815 343.762 209.49C361.931 214.621 345.749 210.051 363.916 215.182Z" fill="#383533"/>
<path fill-rule="evenodd" clip-rule="evenodd" d="M363.916 256.27C376.967 259.957 384.893 251.086 386.643 243.413C368.472 238.278 384.658 242.853 366.491 237.72C353.433 234.03 345.51 242.904 343.762 250.577C361.931 255.71 345.749 251.139 363.916 256.27Z" fill="#383533"/>
<path fill-rule="evenodd" clip-rule="evenodd" d="M363.916 296.042C376.967 299.728 384.893 290.86 386.643 283.185C368.472 278.05 384.658 282.625 366.491 277.492C353.433 273.801 345.51 282.676 343.762 290.348C361.931 295.481 345.749 290.911 363.916 296.042Z" fill="#383533"/>
<path fill-rule="evenodd" clip-rule="evenodd" d="M328.697 31.1393C339.871 34.2971 346.657 26.7021 348.156 20.1327C332.596 15.7371 346.455 19.6526 330.901 15.2588C319.723 12.0993 312.94 19.696 311.441 26.2654C326.998 30.6593 313.141 26.7477 328.697 31.1393Z" fill="#383533"/>
<path fill-rule="evenodd" clip-rule="evenodd" d="M328.697 73.3156C339.871 76.4729 346.657 68.8785 348.156 62.309C332.596 57.9129 346.455 61.8285 330.901 57.4329C319.723 54.2751 312.94 61.8718 311.441 68.4412C326.998 72.8351 313.141 68.9234 328.697 73.3156Z" fill="#383533"/>
<path fill-rule="evenodd" clip-rule="evenodd" d="M328.697 115.491C339.871 118.648 346.657 111.054 348.156 104.485C332.596 100.088 346.455 104.004 330.901 99.6084C319.723 96.4506 312.94 104.047 311.441 110.617C326.998 115.011 313.141 111.097 328.697 115.491Z" fill="#383533"/>
<path fill-rule="evenodd" clip-rule="evenodd" d="M328.697 153.325C339.871 156.48 346.657 148.888 348.156 142.318C332.596 137.922 346.455 141.838 330.901 137.442C319.723 134.284 312.94 141.881 311.441 148.451C326.998 152.844 313.141 148.931 328.697 153.325Z" fill="#383533"/>
<path fill-rule="evenodd" clip-rule="evenodd" d="M328.697 193.018C339.871 196.176 346.657 188.583 348.156 182.013C332.596 177.617 346.455 181.533 330.901 177.137C319.723 173.978 312.94 181.574 311.441 188.146C326.998 192.54 313.141 188.626 328.697 193.018Z" fill="#383533"/>
<path fill-rule="evenodd" clip-rule="evenodd" d="M328.697 233.953C339.871 237.111 346.657 229.516 348.156 222.947C332.596 218.553 346.455 222.467 330.901 218.071C319.723 214.913 312.94 222.51 311.441 229.081C326.998 233.476 313.141 229.562 328.697 233.953Z" fill="#383533"/>
<path fill-rule="evenodd" clip-rule="evenodd" d="M328.697 275.509C339.871 278.666 346.657 271.072 348.156 264.502C332.596 260.106 346.455 264.022 330.901 259.626C319.723 256.469 312.94 264.065 311.441 270.635C326.998 275.029 313.141 271.117 328.697 275.509Z" fill="#383533"/>
<path fill-rule="evenodd" clip-rule="evenodd" d="M337.691 300L330.901 298.081C325.262 296.487 320.742 297.632 317.454 300H337.691Z" fill="#383533"/>
<path fill-rule="evenodd" clip-rule="evenodd" d="M300.227 293.33C309.659 295.995 315.388 289.587 316.654 284.04C303.52 280.328 315.218 283.634 302.088 279.924C292.651 277.259 286.926 283.67 285.66 289.216C298.794 292.926 287.097 289.622 300.227 293.33Z" fill="#383533"/>
<path fill-rule="evenodd" clip-rule="evenodd" d="M300.227 254.877C309.659 257.54 315.388 251.131 316.654 245.585C303.52 241.875 315.218 245.181 302.088 241.469C292.651 238.804 286.926 245.214 285.66 250.761C298.794 254.471 287.097 251.167 300.227 254.877Z" fill="#383533"/>
<path fill-rule="evenodd" clip-rule="evenodd" d="M300.227 216.422C309.659 219.087 315.388 212.678 316.654 207.132C303.52 203.42 315.218 206.726 302.088 203.016C292.651 200.351 286.926 206.762 285.66 212.308C298.794 216.018 287.097 212.713 300.227 216.422Z" fill="#383533"/>
<path fill-rule="evenodd" clip-rule="evenodd" d="M300.227 174.246C309.659 176.912 315.388 170.503 316.654 164.956C303.52 161.245 315.218 164.551 302.088 160.841C292.651 158.175 286.926 164.586 285.66 170.132C298.794 173.842 287.097 170.538 300.227 174.246Z" fill="#383533"/>
<path fill-rule="evenodd" clip-rule="evenodd" d="M300.227 94.8579C309.659 97.5234 315.388 91.1123 316.654 85.5679C303.52 81.8562 315.218 85.1623 302.088 81.4523C292.651 78.7851 286.926 85.1979 285.66 90.744C298.794 94.4523 287.097 91.1495 300.227 94.8579Z" fill="#383533"/>
<path fill-rule="evenodd" clip-rule="evenodd" d="M300.227 52.6828C309.659 55.3484 315.388 48.9378 316.654 43.3911C303.52 39.6811 315.218 42.9856 302.088 39.2773C292.651 36.61 286.926 43.0228 285.66 48.5673C298.794 52.2773 287.097 48.975 300.227 52.6828Z" fill="#383533"/>
<path fill-rule="evenodd" clip-rule="evenodd" d="M300.227 14.8486C309.659 17.5141 315.388 11.1036 316.654 5.55694C303.52 1.84694 315.218 5.15138 302.088 1.44302C292.651 -1.22417 286.926 5.18859 285.66 10.733C298.794 14.443 287.097 11.1408 300.227 14.8486Z" fill="#383533"/>
<path fill-rule="evenodd" clip-rule="evenodd" d="M276.209 272.847C283.972 275.04 288.682 269.766 289.723 265.203C278.919 262.148 288.545 264.868 277.741 261.817C269.976 259.622 265.264 264.897 264.224 269.46C275.029 272.513 265.405 269.795 276.209 272.847Z" fill="#383533"/>
<path fill-rule="evenodd" clip-rule="evenodd" d="M276.209 234.384C283.972 236.577 288.682 231.303 289.723 226.741C278.919 223.687 288.545 226.407 277.741 223.354C269.976 221.159 265.264 226.435 264.224 230.997C275.029 234.051 265.405 231.333 276.209 234.384Z" fill="#383533"/>
<path fill-rule="evenodd" clip-rule="evenodd" d="M276.209 192.239C283.972 194.432 288.682 189.158 289.723 184.596C278.919 181.542 288.545 184.262 277.741 181.209C269.976 179.016 265.264 184.29 264.224 188.854C275.029 191.906 265.405 189.188 276.209 192.239Z" fill="#383533"/>
<path fill-rule="evenodd" clip-rule="evenodd" d="M276.209 153.267C283.972 155.461 288.682 150.187 289.723 145.622C278.919 142.571 288.545 145.289 277.741 142.237C269.976 140.042 265.264 145.318 264.224 149.881C275.029 152.934 265.405 150.216 276.209 153.267Z" fill="#383533"/>
<path fill-rule="evenodd" clip-rule="evenodd" d="M276.209 115.134C283.972 117.327 288.682 112.053 289.723 107.491C278.919 104.437 288.545 107.156 277.741 104.104C269.976 101.909 265.264 107.185 264.224 111.749C275.029 114.801 265.405 112.083 276.209 115.134Z" fill="#383533"/>
<path fill-rule="evenodd" clip-rule="evenodd" d="M276.209 71.7502C283.972 73.943 288.682 68.6691 289.723 64.1047C278.919 61.053 288.545 63.7713 277.741 60.7197C269.976 58.5247 265.264 63.8008 264.224 68.3635C275.029 71.4169 265.405 68.6986 276.209 71.7502Z" fill="#383533"/>
<path fill-rule="evenodd" clip-rule="evenodd" d="M276.209 33.1772C283.972 35.37 288.682 30.0961 289.723 25.5333C278.919 22.48 288.545 25.1983 277.741 22.1467C269.976 19.9517 265.264 25.2278 264.224 29.7905C275.029 32.8439 265.405 30.1255 276.209 33.1772Z" fill="#383533"/>
<path fill-rule="evenodd" clip-rule="evenodd" d="M257.218 252.683C263.621 254.492 267.508 250.141 268.365 246.378C259.454 243.86 267.393 246.104 258.483 243.583C252.076 241.777 248.191 246.125 247.333 249.89C256.246 252.409 248.307 250.167 257.218 252.683Z" fill="#383533"/>
<path fill-rule="evenodd" clip-rule="evenodd" d="M257.218 211.853C263.621 213.662 267.508 209.311 268.365 205.548C259.454 203.03 267.393 205.274 258.483 202.753C252.076 200.947 248.191 205.296 247.333 209.061C256.246 211.579 248.307 209.337 257.218 211.853Z" fill="#383533"/>
<path fill-rule="evenodd" clip-rule="evenodd" d="M257.218 128.293C263.621 130.102 267.508 125.751 268.365 121.988C259.454 119.47 267.393 121.712 258.483 119.193C252.076 117.384 248.191 121.737 247.333 125.5C256.246 128.019 248.307 125.777 257.218 128.293Z" fill="#383533"/>
<path fill-rule="evenodd" clip-rule="evenodd" d="M257.218 91.89C263.621 93.6989 267.508 89.3483 268.365 85.585C259.454 83.0666 267.393 85.3088 258.483 82.7905C252.076 80.9816 248.191 85.3322 247.333 89.0972C256.246 91.6155 248.307 89.3739 257.218 91.89Z" fill="#383533"/>
<path fill-rule="evenodd" clip-rule="evenodd" d="M234.927 111.437C240.614 113.044 244.066 109.179 244.828 105.838C236.912 103.6 243.964 105.593 236.05 103.357C230.36 101.75 226.909 105.615 226.147 108.956C234.063 111.192 227.011 109.201 234.927 111.437Z" fill="#383533"/>
<path fill-rule="evenodd" clip-rule="evenodd" d="M234.927 151.568C240.614 153.173 244.066 149.31 244.828 145.967C236.912 143.73 243.964 145.723 236.05 143.485C230.36 141.88 226.909 145.745 226.147 149.087C234.063 151.323 227.011 149.332 234.927 151.568Z" fill="#383533"/>
<path fill-rule="evenodd" clip-rule="evenodd" d="M234.927 189.066C240.614 190.673 244.066 186.81 244.828 183.466C236.912 181.228 243.964 183.221 236.05 180.985C230.36 179.378 226.909 183.243 226.147 186.587C234.063 188.823 227.011 186.829 234.927 189.066Z" fill="#383533"/>
<path fill-rule="evenodd" clip-rule="evenodd" d="M234.927 229.383C240.614 230.99 244.066 227.127 244.828 223.783C236.912 221.546 243.964 223.538 236.05 221.302C230.36 219.695 226.909 223.56 226.147 226.902C234.063 229.14 227.011 227.147 234.927 229.383Z" fill="#383533"/>
<path fill-rule="evenodd" clip-rule="evenodd" d="M234.927 269.513C240.614 271.119 244.066 267.257 244.828 263.913C236.912 261.677 243.964 263.67 236.05 261.432C230.36 259.825 226.909 263.69 226.147 267.033C234.063 269.269 227.011 267.278 234.927 269.513Z" fill="#383533"/>
<path fill-rule="evenodd" clip-rule="evenodd" d="M212.202 12.0512C217.073 13.4268 220.03 10.1184 220.683 7.25342C213.903 5.33844 219.942 7.04568 213.164 5.12901C208.291 3.7529 205.335 7.06346 204.682 9.92678C211.462 11.8435 205.422 10.1362 212.202 12.0512Z" fill="#383533"/>
<path fill-rule="evenodd" clip-rule="evenodd" d="M212.202 92.0105C217.073 93.3866 220.03 90.0783 220.683 87.215C213.903 85.2983 219.942 87.005 213.164 85.0905C208.291 83.7128 205.335 87.025 204.682 89.8883C211.462 91.8027 205.422 90.0961 212.202 92.0105Z" fill="#383533"/>
<path fill-rule="evenodd" clip-rule="evenodd" d="M212.202 209.648C217.073 211.024 220.03 207.716 220.683 204.851C213.903 202.934 219.942 204.641 213.164 202.726C208.291 201.35 205.335 204.661 204.682 207.524C211.462 209.439 205.422 207.732 212.202 209.648Z" fill="#383533"/>
<path fill-rule="evenodd" clip-rule="evenodd" d="M212.202 251.122C217.073 252.497 220.03 249.189 220.683 246.326C213.903 244.409 219.942 246.114 213.164 244.201C208.291 242.823 205.335 246.133 204.682 248.997C211.462 250.914 205.422 249.207 212.202 251.122Z" fill="#383533"/>
<path fill-rule="evenodd" clip-rule="evenodd" d="M212.202 290.562C217.073 291.938 220.03 288.63 220.683 285.766C213.903 283.85 219.942 285.555 213.164 283.642C208.291 282.264 205.335 285.574 204.682 288.438C211.462 290.355 205.422 288.647 212.202 290.562Z" fill="#383533"/>
<path fill-rule="evenodd" clip-rule="evenodd" d="M164.736 127.555C169.607 128.931 172.564 125.622 173.216 122.759C166.437 120.842 172.475 122.549 165.698 120.635C160.825 119.257 157.868 122.567 157.216 125.432C163.995 127.347 157.957 125.64 164.736 127.555Z" fill="#383533"/>
<path fill-rule="evenodd" clip-rule="evenodd" d="M164.736 209.648C169.607 211.024 172.564 207.716 173.216 204.851C166.437 202.934 172.475 204.641 165.698 202.726C160.825 201.35 157.868 204.661 157.216 207.524C163.995 209.439 157.957 207.732 164.736 209.648Z" fill="#383533"/>
<path fill-rule="evenodd" clip-rule="evenodd" d="M164.736 251.122C169.607 252.497 172.564 249.189 173.216 246.326C166.437 244.409 172.475 246.114 165.698 244.201C160.825 242.823 157.868 246.133 157.216 248.997C163.995 250.914 157.957 249.207 164.736 251.122Z" fill="#383533"/>
<path fill-rule="evenodd" clip-rule="evenodd" d="M188.41 31.3512C193.281 32.7273 196.238 29.419 196.89 26.5557C190.111 24.639 196.15 26.3457 189.37 24.4312C184.499 23.0534 181.542 26.3634 180.89 29.229C187.67 31.1435 181.631 29.4368 188.41 31.3512Z" fill="#383533"/>
<path fill-rule="evenodd" clip-rule="evenodd" d="M188.41 108.68C193.281 110.056 196.238 106.748 196.89 103.882C190.111 101.968 196.15 103.674 189.37 101.758C184.499 100.382 181.542 103.692 180.89 106.556C187.67 108.47 181.631 106.766 188.41 108.68Z" fill="#383533"/>
<path fill-rule="evenodd" clip-rule="evenodd" d="M138.611 108.68C143.483 110.056 146.439 106.748 147.092 103.882C140.312 101.968 146.351 103.674 139.574 101.758C134.7 100.382 131.744 103.692 131.091 106.556C137.872 108.47 131.832 106.766 138.611 108.68Z" fill="#383533"/>
<path fill-rule="evenodd" clip-rule="evenodd" d="M88.8135 108.68C93.6845 110.056 96.641 106.748 97.2936 103.882C90.5142 101.968 96.5532 103.674 89.7738 101.758C84.9029 100.382 81.9458 103.692 81.2932 106.556C88.0726 108.47 82.0341 106.766 88.8135 108.68Z" fill="#383533"/>
<path fill-rule="evenodd" clip-rule="evenodd" d="M39.015 267.79C43.8859 269.166 46.8424 265.858 47.495 262.994C40.7156 261.077 46.7541 262.784 39.9769 260.869C35.1037 259.494 32.1472 262.802 31.4946 265.666C38.2762 267.582 32.2356 265.875 39.015 267.79Z" fill="#383533"/>
<path fill-rule="evenodd" clip-rule="evenodd" d="M20.3098 102.679H20.7253C21.1252 102.82 21.5073 102.93 21.8089 103.183C22.2282 103.529 22.5748 104.063 22.6809 104.719C22.8025 105.509 22.1499 106.36 21.8477 106.967C20.1121 110.435 18.7325 113.96 18.1054 118.362C17.8565 120.118 17.7316 122.013 17.7316 123.979C17.7316 130.276 18.9679 134.666 20.8919 138.955C21.3307 139.932 21.8811 140.983 22.3476 142.032C22.5159 142.416 22.7198 142.82 22.7198 143.193C22.722 143.874 21.9988 144.821 21.3485 145.067C20.7647 145.291 19.8121 145.256 19.2712 144.942C18.7308 144.63 18.2859 143.635 17.8977 142.903C17.0456 141.308 16.4247 139.89 15.776 138.202C14.7846 135.615 14.1769 133.014 13.656 130.096C13.3071 128.14 13.2383 125.927 13.2383 123.689C13.2383 121.427 13.3893 119.325 13.7404 117.368C14.0792 115.453 14.5202 113.631 15.0684 111.871C15.8443 109.397 16.8712 106.889 18.1054 104.68C18.4209 104.112 19.0874 102.993 19.6866 102.807C19.9183 102.732 20.0649 102.881 20.3098 102.679Z" fill="#4C4846"/>
<path fill-rule="evenodd" clip-rule="evenodd" d="M28.9178 140.907C28.6318 140.942 27.8853 140.933 27.462 140.702C27.0266 140.458 26.5839 139.696 26.2568 139.077C25.2926 137.256 24.3739 135.223 23.7607 133.213C23.3353 131.823 22.9476 130.228 22.7199 128.68C22.4772 126.988 22.3206 125.226 22.3889 123.435C22.591 118.008 23.7996 113.74 25.6747 109.959C26.2607 108.777 27.0366 107.231 28.2946 107.007C29.7937 106.743 30.8223 108.009 30.8317 109.173C30.8356 109.726 30.4752 110.41 30.2069 110.962C29.4721 112.463 28.6217 114.192 28.0846 115.952C27.6736 117.298 27.3854 118.39 27.1699 119.778C26.9683 121.108 26.8033 122.582 26.8366 124.186C26.9366 128.872 28.0203 132.551 29.541 135.708C29.8131 136.272 30.0109 136.701 30.2891 137.331C30.5574 137.934 30.8851 138.598 30.8317 139.161C30.744 140.053 29.8836 140.788 28.9178 140.907Z" fill="#4C4846"/>
<path fill-rule="evenodd" clip-rule="evenodd" d="M36.9868 136.706C36.7808 136.716 36.2459 136.726 35.9032 136.583C35.0979 136.249 34.4786 135.058 34.032 134.168C32.5957 131.326 31.6221 128.147 31.6221 123.894C31.6221 119.622 32.6213 116.633 34.1142 113.664C34.5824 112.731 35.1995 111.636 36.0287 111.333C36.5319 111.147 37.0963 111.153 37.5689 111.333C38.2782 111.602 38.9752 112.47 39.0224 113.162C39.0541 113.617 38.8208 114.058 38.607 114.536C38.0821 115.716 37.4845 116.815 37.0257 118.197C36.7241 119.104 36.4736 120.096 36.3187 120.982C36.1482 121.974 35.9932 123.014 36.0287 124.186C36.1165 127.363 37.0846 130.193 38.1915 132.506C38.5092 133.164 39.1868 134.241 38.9813 135.209C38.8852 135.659 38.0254 136.533 37.5689 136.667C37.3334 136.733 37.1846 136.698 36.9868 136.706Z" fill="#4C4846"/>
<path fill-rule="evenodd" clip-rule="evenodd" d="M44.9686 132.713C43.6617 132.953 43.078 132.116 42.5153 131.339C41.2712 129.625 40.4347 127.51 40.2698 124.809C40.0759 121.603 41.034 118.716 42.3898 116.782C42.8169 116.174 43.3463 115.504 44.1377 115.284C45.5801 114.883 46.4399 116.133 46.8004 117.113C46.9415 117.505 46.6732 118.193 46.4677 118.612C45.8756 119.818 45.0447 120.699 44.8453 122.271C44.7003 123.388 44.6942 124.521 44.8453 125.724C45.0275 127.187 45.7251 128.114 46.301 129.178C46.5677 129.674 46.922 130.076 46.8004 130.885C46.7182 131.414 46.3027 131.996 45.9267 132.296C45.6973 132.477 45.3546 132.643 44.9686 132.713Z" fill="#4C4846"/>
<path d="M91.9094 42.1649L95.689 46.0788H95.0642V46.7232H98.3856V46.0788H97.4214L93.3202 41.9982L96.4688 39.1093H97.3742V38.5232H94.3805V39.1093H95.3347L91.9094 42.1649Z" fill="#757171"/>
<path d="M91.5292 41.9522V39.1088H92.2857V38.5227H89.6758V39.1088H90.3162V46.0777H89.6758V46.7249H92.3012V46.0777H91.5292V42.2638V41.9522Z" fill="#757171"/>
<path d="M72.4533 42.9251L75.4158 42.9501L73.8329 39.8206L72.4533 42.9251ZM69.5496 46.0784H70.2766L74.0679 37.5156L78.279 46.0784H79.0016V46.7228H75.8313V46.0784H76.8955L75.763 43.5756L72.2633 43.5517L71.1586 46.0784H71.9951V46.7228H69.5496V46.0706V46.0784Z" fill="#757171"/>
<path d="M87.4368 41.9149V42.225V46.0799H88.2166V46.725H85.5934V46.0799H86.2299V42.2011H81.6294V42.2466V46.0799H82.4014V46.725H79.7893V46.0799H80.4241V39.1088H79.7893V38.5244H82.3836V39.1088H81.6294V41.6544H86.2299V39.1088H85.5934V38.5244H88.1877V39.1088H87.4368V41.9149Z" fill="#757171"/>
<path fill-rule="evenodd" clip-rule="evenodd" d="M68.3244 38.5237L68.3267 40.3209H67.5074V39.1092H64.0688L64.0649 46.0787L66.3061 46.1081C68.3694 46.0942 68.6515 41.9493 65.2502 42.3509L65.2657 43.4387L64.6448 43.4448V41.8515L65.8067 41.8315C68.195 41.6903 69.2392 43.1154 69.2631 44.3092C69.212 45.7337 67.8679 46.7176 66.2727 46.7176L61.6917 46.7237V46.0787H62.707V39.1092H61.6939V38.5237H68.3244Z" fill="#757171"/>
<path fill-rule="evenodd" clip-rule="evenodd" d="M93.2442 47.8906L93.2419 49.5723H93.8479L93.8518 48.4806L96.1207 48.4823L96.1223 55.4478H95.4231V56.0906H98.219V55.4478H97.3981L97.3998 48.4806H99.722V49.5723H100.337L100.333 47.8906H93.2442Z" fill="#757171"/>
<path fill-rule="evenodd" clip-rule="evenodd" d="M68.6143 56.1007V55.4557H69.3491L69.3568 48.4901H68.6104V47.9006L74.4844 47.8945V49.584L73.6263 49.5856V48.4901H70.556V50.9362L73.2264 50.9384V52.5807L72.6543 52.5823L72.6566 51.5223H70.5699V55.4557H74.1534L74.1512 54.4462H75.0115V56.1007H68.6143Z" fill="#757171"/>
<path fill-rule="evenodd" clip-rule="evenodd" d="M92.5028 47.3823L92.5166 55.4573H93.2648V56.0979H90.4805V55.4573H91.237L91.2331 49.8951L85.3668 56.4918L85.3646 48.4934L84.6125 48.4918V47.8979H87.3907V48.4918L86.6481 48.4934L86.6403 53.8929L92.5028 47.3823Z" fill="#757171"/>
<path fill-rule="evenodd" clip-rule="evenodd" d="M64.2553 47.9067C66.3731 47.84 67.4684 48.285 67.6256 49.365C67.6667 50.2744 67.3668 51.1484 65.8011 51.2384L65.7855 51.3345C67.2023 51.6656 68.0877 52.1811 68.0977 53.655C67.9938 55.36 66.728 56.0989 65.1351 56.0989L61.6865 56.095L61.6843 54.4428H62.5469V55.4445L65.1684 55.4467C67.0063 55.4305 67.3334 52.2773 65.0312 51.6817C64.743 51.6072 64.4158 51.5739 64.0437 51.5872L64.0415 52.585L63.3011 52.5889V51.0173L64.6724 51.0189C65.7227 50.9817 66.4064 50.3211 66.2481 49.5078C66.2481 48.6811 65.625 48.5417 64.2398 48.5495H62.5469L62.5447 49.355H61.6882V47.8972L64.2553 47.9067Z" fill="#757171"/>
<path fill-rule="evenodd" clip-rule="evenodd" d="M83.1284 51.2584V51.5678V55.4562H83.9127V56.1012H81.275V55.4562H81.916V51.5423H77.6032V51.5911V55.4562H78.3069V56.1012H75.7498V55.4562H76.3924V48.4906H75.7498V47.8989H78.3085V48.4906H77.6032V50.9934H81.916V48.4906H81.275V47.9028H83.8849V48.4906H83.1284V51.2584Z" fill="#757171"/>
<path fill-rule="evenodd" clip-rule="evenodd" d="M71.3958 48.4887H71.2158V47.9011H71.3958V48.4887Z" fill="#757171"/>
<path d="M56.8033 38.5237H59.3449V38.7153V56.0976H41.7771V38.5237H48.5737V38.9059H42.1587V55.7154H58.9644V38.9059H56.8033V38.5237Z" fill="#757171"/>
<path fill-rule="evenodd" clip-rule="evenodd" d="M42.9468 54.9272V51.8328V51.8189C43.2739 51.7112 43.5561 51.5956 43.8777 51.4761L43.9676 54.9295L42.9468 54.9272ZM45.5667 54.9295L44.3342 54.9272L44.5419 51.2189C44.8536 51.0978 45.159 50.97 45.4667 50.8411L45.5667 54.9295ZM47.1735 54.9295H45.9388L46.186 50.5234C46.4776 50.3884 46.7658 50.2511 47.0519 50.1078L47.1735 54.9295ZM48.7742 54.9272L47.5434 54.9295L47.8339 49.7039C48.106 49.5628 48.3704 49.4162 48.6348 49.2634L48.7742 54.9272ZM50.3771 54.9295L49.1463 54.9272L49.4912 48.7495C49.7345 48.5989 49.975 48.4422 50.2144 48.2812L50.3771 54.9295ZM51.9834 54.9272H50.7493L51.1569 47.6189C51.3702 47.46 51.5802 47.2995 51.7896 47.1328L51.9834 54.9272ZM53.5902 54.9272H52.3577L52.836 46.255C53.012 46.0978 53.1864 45.9372 53.3569 45.7728L53.5902 54.9272ZM55.1909 54.9272H53.9584L54.535 44.5734C54.6622 44.4284 54.7933 44.2811 54.9226 44.1284L55.1909 54.9272ZM56.7961 54.9295L55.5675 54.9272L56.359 42.2839C56.4334 42.1745 56.5039 42.0684 56.5806 41.9567L56.7961 54.9295ZM58.1752 54.9272L57.1527 54.925L58.1596 39.6973H58.1791L58.1752 54.9272Z" fill="#757171"/>
<path fill-rule="evenodd" clip-rule="evenodd" d="M50.1983 46.4878C50.0155 46.6228 49.8334 46.7584 49.6512 46.8895L48.8892 47.3267C48.9286 46.6506 49.003 45.3511 49.0535 44.2262L49.6062 34.1167C49.6962 34.2578 49.7945 34.3911 49.9 34.5167L50.1983 46.4878ZM51.7695 45.2156C51.3696 45.5667 50.9603 45.8995 50.5465 46.2212L51.1364 35.4967C51.2641 35.5634 51.3974 35.6262 51.5324 35.6828L51.7695 45.2156ZM53.3352 43.7184C52.9804 44.0945 52.6082 44.4573 52.2278 44.8061L52.7121 36.0123C52.8548 36.0356 52.9998 36.0534 53.1447 36.0689L53.3352 43.7184ZM54.8948 41.8661C54.591 42.28 54.2678 42.6795 53.9268 43.0695L54.3128 36.0611C54.4555 36.0434 54.6027 36.0278 54.7476 36.0045L54.8948 41.8661ZM56.3212 39.4928C56.0862 39.9867 55.8235 40.4667 55.5297 40.9273L55.8157 35.7339C55.9529 35.685 56.0879 35.6317 56.2229 35.5789L56.3212 39.4928Z" fill="#757171"/>
<path fill-rule="evenodd" clip-rule="evenodd" d="M50.6077 33.7349C50.2783 33.5055 49.969 33.2355 49.7085 32.9355L50.2039 23.2949L50.2295 23.2988L50.6077 33.7349ZM52.0046 34.411C51.6797 34.3149 51.348 34.1761 51.0287 33.9977L51.4169 25.4544C51.503 25.5994 51.5891 25.7405 51.6774 25.87L52.0046 34.411ZM52.9843 26.7816L53.3309 33.2588L53.3803 34.4955C53.0804 34.5638 52.7394 34.5638 52.375 34.4972L52.7255 26.7794C52.8121 26.7972 52.8982 26.7988 52.9843 26.7816Z" fill="#757171"/>
<path d="M100.339 59.0689L98.2957 59.0667V59.5727H98.4639L98.4678 59.2511H99.1226V61.2717H98.9227V61.4305H99.7042V61.2717H99.4909V59.2511H100.161L100.157 59.5727L100.337 59.5766L100.339 59.0689Z" fill="#757171"/>
<path d="M91.1625 61.4288L90.9448 61.4305V61.2327H91.1603V59.2455H90.947V59.0688H92.6322V59.5533H92.4417V59.2589L91.5052 59.2611V59.9411H92.2734V60.3822H92.1067V60.11H91.5114V61.2327H92.5827L92.5811 60.8839L92.7888 60.8816V61.4305L91.1625 61.4288Z" fill="#757171"/>
<path d="M98.0252 58.9194L98.0291 61.2639H98.2424V61.4322H97.447L97.4454 61.2639H97.6586V59.6428L95.9719 61.5439V59.2389H95.7542V59.0689H96.5556V59.2389H96.3418L96.3379 60.7956L98.0252 58.9194Z" fill="#757171"/>
<path d="M89.5446 59.0661C90.1522 59.0467 90.4677 59.1739 90.5127 59.4817C90.5265 59.7461 90.4383 59.9989 89.9895 60.0228L89.9817 60.05C90.391 60.1478 90.6476 60.295 90.6498 60.7222C90.6182 61.2122 90.2538 61.4256 89.7956 61.4256H88.7981V60.9494H89.0491V61.2356H89.8073C90.3322 61.2317 90.4282 60.3245 89.7662 60.15C89.6857 60.1284 89.5857 60.1206 89.4818 60.1284V60.3889L89.2663 60.3967V59.96H89.664C89.9662 59.9522 90.16 59.76 90.1189 59.5267C90.1189 59.2894 89.9384 59.2423 89.539 59.2445H89.0531V59.4873H88.7981V59.0683L89.5446 59.0661Z" fill="#757171"/>
<path d="M95.2564 60.0357V60.1279V61.2446H95.4814V61.429H94.7193V61.2446H94.9054V60.1201H93.6635V60.1318V61.249H93.8868V61.4312H93.1326V61.249H93.3164V59.2418H93.1326V59.0735H93.8829V59.2418L93.6635 59.2457V59.959H94.9054V59.2418H94.7193V59.0735H95.4736V59.2418H95.2564V60.0357Z" fill="#757171"/>
<path d="M74.6989 61.45V61.2733H74.409V59.231H75.0616C75.6692 59.2388 75.7476 60.456 74.7522 60.3388L74.7617 60.0233L74.5778 60.015V60.4894H74.9183C75.6159 60.5344 75.9236 60.1094 75.9336 59.766C75.918 59.3427 75.5181 59.0527 75.0516 59.0527H73.7036V59.245L74.0052 59.2388V61.2733H73.7136V61.45H74.6989Z" fill="#757171"/>
<path d="M79.9499 59.2306L81.0785 59.2211V61.2572H80.8924V61.4339H81.6583V61.2572H81.4312V59.2306H81.6522V59.0544H80.8924H79.1833V59.2211H79.3695V61.2572H79.1833V61.4417H79.9499V61.2572H79.7305V59.2306H79.9499Z" fill="#757171"/>
<path d="M82.8402 59.2306L83.9688 59.2211V61.2572H83.7822V61.4339H84.5486V61.2572H84.3193V59.2306H84.5426V59.0544H83.7822H82.0737V59.2211H82.2676V61.2572H82.0737V61.4417H82.8402V61.2572H82.6186V59.2306H82.8402Z" fill="#757171"/>
<path d="M73.4152 59.0532H71.3279V59.2399H71.5301V61.2993H71.3279V61.4682H72.1293L72.1199 61.2993H71.91V59.2399H73.2285V59.5727H73.4152V59.0532Z" fill="#757171"/>
<path d="M49.7701 60.0488V60.1466V61.2738H49.9995V61.4599H49.2336V61.2738H49.4174V60.1372H48.0717V60.1466V61.2833H48.2911V61.4599H47.5251V61.2833H47.719V59.245H47.5251V59.0789H48.2911V59.245L48.0717 59.2549V59.98H49.4174V59.245H49.2336V59.0789H49.9901V59.245H49.7701V60.0488Z" fill="#757171"/>
<path d="M43.7717 59.0623V59.5912H43.5329V59.2467L42.5198 59.2384V61.2928H43.1802C43.7895 61.2828 43.8678 60.0578 42.8725 60.1812V60.499H42.6959V60.0323H43.0314C43.7345 59.9873 44.0444 60.4006 44.0444 60.7534C44.0361 61.1689 43.6407 61.459 43.1724 61.459H41.8145V61.2728H42.1238V59.2467H41.8244V59.0623H43.7717Z" fill="#757171"/>
<path d="M61.5754 60.1021L62.6846 61.2921L62.5002 61.2843V61.4588H63.4699L63.4777 61.2843H63.1956L61.9887 60.0593L62.9134 59.246H63.1783V59.0715H62.2964V59.246H62.5785L61.5754 60.1021Z" fill="#757171"/>
<path d="M61.4606 60.0671V59.2477L61.68 59.2399V59.0715H60.9241V59.2399H61.1102V61.2721H60.9241V61.4582H61.69V61.2721H61.4606V60.1549V60.0671Z" fill="#757171"/>
<path d="M51.1704 60.1099L52.279 61.2937L52.1046 61.2838V61.4682H53.065L53.0727 61.2838L52.7906 61.2937L51.5837 60.0571L52.5107 59.2477H52.7728V59.0715H51.9014V59.2477H52.1835L51.1704 60.1099Z" fill="#757171"/>
<path d="M51.0636 60.0671V59.2477H51.2852V59.0715H50.5193V59.2399H50.7014V61.2821H50.5193V61.4682L51.2852 61.4582V61.2821H51.0636V60.1549V60.0671Z" fill="#757171"/>
<path d="M68.4913 60.4984L67.7409 61.2923L67.9253 61.2828V61.459H66.9572L66.9473 61.2828H67.2394L68.0053 60.4984C67.406 60.4812 67.1433 60.1028 67.1339 59.7773C67.1511 59.3523 67.5487 59.0623 68.0137 59.0623H69.3633V59.254L69.0617 59.2461V61.2828H69.3539V61.459H68.358V61.2828H68.6563V59.2384H68.0053C67.3982 59.2461 67.3177 60.4634 68.313 60.3495L68.3052 60.0323L68.4913 60.0223V60.4889V60.4984Z" fill="#757171"/>
<path d="M77.5642 61.0538V61.0283L77.5548 61.0105L76.3573 59.2566H76.144V59.0621H77.0782V59.2566H76.7611L77.7386 60.6577L78.454 59.2466H78.2052V59.0527H78.9206V59.2466H78.7067L77.6936 61.22C77.6859 61.22 77.6859 61.2299 77.6859 61.2299C77.6781 61.2477 77.6603 61.2555 77.6509 61.2655C77.3254 61.5394 77.0432 61.4672 76.7178 61.1771L76.5045 60.9455L76.8239 60.5949L77.0177 60.7694L76.8239 60.9833L76.8589 61.0361C77.0432 61.2121 77.3154 61.2827 77.492 61.1338C77.5192 61.1066 77.5348 61.0788 77.5642 61.0538Z" fill="#757171"/>
<path d="M46.2383 61.4594H47.1808L47.173 61.2655H46.9614L45.7267 58.7644L45.6817 58.8511L44.6059 61.2733H44.3965V61.4594H45.1196V61.2733H44.8725L45.1996 60.5322H45.6817L46.2205 60.5444L46.5554 61.2655H46.2383V61.4594ZM45.6817 60.35H45.2524L45.6584 59.4327L45.6817 59.4955L46.1227 60.3577L45.6817 60.35Z" fill="#757171"/>
<path d="M55.4015 59.5734C55.3054 59.4067 55.1743 59.2756 55.006 59.1773C54.8372 59.0895 54.5828 59.0439 54.3179 59.0439H54.3101C54.0357 59.0439 53.8441 59.0895 53.6658 59.185C53.4814 59.2834 53.3504 59.4245 53.2426 59.6084C53.1465 59.7851 53.0938 60.0045 53.0938 60.2689C53.0938 60.6395 53.1992 60.9411 53.4109 61.1512C53.6125 61.3628 53.9224 61.459 54.3101 61.459H54.3179C54.575 61.459 54.7767 61.4156 54.961 61.3101C55.1371 61.2039 55.2882 61.0528 55.3843 60.8689C55.4876 60.6767 55.5331 60.4456 55.5331 60.1828C55.5331 59.9439 55.4876 59.74 55.4015 59.5734ZM54.8649 61.0356C54.7411 61.2039 54.5295 61.2845 54.3179 61.2845C54.1518 61.2845 54.0557 61.2473 53.948 61.1767C53.8441 61.0984 53.7558 60.9845 53.683 60.8162C53.6125 60.6473 53.5775 60.4456 53.5775 60.1984C53.5775 59.8712 53.6403 59.6262 53.7713 59.4595C53.8946 59.2989 54.0813 59.2206 54.3101 59.2206H54.3179C54.5551 59.2206 54.7239 59.2989 54.8372 59.45C54.9805 59.6417 55.0488 59.9162 55.0488 60.2689C55.0488 60.6123 54.9883 60.8689 54.8649 61.0356Z" fill="#757171"/>
<path d="M57.3316 60.0583L57.3394 60.0327C57.7976 60.0033 57.8881 59.7488 57.8781 59.476C57.8331 59.1861 57.551 59.0527 57.0161 59.0527H55.8853V59.2216H56.0813V61.2733H55.8853V61.4594L56.6612 61.45L57.0161 61.4594H57.1377C57.6137 61.4594 57.9842 61.2461 58.0169 60.7444C58.0092 60.3033 57.7548 60.156 57.3316 60.0583ZM57.1472 61.2733H56.434V59.231H57.0161C57.3238 59.2472 57.4726 59.3094 57.4726 59.521C57.5154 59.7583 57.3138 59.9527 57.0161 59.9605L56.6006 59.9699V60.4111L56.82 60.401V60.1388C56.8906 60.1288 56.9533 60.1388 57.0161 60.1466C57.0494 60.1466 57.0766 60.156 57.1122 60.1644C57.7898 60.3405 57.692 61.2655 57.1472 61.2733Z" fill="#757171"/>
<path d="M87.3256 61.2662L86.0932 58.7634L84.9846 61.274H84.7629V61.4679H85.4861V61.274H85.2389L85.5644 60.5334H86.0559L86.5869 60.5429L86.9202 61.2662H86.6125V61.4601H87.545V61.2662H87.3256ZM85.6155 60.3507L86.0209 59.4417L86.4892 60.359L85.6155 60.3507Z" fill="#757171"/>
<path d="M66.385 61.2662L65.1525 58.7634L64.0417 61.274H63.8301V61.4601H64.5432V61.274H64.2966L64.6238 60.5334L65.6446 60.5429L65.9795 61.2662H65.6618V61.4601H66.5966V61.2662H66.385ZM64.6843 60.3507L65.0898 59.4334L65.5385 60.359L64.6843 60.3507Z" fill="#757171"/>
<path d="M100.34 57.6437H41.7778V57.271H100.34V57.6437Z" fill="#757171"/>
<path d="M100.34 63.1295H41.7778V62.7412H100.34V63.1295Z" fill="#757171"/>
<path d="M59.7088 59.0384H60.3142V59.5128L60.1281 59.5028L60.1381 59.1872C60.1026 59.1872 59.7971 59.1773 59.7716 59.1773C58.6257 59.1601 58.6962 61.2689 59.7088 61.3117C59.7521 61.3117 60.0853 61.3117 60.1281 61.3017V60.9845H60.3142V61.4511H59.6738C58.0081 61.5489 58.0709 58.9306 59.7088 59.0384Z" fill="#757171"/>
<path d="M62.5476 54.8412H61.6873V54.4629H62.5476V54.8412Z" fill="#757171"/>
<path d="M142.429 38.0806C144.112 42.355 141.367 45.0989 138.632 47.8467C136.086 50.6572 133.843 53.5755 138.353 58.8278C136.668 54.5555 139.415 51.8095 142.149 49.0639C144.696 46.2494 146.94 43.335 142.429 38.0806Z" fill="#757171"/>
<path d="M138.353 32.6133C140.04 36.8899 137.295 39.6316 134.558 42.3794C132.013 45.1899 129.771 48.1083 134.282 53.3627C132.596 49.0844 135.341 46.3421 138.077 43.5966C140.624 40.7844 142.863 37.8661 138.353 32.6133Z" fill="#757171"/>
<path d="M242.469 52.3712H238.807V49.5256H234.955V58.3056H242.455C244.405 58.3056 246.088 57.3551 246.088 55.3368C246.088 53.3862 244.405 52.3712 242.469 52.3712ZM240.782 56.3829H238.807V54.294H240.782C241.738 54.294 242.204 54.5351 242.204 55.3834C242.204 56.1223 241.738 56.3829 240.782 56.3829Z" fill="#757171"/>
<path d="M190.052 49.5034V52.8134H185.943V49.5034H182.089V58.2856H185.943V54.7362H190.052V58.2856H193.904V49.5034H190.052Z" fill="#757171"/>
<path d="M199.836 56.3789V54.8561H204.849V52.9334H199.836V51.4261H206.276V49.5039H195.991V58.2861H206.354V56.3789H199.836Z" fill="#757171"/>
<path d="M159.131 49.5034H148.476V51.4256H151.882V58.2856H155.726V51.4256H159.131V49.5034Z" fill="#757171"/>
<path d="M166.723 49.5034H162.601L157.802 58.2856H160.302L161.09 56.7784H166.478L167.265 58.2856H171.523L166.723 49.5034ZM162.042 54.9573L163.821 51.559L165.524 54.9573H162.042Z" fill="#757171"/>
<path d="M180.681 49.5034H170.25V51.4256H173.655V58.2856H177.499V51.4256H180.681V49.5034Z" fill="#757171"/>
<path d="M233.657 49.5034H223.225V51.4256H226.63V58.2856H230.474V51.4256H233.657V49.5034Z" fill="#757171"/>
<path d="M217.132 49.4198C216.121 49.402 213.681 49.402 212.677 49.4198C209.485 49.4743 206.818 50.2293 206.818 53.4199C206.818 56.6243 209.534 57.2515 212.087 57.3043L212.982 57.3059V58.2843H216.826V57.3059L217.72 57.3043C220.142 57.2904 222.989 56.4259 222.989 53.4199C222.989 50.2293 220.267 49.4743 217.132 49.4198ZM213.017 55.4876C211.281 55.5421 210.67 55.1954 210.67 53.3509C210.67 51.5326 211.364 51.242 213.017 51.2754V55.4876ZM216.791 55.4876V51.2754C218.445 51.242 219.137 51.5071 219.137 53.3299C219.137 55.1721 218.527 55.5421 216.791 55.4876Z" fill="#757171"/>
<path d="M117.524 71.9057H116.654V24.5435H117.524V71.9057Z" fill="#757171"/>
<path d="M310.621 48.7344L307.495 42.9294L306.03 44.3761L305.052 48.7344H302.032L305.158 34.5527H308.177L306.837 40.6344L313.025 34.5527H316.914L309.813 41.2088L314.171 48.7344H310.621Z" fill="#E11F25"/>
<path d="M315.211 46.3105C316.655 46.3105 317.633 45.5444 318.91 41.8027L321.332 34.551H331.409L328.306 48.7349H325.265L327.794 37.2088H323.48L321.865 42.0166C319.888 47.9038 317.527 48.9899 314.637 48.9899L315.211 46.3105Z" fill="#E11F25"/>
<path d="M329.962 47.969L331.619 45.5445C332.023 45.9484 332.617 46.3112 333.298 46.3112C334.319 46.3112 334.829 45.8429 335.636 44.759L332.703 34.5518H336.02L337.889 42.0584L343.056 34.5518H346.583L338.23 46.0134C336.976 47.7362 335.468 48.9901 332.938 48.9901C331.639 48.9901 330.471 48.5434 329.962 47.969Z" fill="#E11F25"/>
<path d="M349.217 42.3773L348.388 46.0779H351.619C353.149 46.0779 354.084 45.1195 354.084 43.9079C354.084 43.0362 353.406 42.3773 352.405 42.3773H349.217ZM358.252 34.5518L357.678 37.2095H350.344L349.791 39.7201H352.811C355.658 39.7201 357.231 41.484 357.231 43.6101C357.231 45.6934 355.828 48.7351 351.405 48.7351H344.795L347.899 34.5518H358.252Z" fill="#E11F25"/>
<path d="M306.945 58.0162C306.541 59.8663 307.327 60.5879 308.984 60.5879C310.005 60.5879 310.962 60.419 311.769 60.1212L313.109 54.0396H316.129L313.025 68.2234H310.005L311.173 62.779C310.217 63.0551 309.112 63.2473 308.029 63.2473C304.415 63.2473 303.203 61.1618 303.904 58.0162L304.776 54.0396H307.815L306.945 58.0162Z" fill="#FEFEFE"/>
<path d="M315.827 68.2222L318.953 54.0405H328.987L328.391 56.6983H321.398L320.739 59.695H327.584L326.988 62.3544H320.144L319.443 65.5644H326.435L325.862 68.2222H315.827Z" fill="#FEFEFE"/>
<path d="M340.547 68.2222L342.799 57.9955L336.55 68.2222H335.231L333.488 57.9955L331.236 68.2222H328.217L331.342 54.0405H335.467L336.932 62.9072L342.354 54.0405H346.712L343.586 68.2222H340.547Z" fill="#FEFEFE"/>
<path d="M356.104 68.2222L358.633 56.6983H351.959L349.408 68.2222H346.389L349.514 54.0405H362.268L359.145 68.2222H356.104Z" fill="#FEFEFE"/>
<path d="M361.926 68.2222L365.051 54.0405H368.071L366.051 63.2677L374.638 54.0405H377.742L374.619 68.2222H371.578L373.704 58.6538L364.838 68.2222H361.926Z" fill="#FEFEFE"/>
<path d="M390.153 60.3551C390.153 57.974 388.431 56.4846 386.156 56.4846C383.415 56.4846 381.246 58.8874 381.246 61.929C381.246 64.3318 382.969 65.7979 385.243 65.7979C387.965 65.7979 390.153 63.3952 390.153 60.3551ZM378.101 62.119C378.101 57.4863 381.671 53.8074 386.348 53.8074C390.259 53.8074 393.298 56.2729 393.298 60.1435C393.298 64.7785 389.75 68.479 385.073 68.479C381.138 68.479 378.101 66.0113 378.101 62.119Z" fill="#FEFEFE"/>
<path d="M403.393 68.2222L404.711 62.2683H398.016L396.697 68.2222H393.678L396.803 54.0405H399.823L398.612 59.6105H405.286L406.518 54.0405H409.557L406.434 68.2222H403.393Z" fill="#FEFEFE"/>
<path d="M421.948 60.3551C421.948 57.974 420.225 56.4846 417.95 56.4846C415.209 56.4846 413.04 58.8874 413.04 61.929C413.04 64.3318 414.762 65.7979 417.037 65.7979C419.759 65.7979 421.948 63.3952 421.948 60.3551ZM409.895 62.119C409.895 57.4863 413.465 53.8074 418.143 53.8074C422.053 53.8074 425.092 56.2729 425.092 60.1435C425.092 64.7785 421.544 68.479 416.867 68.479C412.932 68.479 409.895 66.0113 409.895 62.119Z" fill="#FEFEFE"/>
<path d="M436.104 57.952C436.104 57.2093 435.488 56.6348 434.659 56.6348H431.066L430.386 59.7176H434.189C435.637 59.7176 436.104 58.7809 436.104 57.952ZM435.125 63.757C435.125 62.9065 434.53 62.3109 433.574 62.3109H429.79L429.067 65.607H432.978C434.34 65.607 435.125 64.7565 435.125 63.757ZM425.473 68.2215L428.599 54.0398H435.488C437.953 54.0398 439.334 55.6354 439.334 57.4426C439.334 59.3554 437.825 60.972 436.104 61.1404C437.422 61.4815 438.145 62.7576 438.145 64.012C438.145 65.9892 436.762 68.2215 433.211 68.2215H425.473Z" fill="#FEFEFE"/>
<path d="M429.155 200.944C421.616 200.944 414.707 203.547 409.233 207.854H409.143C403.668 203.547 396.757 200.944 389.218 200.944C371.36 200.944 356.911 215.396 356.911 233.26C356.911 251.124 371.36 265.577 389.218 265.577C396.757 265.577 403.668 262.972 409.143 258.664H409.233C414.707 262.972 421.616 265.577 429.155 265.577C447.014 265.577 461.464 251.124 461.464 233.26C461.464 215.486 447.014 200.944 429.155 200.944Z" fill="#FEFEFE"/>
<path d="M408.93 258.05H409.446L409.612 258.181C415.248 262.618 422.005 264.963 429.155 264.963C446.631 264.963 460.85 250.742 460.85 233.262C460.85 215.78 446.631 201.557 429.155 201.557C422.005 201.557 415.248 203.901 409.612 208.338L409.446 208.469H408.93L408.762 208.338C403.127 203.901 396.369 201.557 389.217 201.557C371.743 201.557 357.524 215.78 357.524 233.262C357.524 250.742 371.743 264.963 389.217 264.963C396.369 264.963 403.127 262.618 408.762 258.181L408.93 258.05ZM429.155 266.19C421.87 266.19 414.973 263.846 409.187 259.405C403.401 263.846 396.506 266.19 389.217 266.19C371.066 266.19 356.298 251.418 356.298 233.262C356.298 215.103 371.066 200.33 389.217 200.33C396.506 200.33 403.401 202.674 409.187 207.115C414.973 202.674 421.87 200.33 429.155 200.33C447.309 200.33 462.076 215.103 462.076 233.262C462.076 251.418 447.309 266.19 429.155 266.19Z" fill="#FAF9FA"/>
<path d="M379.526 277.604C379.526 276.08 380.514 274.822 382.128 274.822C383.652 274.822 384.73 275.99 384.73 277.604C384.73 279.132 383.652 280.388 382.128 280.388C380.514 280.298 379.526 279.132 379.526 277.604ZM386.525 277.604V273.297H384.64V274.375C384.013 273.566 383.116 273.117 381.948 273.117C379.526 273.117 377.641 275.002 377.641 277.604C377.641 280.207 379.526 282.093 381.948 282.093C383.206 282.093 384.103 281.646 384.64 280.837V281.915H386.525V277.604ZM449.529 277.604C449.529 276.08 450.514 274.822 452.131 274.822C453.655 274.822 454.733 275.99 454.733 277.604C454.733 279.132 453.655 280.388 452.131 280.388C450.514 280.298 449.529 279.132 449.529 277.604ZM456.438 277.604V269.887H454.553V274.375C453.926 273.566 453.029 273.117 451.861 273.117C449.439 273.117 447.554 275.002 447.554 277.604C447.554 280.207 449.439 282.093 451.861 282.093C453.119 282.093 454.016 281.646 454.553 280.837V281.915H456.438V277.604ZM409.681 274.732C410.847 274.732 411.654 275.451 411.835 276.797H407.348C407.526 275.629 408.333 274.732 409.681 274.732ZM409.681 273.117C407.167 273.117 405.372 274.912 405.372 277.604C405.372 280.298 407.167 282.093 409.771 282.093C411.027 282.093 412.283 281.734 413.27 280.927L412.373 279.58C411.654 280.119 410.757 280.478 409.86 280.478C408.693 280.478 407.526 279.939 407.258 278.412H413.629V277.695C413.719 274.912 412.103 273.117 409.681 273.117ZM432.206 277.604C432.206 276.08 433.194 274.822 434.81 274.822C436.335 274.822 437.412 275.99 437.412 277.604C437.412 279.132 436.335 280.388 434.81 280.388C433.194 280.298 432.206 279.132 432.206 277.604ZM439.117 277.604V273.297H437.232V274.375C436.605 273.566 435.708 273.117 434.539 273.117C432.118 273.117 430.233 275.002 430.233 277.604C430.233 280.207 432.118 282.093 434.539 282.093C435.798 282.093 436.695 281.646 437.232 280.837V281.915H439.117V277.604ZM421.706 277.604C421.706 280.207 423.501 282.093 426.283 282.093C427.541 282.093 428.438 281.824 429.336 281.105L428.438 279.58C427.719 280.119 427 280.388 426.193 280.388C424.668 280.388 423.591 279.31 423.591 277.604C423.591 275.99 424.668 274.912 426.193 274.822C427 274.822 427.719 275.092 428.438 275.629L429.336 274.104C428.438 273.387 427.541 273.117 426.283 273.117C423.501 273.117 421.706 275.002 421.706 277.604ZM445.759 273.117C444.681 273.117 443.964 273.656 443.514 274.375V273.297H441.629V281.915H443.514V277.068C443.514 275.629 444.143 274.822 445.308 274.822C445.669 274.822 446.116 274.912 446.476 275.002L447.013 273.207C446.656 273.117 446.116 273.117 445.759 273.117ZM395.679 274.014C394.782 273.387 393.528 273.117 392.18 273.117C390.025 273.117 388.59 274.194 388.59 275.899C388.59 277.336 389.668 278.144 391.553 278.412L392.45 278.502C393.438 278.683 393.975 278.951 393.975 279.4C393.975 280.029 393.258 280.478 392 280.478C390.746 280.478 389.758 280.029 389.127 279.58L388.23 281.017C389.217 281.734 390.565 282.093 391.91 282.093C394.425 282.093 395.86 280.927 395.86 279.31C395.86 277.785 394.692 276.978 392.897 276.707L392 276.617C391.192 276.527 390.565 276.348 390.565 275.809C390.565 275.182 391.192 274.822 392.18 274.822C393.258 274.822 394.335 275.272 394.872 275.541L395.679 274.014ZM419.821 273.117C418.745 273.117 418.026 273.656 417.577 274.375V273.297H415.693V281.915H417.577V277.068C417.577 275.629 418.206 274.822 419.372 274.822C419.733 274.822 420.181 274.912 420.54 275.002L421.079 273.207C420.718 273.117 420.181 273.117 419.821 273.117ZM403.846 273.297H400.795V270.694H398.912V273.297H397.206V275.002H398.912V278.951C398.912 280.927 399.719 282.093 401.873 282.093C402.68 282.093 403.577 281.824 404.207 281.466L403.668 279.851C403.129 280.207 402.502 280.298 402.051 280.298C401.154 280.298 400.795 279.761 400.795 278.863V275.002H403.846V273.297ZM375.937 281.915V276.527C375.937 274.463 374.679 273.117 372.527 273.117C371.449 273.117 370.282 273.477 369.474 274.643C368.848 273.656 367.95 273.117 366.602 273.117C365.705 273.117 364.807 273.387 364.09 274.375V273.297H362.205V281.915H364.09V277.156C364.09 275.629 364.898 274.912 366.154 274.912C367.409 274.912 368.039 275.719 368.039 277.156V281.915H369.923V277.156C369.923 275.629 370.821 274.912 371.986 274.912C373.244 274.912 373.872 275.719 373.872 277.156V281.915H375.937Z" fill="#FEFEFE"/>
<path d="M395.052 207.854H423.322V258.664H395.052V207.854Z" fill="#EA5921"/>
<path d="M396.847 233.261C396.847 222.936 401.694 213.781 409.142 207.854C403.667 203.547 396.757 200.944 389.217 200.944C371.359 200.944 356.911 215.396 356.911 233.261C356.911 251.123 371.359 265.575 389.217 265.575C396.757 265.575 403.667 262.972 409.142 258.664C401.694 252.828 396.847 243.583 396.847 233.261Z" fill="#E11F25"/>
<path d="M461.464 233.261C461.464 251.123 447.014 265.575 429.156 265.575C421.617 265.575 414.708 262.972 409.233 258.664C416.769 252.738 421.526 243.583 421.526 233.261C421.526 222.936 416.681 213.781 409.233 207.854C414.708 203.547 421.617 200.944 429.156 200.944C447.014 200.944 461.464 215.487 461.464 233.261Z" fill="#F39F13"/>
</g>
<defs>
<clipPath id="clip0">
<rect width="475.436" height="300" rx="15" fill="white"/>
</clipPath>
</defs>
</svg>
