<svg width="20" height="21" viewBox="0 0 20 21" fill="none" xmlns="http://www.w3.org/2000/svg">
<path fill="#27445d" d="M19.8729 10.5939C19.6942 10.3495 15.4371 4.60929 9.9999 4.60929C4.56274 4.60929 0.305391 10.3495 0.126914 10.5937C-0.0423048 10.8256 -0.0423048 11.14 0.126914 11.3719C0.305391 11.6163 4.56274 17.3565 9.9999 17.3565C15.4371 17.3565 19.6942 11.6163 19.8729 11.3721C20.0423 11.1403 20.0423 10.8256 19.8729 10.5939ZM9.9999 16.0379C5.99486 16.0379 2.52606 12.228 1.49922 10.9825C2.52473 9.73586 5.98626 5.92797 9.9999 5.92797C14.0048 5.92797 17.4733 9.73719 18.5006 10.9834C17.4751 12.2299 14.0135 16.0379 9.9999 16.0379Z"/>
<path fill="#27445d" d="M9.99992 7.0269C7.81858 7.0269 6.04385 8.80163 6.04385 10.983C6.04385 13.1643 7.81858 14.939 9.99992 14.939C12.1812 14.939 13.956 13.1643 13.956 10.983C13.956 8.80163 12.1812 7.0269 9.99992 7.0269ZM9.99992 13.6203C8.54562 13.6203 7.36257 12.4372 7.36257 10.983C7.36257 9.5287 8.54566 8.34561 9.99992 8.34561C11.4542 8.34561 12.6373 9.5287 12.6373 10.983C12.6373 12.4372 11.4542 13.6203 9.99992 13.6203Z"/>
</svg>
