<svg width="220" height="220" viewBox="0 0 220 220" fill="none" xmlns="http://www.w3.org/2000/svg">
<g clip-path="url(#clip0)">
<path opacity="0.5" d="M9.95525 97.7456C38.893 62.1809 116.134 37.8059 194.761 79.395C241.175 103.945 216.765 130.211 173.339 165.034C127.532 201.767 111.486 211.049 73.2733 193.188C24.0637 170.188 -18.9825 133.31 9.95525 97.7456Z" fill="#00B274"/>
<path d="M26.9135 72.251C23.926 63.9838 28.6557 54.9311 37.1482 52.6617L166.458 18.1066C171.403 16.7852 176.548 19.4111 178.379 24.1911L208.808 103.646C210.781 108.799 208.208 114.576 203.058 116.556L76.7463 165.121C68.9027 168.137 60.112 164.121 57.256 156.218L26.9135 72.251Z" fill="url(#paint0_linear)"/>
<mask id="mask0" mask-type="alpha" maskUnits="userSpaceOnUse" x="22" y="13" width="194" height="159">
<path d="M26.9135 72.251C23.926 63.9837 28.6557 54.9311 37.1482 52.6617L166.458 18.1066C171.403 16.7851 176.548 19.4111 178.379 24.1911L208.808 103.646C210.781 108.798 208.208 114.576 203.058 116.556L76.7463 165.121C68.9027 168.136 60.112 164.121 57.256 156.218L26.9135 72.251Z" fill="url(#paint1_linear)"/>
</mask>
<g mask="url(#mask0)">
<path opacity="0.1" d="M80.8766 91.4828C81.055 88.9135 83.2824 86.9752 85.8517 87.1535L91.7893 87.5657C91.9435 87.5764 92.0598 87.71 92.0491 87.8642V87.8642C91.8707 90.4335 89.6433 92.3717 87.074 92.1934L81.1364 91.7813C80.9822 91.7706 80.8659 91.6369 80.8766 91.4828V91.4828Z" fill="white"/>
<path opacity="0.1" d="M102.126 108.482C102.304 105.913 104.532 103.975 107.101 104.153L113.039 104.565C113.193 104.576 113.309 104.709 113.298 104.864V104.864C113.12 107.433 110.893 109.371 108.323 109.193L102.386 108.781C102.231 108.77 102.115 108.636 102.126 108.482V108.482Z" fill="white"/>
<path opacity="0.1" d="M121.59 122.346C121.768 119.777 123.996 117.838 126.565 118.017L132.502 118.429C132.657 118.439 132.773 118.573 132.762 118.727V118.727C132.584 121.297 130.356 123.235 127.787 123.056L121.85 122.644C121.695 122.634 121.579 122.5 121.59 122.346V122.346Z" fill="white"/>
<path opacity="0.1" d="M110.158 89.5667C110.336 86.9974 112.564 85.0592 115.133 85.2375L121.071 85.6497C121.225 85.6604 121.341 85.794 121.33 85.9482V85.9482C121.152 88.5175 118.925 90.4557 116.355 90.2774L110.418 89.8652C110.264 89.8545 110.147 89.7209 110.158 89.5667V89.5667Z" fill="white"/>
<path opacity="0.1" d="M103.826 72.7834C104.004 70.2141 106.232 68.2759 108.801 68.4542L114.739 68.8663C114.893 68.877 115.009 69.0107 114.998 69.1648V69.1648C114.82 71.7341 112.593 73.6724 110.023 73.4941L104.086 73.0819C103.931 73.0712 103.815 72.9376 103.826 72.7834V72.7834Z" fill="white"/>
<path opacity="0.1" d="M136.129 128.208C136.347 125.072 139.066 122.706 142.202 122.924L149.45 123.427C149.638 123.44 149.78 123.603 149.767 123.791V123.791C149.549 126.927 146.83 129.293 143.694 129.076L136.446 128.573C136.258 128.56 136.116 128.396 136.129 128.208V128.208Z" fill="white"/>
<path opacity="0.1" d="M130.179 112.059C130.397 108.922 133.116 106.556 136.252 106.774L143.5 107.277C143.688 107.29 143.83 107.453 143.817 107.642V107.642C143.6 110.778 140.881 113.144 137.744 112.926L130.496 112.423C130.308 112.41 130.166 112.247 130.179 112.059V112.059Z" fill="white"/>
<path opacity="0.1" d="M124.88 95.9093C125.097 92.773 127.816 90.407 130.953 90.6247L138.201 91.1278C138.389 91.1409 138.531 91.304 138.518 91.4922V91.4922C138.3 94.6285 135.581 96.9945 132.445 96.7768L125.197 96.2737C125.008 96.2607 124.866 96.0975 124.88 95.9093V95.9093Z" fill="white"/>
<path opacity="0.1" d="M117.689 78.0599C117.907 74.9236 120.625 72.5576 123.762 72.7753L131.01 73.2784C131.198 73.2914 131.34 73.4546 131.327 73.6427V73.6427C131.109 76.7791 128.39 79.1451 125.254 78.9274L118.006 78.4243C117.818 78.4112 117.676 78.2481 117.689 78.0599V78.0599Z" fill="white"/>
<path opacity="0.1" d="M112.034 61.9105C112.252 58.7742 114.971 56.4082 118.107 56.6259L125.355 57.129C125.544 57.142 125.686 57.3052 125.672 57.4933V57.4933C125.455 60.6296 122.736 62.9957 119.6 62.778L112.352 62.2749C112.163 62.2618 112.021 62.0987 112.034 61.9105V61.9105Z" fill="white"/>
<path opacity="0.1" d="M106.38 46.611C106.598 43.4747 109.317 41.1087 112.453 41.3264L119.701 41.8295C119.889 41.8425 120.031 42.0057 120.018 42.1938V42.1938C119.8 45.3301 117.081 47.6962 113.945 47.4785L106.697 46.9754C106.509 46.9623 106.367 46.7992 106.38 46.611V46.611Z" fill="white"/>
<path opacity="0.1" d="M151.767 134.288C152.036 130.404 155.403 127.474 159.287 127.744L168.263 128.367C168.496 128.383 168.672 128.585 168.656 128.818V128.818C168.386 132.702 165.019 135.632 161.135 135.363L152.159 134.74C151.926 134.723 151.75 134.521 151.767 134.288V134.288Z" fill="white"/>
<path opacity="0.1" d="M145.817 117.289C146.086 113.405 149.454 110.475 153.338 110.744L162.314 111.368C162.547 111.384 162.722 111.586 162.706 111.819V111.819C162.437 115.703 159.069 118.633 155.185 118.363L146.21 117.74C145.976 117.724 145.801 117.522 145.817 117.289V117.289Z" fill="white"/>
<path opacity="0.1" d="M140.717 101.044C140.987 97.1602 144.354 94.2301 148.238 94.4997L157.214 95.1228C157.447 95.1389 157.623 95.341 157.606 95.574V95.574C157.337 99.458 153.97 102.388 150.086 102.118L141.11 101.495C140.877 101.479 140.701 101.277 140.717 101.044V101.044Z" fill="white"/>
<path opacity="0.1" d="M133.917 84.7995C134.187 80.9155 137.554 77.9854 141.438 78.255L150.414 78.878C150.647 78.8942 150.823 79.0962 150.807 79.3293V79.3293C150.537 83.2133 147.17 86.1433 143.286 85.8737L134.31 85.2507C134.077 85.2345 133.901 85.0325 133.917 84.7995V84.7995Z" fill="white"/>
<path opacity="0.1" d="M127.117 66.8548C127.387 62.9708 130.754 60.0407 134.638 60.3103L143.614 60.9333C143.847 60.9495 144.023 61.1515 144.007 61.3846V61.3846C143.737 65.2686 140.37 68.1986 136.486 67.929L127.51 67.306C127.277 67.2898 127.101 67.0878 127.117 66.8548V66.8548Z" fill="white"/>
<path opacity="0.1" d="M121.168 50.6101C121.437 46.7261 124.804 43.796 128.688 44.0656L137.664 44.6886C137.897 44.7048 138.073 44.9068 138.057 45.1399V45.1399C137.787 49.0239 134.42 51.9539 130.536 51.6843L121.56 51.0613C121.327 51.0451 121.152 50.8431 121.168 50.6101V50.6101Z" fill="white"/>
<path opacity="0.1" d="M115.218 36.9152C115.487 33.0312 118.855 30.1011 122.739 30.3707L131.715 30.9937C131.948 31.0099 132.123 31.2119 132.107 31.445V31.445C131.838 35.329 128.47 38.259 124.586 37.9895L115.611 37.3664C115.378 37.3502 115.202 37.1482 115.218 36.9152V36.9152Z" fill="white"/>
<path opacity="0.1" d="M161.565 123.195C161.951 117.628 166.777 113.429 172.344 113.815L185.208 114.708C185.542 114.731 185.794 115.021 185.771 115.355V115.355C185.385 120.922 180.559 125.121 174.992 124.735L162.127 123.842C161.793 123.819 161.542 123.529 161.565 123.195V123.195Z" fill="white"/>
<path opacity="0.1" d="M158.301 106.318C158.687 100.751 163.513 96.5519 169.08 96.9383L181.945 97.8313C182.279 97.8544 182.531 98.144 182.507 98.478V98.478C182.121 104.045 177.295 108.244 171.728 107.858L158.864 106.965C158.53 106.942 158.278 106.652 158.301 106.318V106.318Z" fill="white"/>
<path opacity="0.1" d="M151.641 89.5843C152.027 84.0177 156.853 79.8182 162.42 80.2046L175.284 81.0976C175.618 81.1207 175.87 81.4103 175.847 81.7443V81.7443C175.46 87.311 170.635 91.5104 165.068 91.124L152.203 90.2311C151.869 90.2079 151.617 89.9183 151.641 89.5843V89.5843Z" fill="white"/>
<path opacity="0.1" d="M144.131 72.8863C144.517 67.3197 149.343 63.1202 154.91 63.5066L167.774 64.3996C168.108 64.4227 168.36 64.7123 168.337 65.0463V65.0463C167.951 70.613 163.125 74.8124 157.558 74.426L144.694 73.5331C144.36 73.5099 144.108 73.2203 144.131 72.8863V72.8863Z" fill="white"/>
<path opacity="0.1" d="M138.32 56.1168C138.706 50.5501 143.532 46.3507 149.099 46.7371L161.963 47.63C162.297 47.6532 162.549 47.9428 162.526 48.2768V48.2768C162.14 53.8434 157.314 58.0429 151.747 57.6565L138.882 56.7635C138.548 56.7404 138.296 56.4508 138.32 56.1168V56.1168Z" fill="white"/>
<path opacity="0.1" d="M134.207 39.2757C134.593 33.709 139.419 29.5096 144.986 29.896L157.85 30.7889C158.184 30.8121 158.436 31.1016 158.413 31.4356V31.4356C158.027 37.0023 153.201 41.2017 147.634 40.8154L134.77 39.9224C134.436 39.8992 134.184 39.6097 134.207 39.2757V39.2757Z" fill="white"/>
<path opacity="0.1" d="M182.144 110.668C182.935 103.606 189.301 98.5209 196.363 99.3112L212.685 101.137C213.109 101.185 213.414 101.567 213.367 101.991V101.991C212.577 109.053 206.21 114.138 199.148 113.348L182.826 111.522C182.402 111.474 182.097 111.092 182.144 110.668V110.668Z" fill="white"/>
<path opacity="0.1" d="M176.401 93.6691C177.191 86.6063 183.557 81.5215 190.62 82.3118L206.942 84.1381C207.366 84.1855 207.671 84.5675 207.623 84.9912V84.9912C206.833 92.054 200.467 97.1388 193.404 96.3486L177.082 94.5222C176.659 94.4748 176.353 94.0929 176.401 93.6691V93.6691Z" fill="white"/>
<path opacity="0.1" d="M169.94 76.6696C170.73 69.6069 177.096 64.5221 184.159 65.3123L200.481 67.1386C200.904 67.186 201.21 67.568 201.162 67.9918V67.9918C200.372 75.0545 194.006 80.1394 186.943 79.3491L170.621 77.5228C170.197 77.4754 169.892 77.0934 169.94 76.6696V76.6696Z" fill="white"/>
<path opacity="0.1" d="M164.914 59.6703C165.704 52.6075 172.07 47.5227 179.133 48.3129L195.455 50.1392C195.879 50.1867 196.184 50.5686 196.137 50.9924V50.9924C195.346 58.0551 188.98 63.14 181.917 62.3497L165.595 60.5234C165.172 60.476 164.867 60.094 164.914 59.6703V59.6703Z" fill="white"/>
<path opacity="0.1" d="M159.171 42.6708C159.961 35.6081 166.327 30.5232 173.39 31.3135L189.712 33.1398C190.136 33.1872 190.441 33.5692 190.393 33.9929V33.9929C189.603 41.0557 183.237 46.1405 176.174 45.3503L159.852 43.524C159.428 43.4765 159.123 43.0946 159.171 42.6708V42.6708Z" fill="white"/>
<path opacity="0.1" d="M154.071 25.9375C154.861 18.8747 161.227 13.7899 168.29 14.5801L184.612 16.4065C185.036 16.4539 185.341 16.8358 185.293 17.2596V17.2596C184.503 24.3224 178.137 29.4072 171.074 28.6169L154.752 26.7906C154.329 26.7432 154.023 26.3612 154.071 25.9375V25.9375Z" fill="white"/>
</g>
</g>
<defs>
<linearGradient id="paint0_linear" x1="216.853" y1="30.3076" x2="134.647" y2="151.271" gradientUnits="userSpaceOnUse">
<stop stop-color="#2F4654"/>
<stop offset="1" stop-color="#223139"/>
</linearGradient>
<linearGradient id="paint1_linear" x1="216.853" y1="30.3076" x2="134.647" y2="151.271" gradientUnits="userSpaceOnUse">
<stop stop-color="#2F4654"/>
<stop offset="1" stop-color="#223139"/>
</linearGradient>
<clipPath id="clip0">
<rect width="220" height="220" fill="white"/>
</clipPath>
</defs>
</svg>
