<svg width="135" height="40" viewBox="0 0 135 40" fill="none" xmlns="http://www.w3.org/2000/svg">
<path d="M10.4 7.5C10.1 7.8 9.90002 8.3 9.90002 8.9V31C9.90002 31.6 10.1 32.1 10.4 32.4L10.5 32.5L22.9 20.1V20V19.9L10.4 7.5Z" fill="url(#paint0_linear)"/>
<path d="M27 24.2998L22.9 20.1998V19.9998V19.8998L27 15.7998L27.1 15.8998L32 18.6998C33.4 19.4998 33.4 20.7998 32 21.5998L27 24.2998Z" fill="url(#paint1_linear)"/>
<path d="M27.1 24.2L22.9 20L10.4 32.5C10.9 33 11.6 33 12.5 32.6L27.1 24.2Z" fill="url(#paint2_linear)"/>
<path d="M27.1 15.7999L12.5 7.49987C11.6 6.99987 10.9 7.09987 10.4 7.59987L22.9 19.9999L27.1 15.7999Z" fill="url(#paint3_linear)"/>
<path opacity="0.2" d="M27 24.0999L12.5 32.2999C11.7 32.7999 11 32.6999 10.5 32.2999L10.4 32.3999L10.5 32.4999C11 32.8999 11.7 32.9999 12.5 32.4999L27 24.0999Z" fill="black"/>
<path opacity="0.12" d="M10.4 32.2999C10.1 31.9999 10 31.4999 10 30.8999V30.9999C10 31.5999 10.2 32.0999 10.5 32.3999V32.2999H10.4Z" fill="black"/>
<path opacity="0.12" d="M32 21.3L27 24.1L27.1 24.2L32 21.4C32.7 21 33 20.5 33 20C33 20.5 32.6 20.9 32 21.3Z" fill="black"/>
<path opacity="0.25" d="M12.5 7.59988L32 18.6999C32.6 19.0999 33 19.4999 33 19.9999C33 19.4999 32.7 18.9999 32 18.5999L12.5 7.49988C11.1 6.69988 10 7.39988 10 8.99988V9.09988C10 7.49988 11.1 6.79988 12.5 7.59988Z" fill="black"/>
<path fill-rule="evenodd" clip-rule="evenodd" d="M128 1H7C3.68629 1 1 3.68629 1 7V33C1 36.3137 3.68629 39 7 39H128C131.314 39 134 36.3137 134 33V7C134 3.68629 131.314 1 128 1ZM7 0C3.13401 0 0 3.13401 0 7V33C0 36.866 3.13401 40 7 40H128C131.866 40 135 36.866 135 33V7C135 3.13401 131.866 0 128 0H7Z" fill="black"/>
<path fill-rule="evenodd" clip-rule="evenodd" d="M47.7 23.1V24.9H52C51.9 25.9 51.5 26.7 51 27.2C50.4 27.8 49.4 28.5 47.7 28.5C45 28.5 43 26.4 43 23.7C43 21 45.1 18.9 47.7 18.9C49.1 18.9 50.2 19.5 51 20.2L52.3 18.9C51.2 17.9 49.8 17.1 47.8 17.1C44.2 17.1 41.1 20.1 41.1 23.7C41.1 27.3 44.2 30.3 47.8 30.3C49.8 30.3 51.2 29.7 52.4 28.4C53.6 27.2 54 25.5 54 24.2C54 23.8 54 23.4 53.9 23.1H47.7ZM58.8 21.8C56.4 21.8 54.5 23.6 54.5 26.1C54.5 28.5 56.4 30.4 58.8 30.4C61.2 30.4 63.1 28.6 63.1 26.1C63.1 23.5 61.2 21.8 58.8 21.8ZM63.8 26.1C63.8 23.6 65.7 21.8 68.1 21.8C70.5 21.8 72.4 23.5 72.4 26.1C72.4 28.6 70.5 30.4 68.1 30.4C65.7 30.4 63.8 28.5 63.8 26.1ZM65.7 26C65.7 27.5 66.8 28.6 68.1 28.6C69.4 28.6 70.5 27.5 70.5 26C70.5 24.4 69.4 23.4 68.1 23.4C66.8 23.4 65.7 24.5 65.7 26ZM56.4 26C56.4 27.5 57.5 28.6 58.8 28.6C60.1 28.6 61.2 27.5 61.2 26C61.2 24.4 60.1 23.4 58.8 23.4C57.5 23.4 56.4 24.5 56.4 26ZM89.5 21.8C91.7 21.8 92.7 23.5 93.1 24.5L93.3 25L87.6 27.4C88.1 28.3 88.7 28.7 89.7 28.7C90.7 28.7 91.3 28.2 91.8 27.5L93.2 28.5C92.8 29.2 91.6 30.4 89.7 30.4C87.3 30.4 85.5 28.5 85.5 26.1C85.5 23.5 87.3 21.8 89.5 21.8ZM87.3 25.9C87.3 24.3 88.6 23.4 89.5 23.4C90.2 23.4 90.9 23.8 91.1 24.3L87.3 25.9ZM84.5 30H82.6V17.5H84.5V30ZM79.6 22.7C79.1 22.2 78.3 21.7 77.3 21.7C75.2 21.7 73.2 23.6 73.2 26C73.2 28.4 75.1 30.2 77.3 30.2C78.3 30.2 79.1 29.7 79.5 29.2H79.6V29.8C79.6 31.4 78.7 32.3 77.3 32.3C76.2 32.3 75.4 31.5 75.2 30.8L73.6 31.5C74.1 32.6 75.3 34 77.4 34C79.6 34 81.4 32.7 81.4 29.6V22H79.6V22.7ZM75 26C75 27.5 76.1 28.6 77.4 28.6C78.7 28.6 79.7 27.5 79.7 26C79.7 24.5 78.7 23.4 77.4 23.4C76.1 23.4 75 24.5 75 26ZM101.8 17.5H97.3V30H99.2V25.3H101.8C103.9 25.3 105.9 23.8 105.9 21.4C105.9 19 103.9 17.5 101.8 17.5ZM99.2 23.5H101.9C103.2 23.5 104 22.4 104.1 21.3C104.1 20.4 103.3 19.2 101.9 19.2H99.2V23.5ZM113.4 21.7C112 21.7 110.6 22.3 110.1 23.6L111.8 24.3C112.2 23.6 112.8 23.4 113.5 23.4C114.5 23.4 115.4 24 115.5 25V25.1C115.2 24.9 114.4 24.6 113.6 24.6C111.8 24.6 110 25.6 110 27.4C110 29.1 111.5 30.2 113.1 30.2C114.4 30.2 115 29.6 115.5 29H115.6V30H117.4V25.2C117.2 23 115.5 21.7 113.4 21.7ZM111.7 27.5C111.7 28.3 112.6 28.6 113.2 28.6C114.2 28.6 115.2 27.8 115.4 26.6C115.349 26.5798 115.3 26.5596 115.251 26.5396C114.815 26.3616 114.419 26.2 113.7 26.2C112.8 26.2 111.7 26.5 111.7 27.5ZM123.7 22L121.6 27.4H121.5L119.3 22H117.3L120.6 29.6L118.7 33.8H120.6L125.7 22H123.7ZM108.8 30H106.9V17.5H108.8V30Z" fill="black"/>
<path fill-rule="evenodd" clip-rule="evenodd" d="M41.4 14.3H42.2V13H46.8V14.3H47.5V12.3H46.8V7H42.8V10C42.8 11.1 42.5 11.9 42 12.3H41.4V14.3ZM42.9 12.3C43.3 11.7 43.5 10.9 43.5 10H43.4V7.8H45.9V12.3H42.9Z" fill="black"/>
<path fill-rule="evenodd" clip-rule="evenodd" d="M51.2 13.1C52.1 13.1 52.8 12.8 53.4 12.2C54 11.6 54.3 10.9 54.3 10C54.3 9.1 54 8.4 53.4 7.8C52.8 7.2 52.1 6.9 51.2 6.9C50.3 6.9 49.6 7.2 49 7.8C48.4 8.4 48.1 9.1 48.1 10C48.1 10.9 48.4 11.6 49 12.2C49.6 12.8 50.3 13.1 51.2 13.1ZM51.2 12.4C50.6 12.4 50 12.1 49.6 11.7C49.1 11.3 48.9 10.7 48.9 10C48.9 9.3 49.2 8.7 49.6 8.3C50 7.8 50.6 7.6 51.2 7.6C51.8 7.6 52.4 7.9 52.8 8.3C53.3 8.7 53.5 9.3 53.5 10C53.5 10.7 53.2 11.3 52.8 11.7C52.4 12.2 51.8 12.4 51.2 12.4Z" fill="black"/>
<path d="M58.2 13.1C57.3 13.1 56.6 12.8 56 12.2C55.4 11.6 55.1 10.9 55.1 10C55.1 9.1 55.4 8.4 56 7.8C56.6 7.2 57.3 6.9 58.2 6.9C59.1 6.9 59.8 7.2 60.4 7.9L59.9 8.4C59.5 7.9 58.9 7.6 58.2 7.6C57.5 7.6 57 7.8 56.5 8.3C56 8.7 55.8 9.3 55.8 10C55.8 10.7 56 11.3 56.5 11.7C56.9 12.1 57.5 12.4 58.2 12.4C58.9 12.4 59.5 12.1 60 11.5L60.5 12C60.2 12.3 59.9 12.6 59.5 12.8C59.1 13 58.7 13.1 58.2 13.1Z" fill="black"/>
<path d="M63.7 13H62.9V7.7H61.2V7H65.3V7.7H63.6V13H63.7Z" fill="black"/>
<path d="M70.6 7L68.3 12.1C68 12.8 67.5 13.2 66.9 13.2C66.7 13.2 66.5 13.2 66.3 13.1L66.5 12.4C66.6 12.5 66.8 12.5 66.9 12.5C67.1 12.5 67.2 12.5 67.3 12.4C67.4 12.3 67.5 12.2 67.6 12L67.8 11.5L65.8 7.1H66.7L68.2 10.5L69.6 7.1H70.6V7Z" fill="black"/>
<path d="M71.5 13V7H75.8V13H75V7.7H72.2V13H71.5Z" fill="black"/>
<path d="M77.2 13V7H78V9.6H81V7H81.8V13H81V10.3H78V13H77.2Z" fill="black"/>
<path fill-rule="evenodd" clip-rule="evenodd" d="M85.9 13.1C86.8 13.1 87.5 12.8 88.1 12.2C88.6 11.6 88.9 10.9 89 10C89 9.1 88.7 8.4 88.1 7.8C87.5 7.2 86.8 6.9 85.9 6.9C85 6.9 84.3 7.2 83.7 7.8C83.1 8.4 82.8 9.1 82.8 10C82.8 10.9 83.1 11.6 83.7 12.2C84.3 12.8 85 13.1 85.9 13.1ZM85.8 12.4C85.2 12.4 84.6 12.1 84.2 11.7C83.8 11.3 83.5 10.7 83.5 10C83.5 9.3 83.8 8.7 84.2 8.3C84.6 7.8 85.2 7.6 85.8 7.6C86.4 7.6 87 7.9 87.4 8.3C87.9 8.7 88.1 9.3 88.1 10C88.1 10.7 87.8 11.3 87.4 11.7C87 12.2 86.4 12.4 85.8 12.4Z" fill="black"/>
<path fill-rule="evenodd" clip-rule="evenodd" d="M92.1 7H94.3C94.8 7 95.2 7.2 95.5 7.5C95.8 7.8 96 8.2 96 8.7C96 8.93739 95.9374 9.11216 95.8617 9.32341C95.8417 9.37912 95.8209 9.43739 95.8 9.5C95.7 9.7 95.5 9.9 95.2 10C95.5 10.1 95.7 10.3 95.9 10.5C96.1 10.7 96.2 11 96.2 11.4C96.2 11.9 96 12.3 95.7 12.6C95.3 12.9 94.9 13.1 94.4 13.1H92.1V7ZM92.9 9.6H94.3C94.6 9.6 94.8 9.5 95 9.3C95.2 9.1 95.3 8.9 95.3 8.7C95.3 8.5 95.2 8.3 95 8.1C94.8 7.9 94.6 7.8 94.3 7.8H92.9V9.6ZM94.5 12.3H93V10.3H94.5C94.8 10.3 95 10.4 95.2 10.6C95.4 10.8 95.5 11.1 95.5 11.3C95.5 11.6 95.4 11.8 95.2 12C95 12.2 94.8 12.3 94.5 12.3Z" fill="black"/>
<defs>
<linearGradient id="paint0_linear" x1="17.4363" y1="-7.42722" x2="-2.43141" y2="-2.05499" gradientUnits="userSpaceOnUse">
<stop stop-color="#00A0FF"/>
<stop offset="0.00657445" stop-color="#00A1FF"/>
<stop offset="0.2601" stop-color="#00BEFF"/>
<stop offset="0.5122" stop-color="#00D2FF"/>
<stop offset="0.7604" stop-color="#00DFFF"/>
<stop offset="1" stop-color="#00E3FF"/>
</linearGradient>
<linearGradient id="paint1_linear" x1="33.8344" y1="9.8695" x2="9.63752" y2="9.8695" gradientUnits="userSpaceOnUse">
<stop stop-color="#FFE000"/>
<stop offset="0.4087" stop-color="#FFBD00"/>
<stop offset="0.7754" stop-color="#FFA500"/>
<stop offset="1" stop-color="#FF9C00"/>
</linearGradient>
<linearGradient id="paint2_linear" x1="10.0828" y1="13.514" x2="-5.88262" y2="40.3184" gradientUnits="userSpaceOnUse">
<stop stop-color="#FF3A44"/>
<stop offset="1" stop-color="#C31162"/>
</linearGradient>
<linearGradient id="paint3_linear" x1="0.682725" y1="4.07946" x2="7.75571" y2="16.0652" gradientUnits="userSpaceOnUse">
<stop stop-color="#32A071"/>
<stop offset="0.0685" stop-color="#2DA771"/>
<stop offset="0.4762" stop-color="#15CF74"/>
<stop offset="0.8009" stop-color="#06E775"/>
<stop offset="1" stop-color="#00F076"/>
</linearGradient>
</defs>
</svg>
