<svg width="160" height="44" viewBox="0 0 160 44" fill="none" xmlns="http://www.w3.org/2000/svg">
<path d="M18.0168 9.17333C20.8435 16.3463 16.2346 20.9505 11.6437 25.5622C7.37104 30.274 3.60745 35.1719 11.1771 43.9863C8.34948 36.8143 12.9593 32.2091 17.5464 27.6022C21.8228 22.88 25.5864 17.9887 18.0168 9.17333Z" fill="white"/>
<path d="M11.1771 0C14.0086 7.17585 9.40158 11.7772 4.80689 16.3861C0.535187 21.1016 -3.22746 25.9995 4.34506 34.8139C1.51552 27.6362 6.12438 23.0359 10.7144 18.427C14.9889 13.7105 18.7478 8.81445 11.1771 0Z" fill="white"/>
<path d="M127.342 28.4078V43.0693H133.763V37.702H140.819V34.4928H133.763V31.617H147.76V43.0693H154.182V31.617H160V28.4078H127.342Z" fill="white"/>
<path d="M113.565 39.8874V37.346H121.938V34.1339H113.565V31.617H124.32V28.4078H107.143V43.0693H124.452V39.8874H113.565Z" fill="white"/>
<path d="M45.838 28.4078H28.0439V31.617H33.7303V43.0693H40.1516V31.617H45.838V28.4078Z" fill="white"/>
<path d="M50.7 37.5141L53.6712 31.839L56.5149 37.5141H50.7ZM58.5162 28.4078H51.6331L43.6186 43.0693H47.7921L49.1096 40.5523H58.1092L59.4229 43.0693H66.5345L58.5162 28.4078Z" fill="white"/>
<path d="M99.264 28.4078V35.7376L88.9942 28.4078H84.0104V43.0693H88.4058V35.0028L98.9514 43.0693H103.659V28.4078H99.264Z" fill="white"/>
<path d="M81.8287 28.4078H64.4076V31.617H70.0931V43.0693H76.5153V31.617H81.8287V28.4078Z" fill="white"/>
</svg>
