<svg width="32" height="50" viewBox="0 0 32 50" fill="none" xmlns="http://www.w3.org/2000/svg">
<g clip-path="url(#clip0)">
<path d="M20.48 10.4275C23.6931 18.5812 18.4542 23.8148 13.2356 29.057C8.37881 34.413 4.10068 39.9805 12.7053 50C9.49102 41.8474 14.7311 36.6127 19.9453 31.3759C24.8064 26.0081 29.0846 20.4481 20.48 10.4275Z" fill="#EF3D42"/>
<path d="M12.7052 -2.08128e-05C15.9238 8.15689 10.6869 13.3873 5.46407 18.6263C0.608356 23.9866 -3.6687 29.554 4.9391 39.5735C1.72271 31.4145 6.96168 26.1852 12.1792 20.9463C17.0381 15.5849 21.3109 10.0195 12.7052 -2.08128e-05" fill="#00B274"/>
</g>
<defs>
<clipPath id="clip0">
<rect width="32" height="50" transform="matrix(1 0 0 -1 0 50)" fill="white"/>
</clipPath>
</defs>
</svg>
