<svg width="150" height="50" viewBox="0 0 150 50" fill="none" xmlns="http://www.w3.org/2000/svg">
<path d="M112.874 32.3341V49H120.173V42.899H128.194V39.251H120.173V35.982H136.083V49H143.384V35.982H149.997V32.3341H112.874Z" fill="#00B274"/>
<path d="M97.213 45.3832V42.4942H106.731V38.8431H97.213V35.982H109.439V32.3341H89.9139V49H109.589V45.3832H97.213" fill="#00B274"/>
<path d="M20.2269 32.3341H0V35.982H6.4639V49H13.763V35.982H20.2269V32.3341" fill="#EF3D42"/>
<path d="M25.7537 42.6853L29.1311 36.2343L32.3636 42.6853H25.7537ZM34.6384 32.3341H26.8143L17.7041 49H22.4482L23.9458 46.1389H34.1757L35.6691 49H43.753L34.6384 32.3341Z" fill="#EF3D42"/>
<path d="M80.9572 32.3341V40.666L69.2833 32.3341H63.6181V49H68.6145V39.8307L80.6018 49H85.9524V32.3341H80.9572" fill="#00B274"/>
<path d="M61.1382 32.3341H41.3353V35.982H47.7981V49H55.0983V35.982H61.1382V32.3341Z" fill="#EF3D42"/>
</svg>
