<svg width="24" height="24" viewBox="0 0 24 24" fill="#201f2f" xmlns="http://www.w3.org/2000/svg">
<path d="M2.25002 3H21.75C22.8634 3 23.7905 3.81285 23.969 4.87636L15 12.5C14.9894 12.5092 14.9718 12.5255 14.9478 12.5479C14.6532 12.822 13.387 14 12 14C10.613 14 9.34684 12.822 9.0522 12.5479C9.0282 12.5255 9.01065 12.5092 9 12.5L0.0310162 4.87636C0.209482 3.81285 1.13654 3 2.25002 3Z"/>
<path d="M0 6.85V18.75C0 19.9907 1.00928 21 2.25002 21H21.75C22.9907 21 24 19.9907 24 18.75V6.85L22 8.5V18.4049C22 18.75 21.75 19 21.3925 19H2.5C2.25002 19 2 18.75 2 18.5V8.5L0 6.85Z"/>
</svg>
