<svg width="512" height="512" viewBox="0 0 512 512" fill="none" xmlns="http://www.w3.org/2000/svg">
<path d="M361.06 102.924H150.151C130.7 102.924 115 118.624 115 138.076V420.848C115.001 440.298 130.701 455.999 150.151 455.999H361.06C380.511 455.999 396.211 440.298 396.211 420.848V138.075C396.211 118.624 380.511 102.924 361.06 102.924Z" fill="#0D70B2"/>
<path d="M396.211 138.076V420.848C396.211 440.298 380.511 456 361.06 456H255.606V102.924H361.06C380.511 102.924 396.211 118.624 396.211 138.076Z" fill="#095C92"/>
<path d="M197.02 266.964H173.586C167.109 266.964 161.869 261.723 161.869 255.246C161.869 248.77 167.109 243.529 173.586 243.529H197.02C203.497 243.529 208.737 248.77 208.737 255.246C208.737 261.723 203.497 266.964 197.02 266.964Z" fill="#E1E4FB"/>
<path d="M279.04 255.246C279.04 261.807 273.886 266.964 267.323 266.964H243.889C237.326 266.964 232.172 261.807 232.172 255.246C232.172 248.684 237.326 243.529 243.889 243.529H267.323C273.885 243.529 279.04 248.684 279.04 255.246Z" fill="#E1E4FB"/>
<path d="M337.625 266.964H314.191C307.714 266.964 302.474 261.723 302.474 255.246C302.474 248.77 307.714 243.529 314.191 243.529H337.625C344.102 243.529 349.343 248.77 349.343 255.246C349.343 261.723 344.102 266.964 337.625 266.964Z" fill="#C5C9F7"/>
<path d="M185.299 313.832C191.77 313.832 197.016 308.586 197.016 302.114C197.016 295.643 191.77 290.397 185.299 290.397C178.828 290.397 173.582 295.643 173.582 302.114C173.582 308.586 178.828 313.832 185.299 313.832Z" fill="#E1E4FB"/>
<path d="M185.299 360.699C191.77 360.699 197.016 355.454 197.016 348.982C197.016 342.511 191.77 337.265 185.299 337.265C178.828 337.265 173.582 342.511 173.582 348.982C173.582 355.454 178.828 360.699 185.299 360.699Z" fill="#E1E4FB"/>
<path d="M185.299 409.131C191.77 409.131 197.016 403.885 197.016 397.413C197.016 390.942 191.77 385.696 185.299 385.696C178.828 385.696 173.582 390.942 173.582 397.413C173.582 403.885 178.828 409.131 185.299 409.131Z" fill="#E1E4FB"/>
<path d="M267.323 302.115C267.323 308.676 262.169 313.832 255.606 313.832C249.044 313.832 243.889 308.676 243.889 302.115C243.889 295.553 249.044 290.398 255.606 290.398C262.169 290.398 267.323 295.553 267.323 302.115Z" fill="#E1E4FB"/>
<path d="M267.323 348.983C267.323 355.544 262.169 360.7 255.606 360.7C249.044 360.7 243.889 355.544 243.889 348.983C243.889 342.421 249.044 337.266 255.606 337.266C262.169 337.266 267.323 342.421 267.323 348.983Z" fill="#E1E4FB"/>
<path d="M267.323 397.414C267.323 403.975 262.169 409.132 255.606 409.132C249.044 409.132 243.889 403.975 243.889 397.414C243.889 390.852 249.044 385.697 255.606 385.697C262.169 385.697 267.323 390.852 267.323 397.414Z" fill="#E1E4FB"/>
<path d="M325.912 313.832C332.383 313.832 337.629 308.586 337.629 302.114C337.629 295.643 332.383 290.397 325.912 290.397C319.441 290.397 314.195 295.643 314.195 302.114C314.195 308.586 319.441 313.832 325.912 313.832Z" fill="#C5C9F7"/>
<path d="M325.912 360.699C332.383 360.699 337.629 355.454 337.629 348.982C337.629 342.511 332.383 337.265 325.912 337.265C319.441 337.265 314.195 342.511 314.195 348.982C314.195 355.454 319.441 360.699 325.912 360.699Z" fill="#C5C9F7"/>
<path d="M325.912 409.131C332.383 409.131 337.629 403.885 337.629 397.413C337.629 390.942 332.383 385.696 325.912 385.696C319.441 385.696 314.195 390.942 314.195 397.413C314.195 403.885 319.441 409.131 325.912 409.131Z" fill="#C5C9F7"/>
<path d="M267.323 397.414C267.323 403.975 262.169 409.132 255.606 409.132V385.697C262.169 385.697 267.323 390.852 267.323 397.414Z" fill="#C5C9F7"/>
<path d="M267.323 348.983C267.323 355.544 262.169 360.7 255.606 360.7V337.266C262.169 337.266 267.323 342.421 267.323 348.983Z" fill="#C5C9F7"/>
<path d="M267.323 302.115C267.323 308.676 262.169 313.832 255.606 313.832V290.398C262.169 290.398 267.323 295.553 267.323 302.115Z" fill="#C5C9F7"/>
<path d="M279.04 255.246C279.04 261.807 273.886 266.964 267.323 266.964H255.606V243.529H267.323C273.885 243.529 279.04 248.684 279.04 255.246Z" fill="#C5C9F7"/>
<path d="M319.346 57.2265C315.128 55.3507 310.443 55.8202 306.926 58.6327L284.898 76.2085L262.87 58.6327C260.76 56.9921 258.183 56.0546 255.605 56.0546C253.027 56.0546 250.451 56.9913 248.34 58.6327L226.312 76.2085L204.285 58.6327C200.769 55.8202 196.083 55.1171 191.866 57.2265C187.881 59.1023 185.303 63.3194 185.303 67.7718V161.508C185.303 168.069 190.458 173.225 197.02 173.225H314.191C320.754 173.225 325.908 168.069 325.908 161.508V67.7718C325.908 63.3202 323.332 59.1023 319.346 57.2265Z" fill="#E1E4FB"/>
<path d="M325.908 67.7726V161.509C325.908 168.07 320.754 173.226 314.191 173.226H255.605V56.0554C258.183 56.0554 260.76 56.9921 262.87 58.6335L284.898 76.2093L306.926 58.6335C310.442 55.821 315.128 55.3531 319.346 57.2273C323.332 59.1023 325.908 63.3203 325.908 67.7726Z" fill="#C5C9F7"/>
<path d="M337.625 149.793H173.586C167.023 149.793 161.869 154.947 161.869 161.51V208.379C161.869 214.939 167.023 220.096 173.586 220.096H337.625C344.188 220.096 349.342 214.939 349.342 208.379V161.51C349.342 154.947 344.188 149.793 337.625 149.793Z" fill="#1DE8F1"/>
<path d="M349.342 161.51V208.379C349.342 214.939 344.188 220.096 337.625 220.096H255.606V149.793H337.625C344.188 149.793 349.342 154.947 349.342 161.51Z" fill="#1BD9DE"/>
</svg>
