<svg width="500" height="500" viewBox="0 0 500 500" fill="none" xmlns="http://www.w3.org/2000/svg">
<path d="M247.526 126.404C272.169 138.701 283.697 138.843 299.955 126.404C313.262 116.223 329.987 118.768 349.839 130.476L474.549 204.793C507.635 223.626 497.455 265.875 474.549 297.435C448.319 333.574 425.174 339.682 404.304 327.976C311.382 348.266 270.272 377.099 213.422 454.722L176.773 479.155C173.704 480.849 171.51 480.607 166.592 477.628L25.5938 395.675C19.792 391.716 18.535 387.668 17.4495 379.387C6.76002 375.317 2.51824 368.188 1.16085 362.08C-0.196536 355.972 -2.40229 340.701 8.28712 320.341C112.625 224.387 165.628 180.777 247.526 126.404Z" fill="#495F69"/>
<path d="M247.526 126.404C314.208 165.089 349.33 183.922 393.615 211.918C419.284 223.226 431.104 224.625 444.008 211.409C424.156 199.701 335.078 148.8 299.955 126.404C283.697 138.843 272.169 138.701 247.526 126.404Z" fill="#57707B"/>
<path d="M213.422 454.721C270.273 377.099 311.382 348.265 404.304 327.976C315.735 299.469 224.111 370.223 160.993 459.302L166.592 477.627C171.51 480.606 173.704 480.849 176.773 479.154L213.422 454.721Z" fill="#788C95"/>
<path d="M154.376 404.837C102.456 376.841 43.9185 341.209 8.28712 320.341C-2.40228 340.701 -0.196537 355.972 1.16085 362.08C2.51823 368.188 6.76001 375.317 17.4495 379.387C22.3669 382.366 113.145 435.887 151.831 457.775C143.686 444.031 146.74 421.125 154.376 404.837Z" fill="#57707B"/>
<path d="M247.526 126.404C165.628 180.777 112.625 224.387 8.28711 320.341C24.0667 329.502 118.235 386.512 154.376 404.837C249.231 319.028 301.666 276.392 393.615 211.918C346.276 181.377 297.919 156.435 247.526 126.404Z" fill="#788C95"/>
<path d="M9.81415 349.354L140.123 424.18V437.923L9.81415 362.588V349.354Z" fill="#475D66"/>
<path d="M14.9044 352.408L140.123 424.179V431.815L14.9044 359.534V352.408Z" fill="#36484F"/>
<path d="M248.035 143.71L367.655 212.936L266.36 289.798L141.141 222.608C180.938 190.789 204.091 173.385 248.035 143.71Z" fill="#526772"/>
<path d="M248.544 150.836L305.3 183.668L362.056 216.499L266.36 289.798L146.74 225.662C186.538 193.843 204.6 180.511 248.544 150.836Z" fill="#51B6E5"/>
<path d="M266.36 289.798L362.056 216.499L305.3 183.668L166.449 236.351L266.36 289.798Z" fill="white" fill-opacity="0.1"/>
<path d="M153.358 264.856L114.672 244.496V251.113L153.358 271.474V264.856Z" fill="#495F69"/>
<path d="M153.358 264.857L172.7 249.586L173.209 256.203L153.358 271.474V264.857Z" fill="#3D4F58"/>
<path d="M133.506 229.225L172.7 249.586L153.358 264.856L114.672 244.496L133.506 229.225Z" fill="#57707B"/>
<path d="M197.133 289.289L158.448 268.929V275.546L197.133 295.907V289.289Z" fill="#495F69"/>
<path d="M197.133 289.289L216.476 274.019L216.985 280.636L197.133 295.907V289.289Z" fill="#3D4F58"/>
<path d="M177.282 253.658L216.476 274.019L197.133 289.289L158.448 268.929L177.282 253.658Z" fill="#57707B"/>
<path d="M239.891 313.722L201.206 293.362V299.979L239.891 320.34V313.722Z" fill="#495F69"/>
<path d="M239.891 313.722L259.234 298.452L259.743 305.069L239.891 320.34V313.722Z" fill="#3D4F58"/>
<path d="M220.039 278.091L259.234 298.452L239.891 313.722L201.206 293.361L220.039 278.091Z" fill="#57707B"/>
<path d="M124.853 287.253L86.1671 266.893V273.51L124.853 293.871V287.253Z" fill="#495F69"/>
<path d="M124.853 287.253L144.195 271.983L144.704 278.6L124.853 293.871V287.253Z" fill="#3D4F58"/>
<path d="M105.001 251.622L144.195 271.983L124.853 287.253L86.1671 266.892L105.001 251.622Z" fill="#57707B"/>
<path d="M168.628 311.686L129.943 291.325V297.943L168.628 318.303V311.686Z" fill="#495F69"/>
<path d="M168.628 311.686L187.971 296.416L188.48 303.033L168.628 318.303V311.686Z" fill="#3D4F58"/>
<path d="M148.776 276.055L187.971 296.416L168.628 311.686L129.943 291.326L148.776 276.055Z" fill="#57707B"/>
<path d="M211.386 336.119L172.7 315.758V322.376L211.386 342.736V336.119Z" fill="#495F69"/>
<path d="M211.386 336.119L230.729 320.849L231.238 327.466L211.386 342.736V336.119Z" fill="#3D4F58"/>
<path d="M191.534 300.488L230.729 320.849L211.386 336.119L172.7 315.758L191.534 300.488Z" fill="#57707B"/>
<path d="M96.3475 309.65L57.662 289.289V295.907L96.3475 316.267V309.65Z" fill="#495F69"/>
<path d="M96.3475 309.65L115.69 294.38L116.199 300.997L96.3475 316.267V309.65Z" fill="#3D4F58"/>
<path d="M76.4957 274.019L115.69 294.38L96.3475 309.65L57.662 289.289L76.4957 274.019Z" fill="#57707B"/>
<path d="M140.123 334.083L101.438 313.722V320.34L140.123 340.7V334.083Z" fill="#495F69"/>
<path d="M140.123 334.083L159.466 318.812L159.975 325.43L140.123 340.7V334.083Z" fill="#3D4F58"/>
<path d="M120.271 298.452L159.466 318.812L140.123 334.083L101.438 313.722L120.271 298.452Z" fill="#57707B"/>
<path d="M182.881 358.516L144.195 338.155V344.773L182.881 365.133V358.516Z" fill="#495F69"/>
<path d="M182.881 358.516L202.224 343.245L202.733 349.863L182.881 365.133V358.516Z" fill="#3D4F58"/>
<path d="M163.029 322.885L202.224 343.246L182.881 358.516L144.195 338.155L163.029 322.885Z" fill="#57707B"/>
<path d="M67.8424 332.047L29.1569 311.686V318.304L67.8424 338.664V332.047Z" fill="#EC5754"/>
<path d="M67.8424 332.047L87.1851 316.776L87.6942 323.394L67.8424 338.664V332.047Z" fill="#BE4544"/>
<path d="M47.9906 296.416L87.1851 316.776L67.8424 332.047L29.1569 311.686L47.9906 296.416Z" fill="#EF7675"/>
<path d="M111.618 356.48L72.9326 336.119V342.736L111.618 363.097V356.48Z" fill="#58B6DF"/>
<path d="M111.618 356.48L130.961 341.209L131.47 347.827L111.618 363.097V356.48Z" fill="#2F9ED4"/>
<path d="M91.7663 320.849L130.961 341.209L111.618 356.48L72.9326 336.119L91.7663 320.849Z" fill="#7CCFE1"/>
<path d="M154.376 380.913L115.69 360.552V367.169L154.376 387.53V380.913Z" fill="#EEC756"/>
<path d="M154.376 380.913L173.718 365.642L174.227 372.26L154.376 387.53V380.913Z" fill="#D7B34C"/>
<path d="M134.524 345.281L173.718 365.642L154.376 380.913L115.69 360.552L134.524 345.281Z" fill="#FDE088"/>
<path d="M380.889 19L500 87.7176C458.081 120.174 445.427 145.969 435.354 200.72L316.753 130.984C325.642 77.3504 339.355 52.6174 380.889 19Z" fill="#DDE4E7"/>
</svg>
