<svg width="188" height="156" viewBox="0 0 188 156" fill="none" xmlns="http://www.w3.org/2000/svg">
<g clip-path="url(#clip0)">
<path d="M53.5 124.5C86.7653 122.803 119.782 122.69 150 113L106 138C94.7984 148.859 86.4284 151.861 70 155C48.5 159.108 40.5 135 53.5 124.5Z" fill="url(#paint0_linear)"/>
<path d="M42.9419 6.31508L147.571 1.07093C147.571 1.07093 141.786 71.7333 173.731 95.8475C199.888 120.663 184 146.5 164.5 148.5C145 150.5 69.5712 155.071 69.5712 155.071C84.4518 151.309 97.1187 126.474 73.8151 103.853C50.5114 81.2324 45.1083 41.0511 42.9419 6.31508Z" fill="url(#paint1_linear)"/>
<path d="M56.5 20L135.5 15.5" stroke="#293C48" stroke-width="3" stroke-linecap="round" stroke-linejoin="round"/>
<path d="M57.5 30L135.5 25.5" stroke="#293C48" stroke-width="3" stroke-linecap="round" stroke-linejoin="round"/>
<path d="M84 39.5L112 38" stroke="#293C48" stroke-width="3" stroke-linecap="round" stroke-linejoin="round"/>
<path d="M61 54.6L87 52.889M138.5 49.5L119 50.7832" stroke="#293C48" stroke-width="3" stroke-linecap="round" stroke-linejoin="round"/>
<path d="M64 64.5L93 62.6046M140.5 59.5L124.5 60.5458" stroke="#293C48" stroke-width="3" stroke-linecap="round" stroke-linejoin="round"/>
<path d="M67 74.5L90 73.0065M144 69.5L125 70.7338" stroke="#293C48" stroke-width="3" stroke-linecap="round" stroke-linejoin="round"/>
<path d="M71 84.5L98.5 82.7143M148 79.5L133 80.474" stroke="#293C48" stroke-width="3" stroke-linecap="round" stroke-linejoin="round"/>
<path d="M79 94.5L109 92.5519M156 89.5L141.5 90.4416" stroke="#293C48" stroke-width="3" stroke-linecap="round" stroke-linejoin="round"/>
<path d="M95 113.5L172 108.5" stroke="#293C48" stroke-width="3" stroke-linecap="round" stroke-linejoin="round"/>
<path d="M99 123.5L176 118.5" stroke="#293C48" stroke-width="3" stroke-linecap="round" stroke-linejoin="round"/>
<path d="M117 136.331L159.5 133.571" stroke="#293C48" stroke-width="3" stroke-linecap="round" stroke-linejoin="round"/>
</g>
<defs>
<linearGradient id="paint0_linear" x1="98.6105" y1="113" x2="98.6105" y2="155.466" gradientUnits="userSpaceOnUse">
<stop stop-color="#BDCFDB"/>
<stop offset="1" stop-color="#435765"/>
</linearGradient>
<linearGradient id="paint1_linear" x1="134" y1="-5.53116e-06" x2="148" y2="146" gradientUnits="userSpaceOnUse">
<stop stop-color="#BDCEDB"/>
<stop offset="0.664579" stop-color="#DCE6ED"/>
<stop offset="0.838829" stop-color="#C4CCD3"/>
<stop offset="1" stop-color="#838F98"/>
</linearGradient>
<clipPath id="clip0">
<rect width="188" height="156" fill="white"/>
</clipPath>
</defs>
</svg>
