<svg width="512" height="512" viewBox="0 0 512 512" fill="none" xmlns="http://www.w3.org/2000/svg">
<path d="M388.764 344.914V417.874C389.003 420.532 387.043 422.881 384.385 423.12C382.966 423.248 381.562 422.743 380.549 421.74L348.659 391.783C346.639 390.331 343.916 390.331 341.895 391.783L303.725 426.088C301.846 427.929 298.839 427.929 296.961 426.088L259.273 391.783C257.252 390.331 254.53 390.331 252.509 391.783L214.822 426.088C212.942 427.929 209.936 427.929 208.057 426.088L169.887 391.783C167.866 390.331 165.144 390.331 163.123 391.783L131.233 421.74C129.338 423.618 126.279 423.605 124.4 421.71C123.397 420.697 122.891 419.293 123.02 417.874V112.99C123.02 96.9799 136 84 152.01 84H359.775C375.785 84 388.765 96.979 388.765 112.99V344.914H388.764Z" fill="url(#paint0_linear)"/>
<path d="M261.824 182.758H199.978C194.641 182.758 190.315 178.281 190.315 172.758C190.315 167.235 194.641 162.758 199.978 162.758H261.824C267.161 162.758 271.488 167.235 271.488 172.758C271.488 178.281 267.16 182.758 261.824 182.758Z" fill="#00ACEA"/>
<path d="M319.805 246H199.977C194.64 246 190.314 241.523 190.314 236C190.314 230.477 194.64 226 199.977 226H319.804C325.141 226 329.468 230.477 329.468 236C329.468 241.523 325.141 246 319.805 246Z" fill="#00ACEA"/>
<path d="M319.805 309H199.977C194.64 309 190.314 304.523 190.314 299C190.314 293.477 194.64 289 199.977 289H319.804C325.141 289 329.468 293.477 329.468 299C329.468 304.523 325.141 309 319.805 309Z" fill="#00ACEA"/>
<defs>
<linearGradient id="paint0_linear" x1="123" y1="84" x2="389" y2="527" gradientUnits="userSpaceOnUse">
<stop stop-color="#EAF2FF"/>
<stop offset="1" stop-color="#C0CDDF"/>
</linearGradient>
</defs>
</svg>
