<svg width="512" height="512" viewBox="0 0 512 512" fill="none" xmlns="http://www.w3.org/2000/svg">
<path d="M256.342 456C255.094 456 253.836 455.794 252.634 455.394C163.737 425.765 104 342.888 104 249.174V114.598C104 108.121 109.241 102.88 115.719 102.88C159.4 102.88 201.685 90.0736 238.032 65.8473L249.842 57.974C253.778 55.342 258.906 55.342 262.842 57.974L274.652 65.8473C310.998 90.0744 353.283 102.88 396.966 102.88C403.443 102.88 408.684 108.121 408.684 114.598V249.174C408.684 342.888 348.947 425.765 260.05 455.394C258.848 455.795 257.589 456 256.342 456V456Z" fill="url(#paint0_linear)"/>
<path d="M256.341 362.251C198.183 362.251 150.874 314.942 150.874 256.784C150.874 198.626 198.183 151.317 256.341 151.317C314.499 151.317 361.808 198.626 361.808 256.784C361.808 314.942 314.499 362.251 256.341 362.251Z" fill="url(#paint1_linear)"/>
<path d="M244.622 303.658C241.624 303.658 238.626 302.514 236.337 300.225L212.9 276.787C208.323 272.21 208.323 264.794 212.9 260.217C217.478 255.639 224.894 255.639 229.471 260.217L244.623 275.369L283.213 236.779C287.79 232.202 295.206 232.202 299.783 236.779C304.361 241.357 304.361 248.773 299.783 253.35L252.909 300.225C250.618 302.514 247.621 303.658 244.622 303.658V303.658Z" fill="url(#paint2_linear)"/>
<defs>
<linearGradient id="paint0_linear" x1="256.342" y1="456" x2="256.342" y2="55.9998" gradientUnits="userSpaceOnUse">
<stop stop-color="#FD3A84"/>
<stop offset="1" stop-color="#FFA68D"/>
</linearGradient>
<linearGradient id="paint1_linear" x1="256.341" y1="362.251" x2="256.341" y2="151.317" gradientUnits="userSpaceOnUse">
<stop stop-color="#FFC8D1"/>
<stop offset="1" stop-color="#FFF6F7"/>
</linearGradient>
<linearGradient id="paint2_linear" x1="256.341" y1="303.658" x2="256.341" y2="233.347" gradientUnits="userSpaceOnUse">
<stop stop-color="#FD3A84"/>
<stop offset="1" stop-color="#FFA68D"/>
</linearGradient>
</defs>
</svg>
