<svg width="180" height="180" viewBox="0 0 180 180" fill="none" xmlns="http://www.w3.org/2000/svg">
<g clip-path="url(#clip0)">
<path d="M108.888 71.3657C107.183 69.6694 104.421 69.6694 102.716 71.3657L58.9334 114.953C57.2296 116.649 57.2296 119.4 58.9334 121.097C59.7857 121.946 60.9023 122.37 62.0189 122.37C63.1355 122.37 64.2524 121.945 65.1043 121.097L108.887 77.5095C110.592 75.8129 110.592 73.062 108.888 71.3657Z" fill="white"/>
<path d="M117.432 67.2036C118.55 67.2036 119.667 66.7785 120.519 65.9304L120.833 65.6174C122.537 63.9199 122.536 61.1698 120.831 59.4736C119.127 57.7773 116.364 57.7789 114.66 59.4751L114.345 59.7882C112.642 61.4856 112.643 64.2357 114.348 65.932C115.2 66.7801 116.316 67.2036 117.432 67.2036Z" fill="white"/>
<path d="M84.7279 69.291C84.7279 60.3077 77.3871 53 68.364 53C59.3408 53 52 60.3081 52 69.291C52 78.2739 59.3408 85.582 68.364 85.582C77.3871 85.582 84.7279 78.2735 84.7279 69.291ZM60.7275 69.291C60.7275 65.0991 64.1537 61.6886 68.364 61.6886C72.5742 61.6886 76.0004 65.0991 76.0004 69.291C76.0004 73.4829 72.5742 76.8934 68.364 76.8934C64.1537 76.8934 60.7275 73.4829 60.7275 69.291Z" fill="white"/>
<path d="M110.972 95.418C101.949 95.418 94.6085 102.726 94.6085 111.709C94.6085 120.692 101.949 128 110.972 128C119.996 128 127.336 120.692 127.336 111.709C127.336 102.726 119.996 95.418 110.972 95.418ZM110.972 119.311C106.762 119.311 103.336 115.9 103.336 111.709C103.336 107.517 106.762 104.107 110.972 104.107C115.183 104.107 118.609 107.517 118.609 111.709C118.609 115.9 115.183 119.311 110.972 119.311Z" fill="white"/>
<path fill-rule="evenodd" clip-rule="evenodd" d="M105.601 12.3619C96.2441 10.525 86.395 10.3488 76.434 12.1052C55.189 15.8513 37.4088 27.6902 25.6984 43.8985C24.909 44.9911 23.3833 45.2369 22.2908 44.4475C21.1982 43.6581 20.9524 42.1325 21.7418 41.0399C34.1658 23.8441 53.0415 11.2734 75.5864 7.29816C86.1487 5.43576 96.6039 5.6213 106.541 7.57212C107.864 7.83179 108.725 9.11451 108.466 10.4372C108.206 11.7598 106.923 12.6216 105.601 12.3619Z" fill="url(#paint0_angular)"/>
<path fill-rule="evenodd" clip-rule="evenodd" d="M18.846 50.4324C21.2823 51.5863 22.322 54.4968 21.168 56.9331C14.7456 70.4931 12.1994 86.0583 14.7252 102.006C17.6499 120.472 26.8862 136.355 39.8927 147.822C41.9148 149.605 42.1088 152.69 40.326 154.712C38.5432 156.734 35.4587 156.928 33.4366 155.145C18.7891 142.231 8.37604 124.324 5.08301 103.533C2.24014 85.5835 5.10833 68.034 12.3452 52.7544C13.4991 50.318 16.4096 49.2784 18.846 50.4324Z" fill="url(#paint1_linear)"/>
<path fill-rule="evenodd" clip-rule="evenodd" d="M169.854 69.0915C173.836 68.3893 177.634 71.0483 178.336 75.0306C186.912 123.669 154.435 170.051 105.796 178.627C85.0776 182.281 64.7488 178.479 47.5943 169.151C44.0418 167.22 42.7278 162.774 44.6595 159.221C46.5911 155.669 51.0369 154.355 54.5894 156.286C68.9373 164.088 85.9143 167.264 103.254 164.206C143.928 157.034 171.087 118.248 163.915 77.5734C163.212 73.5912 165.871 69.7936 169.854 69.0915Z" fill="url(#paint2_linear)"/>
</g>
<defs>
<radialGradient id="paint0_angular" cx="0" cy="0" r="1" gradientUnits="userSpaceOnUse" gradientTransform="translate(89.0946 89.6208) rotate(-161.234) scale(64.1689 61.9813)">
<stop offset="0.0406097" stop-color="#9EA7B5"/>
<stop offset="0.0930803" stop-color="#F5F7FA"/>
<stop offset="0.149714" stop-color="#849BBD"/>
<stop offset="0.201498" stop-color="#B8C6DB"/>
<stop offset="0.27597" stop-color="#6C86AD"/>
</radialGradient>
<linearGradient id="paint1_linear" x1="11.9564" y1="55.604" x2="27.3753" y2="152.955" gradientUnits="userSpaceOnUse">
<stop stop-color="#FBB034"/>
<stop offset="0.515625" stop-color="#FFDD00"/>
<stop offset="1" stop-color="#FBB034"/>
</linearGradient>
<linearGradient id="paint2_linear" x1="51.3264" y1="164.454" x2="171.669" y2="76.4842" gradientUnits="userSpaceOnUse">
<stop stop-color="#607292"/>
<stop offset="0.54512" stop-color="#BDD4E7"/>
<stop offset="1" stop-color="#6D7D9B"/>
</linearGradient>
<clipPath id="clip0">
<rect width="180" height="180" fill="white"/>
</clipPath>
</defs>
</svg>
