<svg width="24" height="24" viewBox="0 0 24 24" fill="none" xmlns="http://www.w3.org/2000/svg">
<g clip-path="url(#clip0)">
<path d="M0.415005 11.196L6.28401 14.121C6.51101 14.233 6.77901 14.225 6.99601 14.098L12.22 11.061L9.05801 13.863C8.89701 14.006 8.80501 14.21 8.80501 14.425V21.25C8.80501 21.97 9.72401 22.273 10.155 21.701L12.692 18.328L18.966 21.901C19.406 22.154 19.97 21.9 20.072 21.397L23.985 1.89698C24.102 1.31098 23.519 0.832982 22.977 1.05098L0.477005 9.82598C-0.126995 10.062 -0.165995 10.907 0.415005 11.196V11.196ZM22.245 2.94698L18.806 20.084L12.861 16.698C12.537 16.513 12.12 16.595 11.89 16.899L10.305 19.006V14.762L18.856 7.18598C19.533 6.58698 18.755 5.52198 17.982 5.97598L6.59201 12.598L2.60001 10.609L22.245 2.94698Z" fill="white"/>
</g>
<defs>
<clipPath id="clip0">
<rect width="24" height="24" fill="white"/>
</clipPath>
</defs>
</svg>
