<svg width="24" height="24" viewBox="0 0 24 24" fill="none" xmlns="http://www.w3.org/2000/svg">
<path d="M0.472992 19.595C2.69499 21.005 5.28099 21.75 7.95099 21.75C11.861 21.75 15.444 20.248 18.041 17.521C20.526 14.911 21.893 11.404 21.825 7.84498C22.767 7.03898 23.875 5.49998 23.875 3.99998C23.875 3.42498 23.251 3.05998 22.745 3.35298C21.86 3.87298 21.053 4.00898 20.223 3.77598C18.528 2.12398 16.005 1.77598 13.879 2.92198C12.021 3.92198 10.988 5.75198 11.081 7.75198C7.94199 7.36898 5.04199 5.79498 3.01999 3.34898C2.68799 2.94998 2.05799 2.99698 1.79399 3.44898C0.819992 5.11698 0.829992 7.04998 1.67699 8.61098C1.27399 8.68198 1.02499 9.02098 1.02499 9.38798C1.02499 10.957 1.73099 12.399 2.86799 13.383C2.65599 13.587 2.58599 13.89 2.67599 14.16C3.17599 15.662 4.30799 16.836 5.72299 17.424C4.18399 18.159 2.48199 18.404 0.966992 18.218C0.182992 18.112 -0.204008 19.166 0.472992 19.595V19.595ZM8.15599 17.681C8.71699 17.25 8.41899 16.352 7.71499 16.337C6.47499 16.311 5.34599 15.7 4.64299 14.739C4.98199 14.717 5.33299 14.665 5.66699 14.575C6.42799 14.369 6.39199 13.271 5.61899 13.116C4.21599 12.834 3.11499 11.812 2.70199 10.496C3.07899 10.589 3.46299 10.641 3.84599 10.648C4.60499 10.652 4.89199 9.67898 4.27299 9.27198C2.87799 8.35298 2.28299 6.72998 2.67699 5.20398C5.11299 7.67198 8.41799 9.15898 11.914 9.32698C12.415 9.35798 12.791 8.88698 12.681 8.40998C12.206 6.35098 13.356 4.90798 14.591 4.24298C15.813 3.58298 17.775 3.37698 19.279 4.95498C19.726 5.42598 21.234 5.44398 22.001 5.26498C21.657 5.91298 21.128 6.52798 20.633 6.87398C20.422 7.02198 20.301 7.26798 20.314 7.52498C20.475 10.81 19.251 14.076 16.956 16.485C14.644 18.912 11.447 20.249 7.95199 20.249C6.56199 20.249 5.19899 20.023 3.91099 19.587C5.45099 19.289 6.91399 18.637 8.15599 17.681V17.681Z" fill="white"/>
</svg>
