<svg width="612" height="451" viewBox="0 0 612 451" fill="none" xmlns="http://www.w3.org/2000/svg">
<g opacity="0.2">
<path opacity="0.5" d="M451.454 63.2488C455.635 47.6474 471.671 38.3889 487.272 42.5692L523.011 52.1455C523.948 52.3964 524.503 53.3585 524.252 54.2946V54.2946C520.072 69.896 504.036 79.1545 488.434 74.9742L452.695 65.3979C451.759 65.147 451.203 64.1849 451.454 63.2488V63.2488Z" fill="white"/>
<path opacity="0.5" d="M451.454 115.792C455.635 100.191 471.671 90.9323 487.272 95.1126L523.011 104.689C523.948 104.94 524.503 105.902 524.252 106.838V106.838C520.072 122.439 504.036 131.698 488.434 127.518L452.695 117.941C451.759 117.69 451.203 116.728 451.454 115.792V115.792Z" fill="white"/>
<path opacity="0.5" d="M451.454 168.336C455.635 152.734 471.671 143.476 487.272 147.656L523.011 157.232C523.948 157.483 524.503 158.445 524.252 159.381V159.381C520.072 174.983 504.036 184.241 488.434 180.061L452.695 170.485C451.759 170.234 451.203 169.272 451.454 168.336V168.336Z" fill="white"/>
<path opacity="0.5" d="M451.454 220.879C455.635 205.278 471.671 196.019 487.272 200.199L523.011 209.776C523.948 210.027 524.503 210.989 524.252 211.925V211.925C520.072 227.526 504.036 236.785 488.434 232.604L452.695 223.028C451.759 222.777 451.203 221.815 451.454 220.879V220.879Z" fill="white"/>
<path opacity="0.5" d="M451.454 273.422C455.635 257.821 471.671 248.562 487.272 252.743L523.011 262.319C523.948 262.57 524.503 263.532 524.252 264.468V264.468C520.072 280.07 504.036 289.328 488.434 285.148L452.695 275.571C451.759 275.321 451.203 274.358 451.454 273.422V273.422Z" fill="white"/>
<path opacity="0.5" d="M451.454 325.966C455.635 310.364 471.671 301.106 487.272 305.286L523.011 314.863C523.948 315.113 524.503 316.076 524.252 317.012V317.012C520.072 332.613 504.036 341.872 488.434 337.691L452.695 328.115C451.759 327.864 451.203 326.902 451.454 325.966V325.966Z" fill="white"/>
<path opacity="0.5" d="M451.454 378.509C455.635 362.908 471.671 353.649 487.272 357.83L523.011 367.406C523.948 367.657 524.503 368.619 524.252 369.555V369.555C520.072 385.156 504.036 394.415 488.434 390.235L452.695 380.658C451.759 380.407 451.203 379.445 451.454 378.509V378.509Z" fill="white"/>
<path opacity="0.5" d="M451.454 431.053C455.635 415.451 471.671 406.193 487.272 410.373L523.011 419.949C523.948 420.2 524.503 421.162 524.252 422.098V422.098C520.072 437.7 504.036 446.958 488.434 442.778L452.695 433.202C451.759 432.951 451.203 431.989 451.454 431.053V431.053Z" fill="white"/>
<path opacity="0.5" d="M517.233 36.45C522.627 16.3192 543.319 4.37273 563.45 9.76676L609.565 22.1233C610.773 22.4469 611.49 23.6884 611.166 24.8963V24.8963C605.772 45.0271 585.08 56.9736 564.949 51.5796L518.834 39.223C517.626 38.8994 516.91 37.6579 517.233 36.45V36.45Z" fill="white"/>
<path opacity="0.5" d="M517.233 89.2963C522.627 69.1655 543.319 57.219 563.45 62.6131L609.565 74.9696C610.773 75.2932 611.49 76.5348 611.166 77.7426V77.7426C605.772 97.8734 585.08 109.82 564.949 104.426L518.834 92.0694C517.626 91.7457 516.91 90.5042 517.233 89.2963V89.2963Z" fill="white"/>
<path opacity="0.5" d="M517.233 142.143C522.627 122.012 543.319 110.065 563.45 115.459L609.565 127.816C610.773 128.14 611.49 129.381 611.166 130.589V130.589C605.772 150.72 585.08 162.666 564.949 157.272L518.834 144.916C517.626 144.592 516.91 143.351 517.233 142.143V142.143Z" fill="white"/>
<path opacity="0.5" d="M517.233 194.989C522.627 174.858 543.319 162.912 563.45 168.306L609.565 180.662C610.773 180.986 611.49 182.227 611.166 183.435V183.435C605.772 203.566 585.08 215.513 564.949 210.118L518.834 197.762C517.626 197.438 516.91 196.197 517.233 194.989V194.989Z" fill="white"/>
<path opacity="0.5" d="M517.233 247.835C522.627 227.704 543.319 215.758 563.45 221.152L609.565 233.509C610.773 233.832 611.49 235.074 611.166 236.282V236.282C605.772 256.412 585.08 268.359 564.949 262.965L518.834 250.608C517.626 250.285 516.91 249.043 517.233 247.835V247.835Z" fill="white"/>
<path opacity="0.5" d="M517.233 300.682C522.627 280.551 543.319 268.604 563.45 273.998L609.565 286.355C610.773 286.678 611.49 287.92 611.166 289.128V289.128C605.772 309.259 585.08 321.205 564.949 315.811L518.834 303.455C517.626 303.131 516.91 301.889 517.233 300.682V300.682Z" fill="white"/>
<path opacity="0.5" d="M517.233 353.528C522.627 333.397 543.319 321.451 563.45 326.845L609.565 339.201C610.773 339.525 611.49 340.766 611.166 341.974V341.974C605.772 362.105 585.08 374.051 564.949 368.657L518.834 356.301C517.626 355.977 516.91 354.736 517.233 353.528V353.528Z" fill="white"/>
<path opacity="0.5" d="M517.233 406.374C522.627 386.243 543.319 374.297 563.45 379.691L609.565 392.047C610.773 392.371 611.49 393.613 611.166 394.82V394.82C605.772 414.951 585.08 426.898 564.949 421.504L518.834 409.147C517.626 408.824 516.91 407.582 517.233 406.374V406.374Z" fill="white"/>
<path opacity="0.5" d="M403.408 39.9588C406.509 28.3836 418.407 21.5143 429.982 24.6159L456.498 31.7209C457.193 31.907 457.605 32.6209 457.419 33.3154V33.3154C454.317 44.8906 442.42 51.7598 430.844 48.6582L404.328 41.5532C403.634 41.3672 403.221 40.6533 403.408 39.9588V39.9588Z" fill="white"/>
<path opacity="0.5" d="M403.408 91.9588C406.509 80.3836 418.407 73.5143 429.982 76.6159L456.498 83.7209C457.193 83.907 457.605 84.6209 457.419 85.3154V85.3154C454.317 96.8906 442.42 103.76 430.844 100.658L404.328 93.5532C403.634 93.3672 403.221 92.6533 403.408 91.9588V91.9588Z" fill="white"/>
<path opacity="0.5" d="M403.408 143.959C406.509 132.384 418.407 125.514 429.982 128.616L456.498 135.721C457.193 135.907 457.605 136.621 457.419 137.315V137.315C454.317 148.891 442.42 155.76 430.844 152.658L404.328 145.553C403.634 145.367 403.221 144.653 403.408 143.959V143.959Z" fill="white"/>
<path opacity="0.5" d="M403.408 195.959C406.509 184.384 418.407 177.514 429.982 180.616L456.498 187.721C457.193 187.907 457.605 188.621 457.419 189.315V189.315C454.317 200.891 442.42 207.76 430.844 204.658L404.328 197.553C403.634 197.367 403.221 196.653 403.408 195.959V195.959Z" fill="white"/>
<path opacity="0.5" d="M403.408 247.959C406.509 236.384 418.407 229.514 429.982 232.616L456.498 239.721C457.193 239.907 457.605 240.621 457.419 241.315V241.315C454.317 252.891 442.42 259.76 430.844 256.658L404.328 249.553C403.634 249.367 403.221 248.653 403.408 247.959V247.959Z" fill="white"/>
<path opacity="0.5" d="M403.408 299.959C406.509 288.384 418.407 281.514 429.982 284.616L456.498 291.721C457.193 291.907 457.605 292.621 457.419 293.315V293.315C454.317 304.891 442.42 311.76 430.844 308.658L404.328 301.553C403.634 301.367 403.221 300.653 403.408 299.959V299.959Z" fill="white"/>
<path opacity="0.5" d="M403.408 351.959C406.509 340.384 418.407 333.514 429.982 336.616L456.498 343.721C457.193 343.907 457.605 344.621 457.419 345.315V345.315C454.317 356.891 442.42 363.76 430.844 360.658L404.328 353.553C403.634 353.367 403.221 352.653 403.408 351.959V351.959Z" fill="white"/>
<path opacity="0.5" d="M403.408 403.959C406.509 392.384 418.407 385.514 429.982 388.616L456.498 395.721C457.193 395.907 457.605 396.621 457.419 397.315V397.315C454.317 408.891 442.42 415.76 430.844 412.658L404.328 405.553C403.634 405.367 403.221 404.653 403.408 403.959V403.959Z" fill="white"/>
<path opacity="0.5" d="M361.069 64.225C363.767 54.1596 374.112 48.1864 384.178 50.8834L407.235 57.0616C407.839 57.2235 408.198 57.8442 408.036 58.4481V58.4481C405.339 68.5135 394.993 74.4868 384.928 71.7898L361.87 65.6115C361.266 65.4497 360.908 64.8289 361.069 64.225V64.225Z" fill="white"/>
<path opacity="0.5" d="M361.07 118.898C363.767 108.833 374.112 102.86 384.178 105.557L407.235 111.735C407.839 111.897 408.198 112.517 408.036 113.121V113.121C405.339 123.187 394.993 129.16 384.928 126.463L361.87 120.285C361.266 120.123 360.908 119.502 361.07 118.898V118.898Z" fill="white"/>
<path opacity="0.5" d="M361.07 173.571C363.767 163.506 374.112 157.533 384.178 160.23L407.235 166.408C407.839 166.57 408.198 167.191 408.036 167.794V167.794C405.339 177.86 394.993 183.833 384.928 181.136L361.87 174.958C361.266 174.796 360.908 174.175 361.07 173.571V173.571Z" fill="white"/>
<path opacity="0.5" d="M361.069 222.244C363.767 212.179 374.112 206.206 384.178 208.903L407.235 215.081C407.839 215.243 408.198 215.864 408.036 216.468V216.468C405.339 226.533 394.993 232.506 384.928 229.809L361.87 223.631C361.266 223.469 360.908 222.848 361.069 222.244V222.244Z" fill="white"/>
<path opacity="0.5" d="M361.07 272.918C363.767 262.852 374.112 256.879 384.178 259.576L407.235 265.754C407.839 265.916 408.198 266.537 408.036 267.141V267.141C405.339 277.206 394.993 283.179 384.928 280.482L361.87 274.304C361.266 274.142 360.908 273.522 361.07 272.918V272.918Z" fill="white"/>
<path opacity="0.5" d="M361.07 325.591C363.767 315.525 374.112 309.552 384.178 312.249L407.235 318.427C407.839 318.589 408.198 319.21 408.036 319.814V319.814C405.339 329.879 394.993 335.853 384.928 333.156L361.87 326.977C361.266 326.815 360.908 326.195 361.07 325.591V325.591Z" fill="white"/>
<path opacity="0.5" d="M361.069 380.264C363.767 370.199 374.112 364.225 384.178 366.922L407.235 373.101C407.839 373.262 408.198 373.883 408.036 374.487V374.487C405.339 384.552 394.993 390.526 384.928 387.829L361.87 381.65C361.266 381.489 360.908 380.868 361.069 380.264V380.264Z" fill="white"/>
<path opacity="0.5" d="M361.07 428.937C363.767 418.872 374.112 412.898 384.178 415.595L407.235 421.774C407.839 421.936 408.198 422.556 408.036 423.16V423.16C405.339 433.226 394.993 439.199 384.928 436.502L361.87 430.324C361.266 430.162 360.908 429.541 361.07 428.937V428.937Z" fill="white"/>
<path opacity="0.5" d="M328.246 45.3304C330.515 36.8637 339.218 31.8391 347.685 34.1078L367.08 39.3048C367.588 39.4409 367.89 39.9631 367.754 40.4711V40.4711C365.485 48.9378 356.782 53.9624 348.315 51.6937L328.92 46.4967C328.412 46.3606 328.11 45.8384 328.246 45.3304V45.3304Z" fill="white"/>
<path opacity="0.5" d="M328.246 94.132C330.515 85.6652 339.218 80.6406 347.685 82.9093L367.08 88.1063C367.588 88.2424 367.89 88.7646 367.754 89.2726V89.2726C365.485 97.7394 356.782 102.764 348.315 100.495L328.92 95.2982C328.412 95.1621 328.11 94.64 328.246 94.132V94.132Z" fill="white"/>
<path opacity="0.5" d="M328.246 147.933C330.515 139.467 339.218 134.442 347.685 136.711L367.08 141.908C367.588 142.044 367.89 142.566 367.754 143.074V143.074C365.485 151.541 356.782 156.565 348.315 154.297L328.92 149.1C328.412 148.964 328.11 148.441 328.246 147.933V147.933Z" fill="white"/>
<path opacity="0.5" d="M328.246 250.536C330.515 242.07 339.218 237.045 347.685 239.314L367.08 244.511C367.588 244.647 367.89 245.169 367.754 245.677V245.677C365.485 254.144 356.782 259.168 348.315 256.9L328.92 251.703C328.412 251.567 328.11 251.045 328.246 250.536V250.536Z" fill="white"/>
<path opacity="0.5" d="M328.246 304.338C330.515 295.871 339.218 290.847 347.685 293.115L367.08 298.312C367.588 298.448 367.89 298.971 367.754 299.479V299.479C365.485 307.945 356.782 312.97 348.315 310.701L328.92 305.504C328.412 305.368 328.11 304.846 328.246 304.338V304.338Z" fill="white"/>
<path opacity="0.5" d="M328.246 354.14C330.515 345.673 339.218 340.648 347.685 342.917L367.08 348.114C367.588 348.25 367.89 348.772 367.754 349.28V349.28C365.485 357.747 356.782 362.771 348.315 360.503L328.92 355.306C328.412 355.17 328.11 354.648 328.246 354.14V354.14Z" fill="white"/>
<path opacity="0.5" d="M328.246 403.941C330.515 395.474 339.218 390.45 347.685 392.718L367.08 397.915C367.588 398.051 367.89 398.574 367.754 399.082V399.082C365.485 407.548 356.782 412.573 348.315 410.304L328.92 405.107C328.412 404.971 328.11 404.449 328.246 403.941V403.941Z" fill="white"/>
<path opacity="0.5" d="M300.98 69.6476C302.852 62.6625 310.031 58.5173 317.016 60.3889L333.018 64.6764C333.437 64.7887 333.685 65.2195 333.573 65.6386V65.6386C331.702 72.6237 324.522 76.769 317.537 74.8973L301.535 70.6098C301.116 70.4975 300.868 70.0667 300.98 69.6476V69.6476Z" fill="white"/>
<path opacity="0.5" d="M300.98 118.934C302.852 111.949 310.031 107.804 317.016 109.675L333.018 113.963C333.437 114.075 333.685 114.506 333.573 114.925V114.925C331.702 121.91 324.522 126.055 317.537 124.184L301.535 119.896C301.116 119.784 300.868 119.353 300.98 118.934V118.934Z" fill="white"/>
<path opacity="0.5" d="M300.98 175.22C302.852 168.235 310.031 164.09 317.016 165.961L333.018 170.249C333.437 170.361 333.685 170.792 333.573 171.211V171.211C331.702 178.196 324.522 182.341 317.537 180.47L301.535 176.182C301.116 176.07 300.868 175.639 300.98 175.22V175.22Z" fill="white"/>
<path opacity="0.5" d="M300.98 223.506C302.852 216.521 310.031 212.376 317.016 214.248L333.018 218.535C333.437 218.648 333.685 219.078 333.573 219.497V219.497C331.702 226.482 324.522 230.628 317.537 228.756L301.535 224.469C301.116 224.356 300.868 223.925 300.98 223.506V223.506Z" fill="white"/>
<path opacity="0.5" d="M300.98 274.793C302.852 267.808 310.031 263.662 317.016 265.534L333.018 269.821C333.437 269.934 333.685 270.365 333.573 270.784V270.784C331.702 277.769 324.522 281.914 317.537 280.042L301.535 275.755C301.116 275.643 300.868 275.212 300.98 274.793V274.793Z" fill="white"/>
<path opacity="0.5" d="M300.98 329.079C302.852 322.094 310.031 317.949 317.016 319.82L333.018 324.108C333.437 324.22 333.685 324.651 333.573 325.07V325.07C331.702 332.055 324.522 336.2 317.537 334.329L301.535 330.041C301.116 329.929 300.868 329.498 300.98 329.079V329.079Z" fill="white"/>
<path opacity="0.5" d="M300.98 378.365C302.852 371.38 310.031 367.235 317.016 369.106L333.018 373.394C333.437 373.506 333.685 373.937 333.573 374.356V374.356C331.702 381.341 324.522 385.487 317.537 383.615L301.535 379.327C301.116 379.215 300.868 378.784 300.98 378.365V378.365Z" fill="white"/>
<path opacity="0.5" d="M279.16 145.965C280.635 140.461 286.292 137.195 291.795 138.67L304.402 142.048C304.732 142.137 304.928 142.476 304.84 142.806V142.806C303.365 148.31 297.708 151.576 292.205 150.101L279.598 146.723C279.268 146.634 279.072 146.295 279.16 145.965V145.965Z" fill="white"/>
<path opacity="0.5" d="M279.16 192.796C280.635 187.293 286.292 184.027 291.795 185.502L304.402 188.88C304.732 188.968 304.928 189.308 304.84 189.638V189.638C303.365 195.141 297.708 198.407 292.205 196.933L279.598 193.554C279.268 193.466 279.072 193.127 279.16 192.796V192.796Z" fill="white"/>
<path opacity="0.5" d="M279.16 300.594C280.635 295.091 286.292 291.825 291.795 293.299L304.402 296.678C304.732 296.766 304.928 297.105 304.84 297.436V297.436C303.365 302.939 297.708 306.205 292.205 304.73L279.598 301.352C279.268 301.264 279.072 300.924 279.16 300.594V300.594Z" fill="white"/>
<path opacity="0.5" d="M279.16 353.365C280.635 347.862 286.292 344.596 291.795 346.07L304.402 349.448C304.732 349.537 304.928 349.876 304.84 350.207V350.207C303.365 355.71 297.708 358.976 292.205 357.501L279.598 354.123C279.268 354.035 279.072 353.695 279.16 353.365V353.365Z" fill="white"/>
<path opacity="0.5" d="M251.148 172.198C252.509 167.118 257.731 164.103 262.811 165.465L274.448 168.583C274.753 168.665 274.934 168.978 274.852 169.283V169.283C273.491 174.363 268.269 177.377 263.189 176.016L251.552 172.898C251.247 172.816 251.066 172.503 251.148 172.198V172.198Z" fill="white"/>
<path opacity="0.5" d="M251.148 223.427C252.509 218.347 257.731 215.333 262.811 216.694L274.448 219.812C274.753 219.894 274.934 220.207 274.852 220.512V220.512C273.491 225.592 268.269 228.607 263.189 227.245L251.552 224.127C251.247 224.045 251.066 223.732 251.148 223.427V223.427Z" fill="white"/>
<path opacity="0.5" d="M251.148 323.933C252.509 318.853 257.731 315.838 262.811 317.199L274.448 320.318C274.753 320.399 274.934 320.713 274.852 321.017V321.017C273.491 326.097 268.269 329.112 263.189 327.751L251.552 324.633C251.247 324.551 251.066 324.238 251.148 323.933V323.933Z" fill="white"/>
<path opacity="0.5" d="M251.148 271.933C252.509 266.853 257.731 263.838 262.811 265.199L274.448 268.318C274.753 268.399 274.934 268.713 274.852 269.017V269.017C273.491 274.097 268.269 277.112 263.189 275.751L251.552 272.633C251.247 272.551 251.066 272.238 251.148 271.933V271.933Z" fill="white"/>
<path opacity="0.5" d="M251.148 375.645C252.509 370.564 257.731 367.55 262.811 368.911L274.448 372.029C274.753 372.111 274.934 372.424 274.852 372.729V372.729C273.491 377.809 268.269 380.824 263.189 379.463L251.552 376.344C251.247 376.263 251.066 375.949 251.148 375.645V375.645Z" fill="white"/>
<path opacity="0.5" d="M224.123 43.6652C225.258 39.4318 229.609 36.9196 233.842 38.0539L243.54 40.6524C243.794 40.7205 243.945 40.9815 243.877 41.2355V41.2355C242.742 45.4689 238.391 47.9812 234.158 46.8469L224.46 44.2484C224.206 44.1803 224.055 43.9192 224.123 43.6652V43.6652Z" fill="white"/>
<path opacity="0.5" d="M193.123 68.6652C194.257 64.4318 198.609 61.9196 202.842 63.0539L212.54 65.6524C212.794 65.7205 212.945 65.9815 212.877 66.2355V66.2355C211.742 70.4689 207.391 72.9812 203.158 71.8469L193.46 69.2484C193.206 69.1803 193.055 68.9192 193.123 68.6652V68.6652Z" fill="white"/>
<path opacity="0.5" d="M65.1232 168.111C66.2576 163.878 70.609 161.365 74.8423 162.5L84.5401 165.098C84.7941 165.166 84.9448 165.427 84.8768 165.681V165.681C83.7424 169.915 79.391 172.427 75.1577 171.293L65.4599 168.694C65.2059 168.626 65.0552 168.365 65.1232 168.111V168.111Z" fill="white"/>
<path opacity="0.5" d="M224.123 146.778C225.258 142.544 229.609 140.032 233.842 141.166L243.54 143.765C243.794 143.833 243.945 144.094 243.877 144.348V144.348C242.742 148.581 238.391 151.094 234.158 149.959L224.46 147.361C224.206 147.293 224.055 147.032 224.123 146.778V146.778Z" fill="white"/>
<path opacity="0.5" d="M128.123 168.204C129.258 163.971 133.609 161.458 137.842 162.593L147.54 165.191C147.794 165.259 147.945 165.52 147.877 165.774V165.774C146.742 170.008 142.391 172.52 138.158 171.386L128.46 168.787C128.206 168.719 128.055 168.458 128.123 168.204V168.204Z" fill="white"/>
<path opacity="0.5" d="M193.123 168.204C194.258 163.971 198.609 161.458 202.842 162.593L212.54 165.191C212.794 165.259 212.945 165.52 212.877 165.774V165.774C211.742 170.008 207.391 172.52 203.158 171.386L193.46 168.787C193.206 168.719 193.055 168.458 193.123 168.204V168.204Z" fill="white"/>
<path opacity="0.5" d="M162.123 193.204C163.258 188.971 167.609 186.458 171.842 187.593L181.54 190.191C181.794 190.259 181.945 190.52 181.877 190.774V190.774C180.742 195.008 176.391 197.52 172.158 196.386L162.46 193.787C162.206 193.719 162.055 193.458 162.123 193.204V193.204Z" fill="white"/>
<path opacity="0.5" d="M163.123 298.204C164.258 293.971 168.609 291.458 172.842 292.593L182.54 295.191C182.794 295.259 182.945 295.52 182.877 295.774V295.774C181.742 300.008 177.391 302.52 173.158 301.386L163.46 298.787C163.206 298.719 163.055 298.458 163.123 298.204V298.204Z" fill="white"/>
<path opacity="0.5" d="M224.123 298.665C225.258 294.432 229.609 291.92 233.842 293.054L243.54 295.652C243.794 295.72 243.945 295.982 243.877 296.236V296.236C242.742 300.469 238.391 302.981 234.158 301.847L224.46 299.248C224.206 299.18 224.055 298.919 224.123 298.665V298.665Z" fill="white"/>
<path opacity="0.5" d="M163.123 351.665C164.258 347.432 168.609 344.92 172.842 346.054L182.54 348.652C182.794 348.72 182.945 348.982 182.877 349.236V349.236C181.742 353.469 177.391 355.981 173.158 354.847L163.46 352.248C163.206 352.18 163.055 351.919 163.123 351.665V351.665Z" fill="white"/>
<path opacity="0.5" d="M224.123 351.665C225.258 347.432 229.609 344.92 233.842 346.054L243.54 348.652C243.794 348.72 243.945 348.982 243.877 349.236V349.236C242.742 353.469 238.391 355.981 234.158 354.847L224.46 352.248C224.206 352.18 224.055 351.919 224.123 351.665V351.665Z" fill="white"/>
<path opacity="0.5" d="M0.123235 373.665C1.25757 369.432 5.60896 366.92 9.84234 368.054L19.5401 370.652C19.7941 370.72 19.9448 370.982 19.8768 371.236V371.236C18.7424 375.469 14.391 377.981 10.1577 376.847L0.459914 374.248C0.205911 374.18 0.0551752 373.919 0.123235 373.665V373.665Z" fill="white"/>
<path opacity="0.5" d="M224.123 402.665C225.258 398.432 229.609 395.92 233.842 397.054L243.54 399.652C243.794 399.72 243.945 399.982 243.877 400.236V400.236C242.742 404.469 238.391 406.981 234.158 405.847L224.46 403.248C224.206 403.18 224.055 402.919 224.123 402.665V402.665Z" fill="white"/>
</g>
</svg>
