<svg id="logo" xmlns="http://www.w3.org/2000/svg" viewBox="0 0 149 72"><defs><style>.cls-1{fill:#008fb4;}.cls-2{fill:#191646;}</style></defs><title>partner</title><path class="cls-1" d="M0,57.19l21.55,0V35.83C17.06,44.34,8.64,49.87,0,52c0,1.61,0,5.2,0,5.2"/><path class="cls-1" d="M6.89,46.45A30.15,30.15,0,0,0,19,34.82s0-2.46,0-2.52A31.4,31.4,0,0,1,6.9,25c0,5.86,0,21.48,0,21.48"/><path class="cls-1" d="M8.05,14.16s0,6.52,0,8.15a33,33,0,0,0,5.43,4.33l0-8.74a28.19,28.19,0,0,1-5.44-3.74"/><path class="cls-2" d="M40,21a2.74,2.74,0,0,0-2-2.31,7.22,7.22,0,0,0-1.86-.33,11.5,11.5,0,0,0-1.32,0l-.18,0V15.89h2.08l2.29.33.09-2.08H32.08l.28,2.59,0,5.8-.33,2.75H33.9l.75,0c.34,0,.7,0,1.05,0H36a4.88,4.88,0,0,0,3.11-1A3.37,3.37,0,0,0,40,21m-2.31.57a4.19,4.19,0,0,1,0,.65,1.35,1.35,0,0,1-.82,1.09,4.16,4.16,0,0,1-2.15.22V20.25a3.85,3.85,0,0,1,2.33.23,1.17,1.17,0,0,1,.69,1.12"/><path class="cls-2" d="M47.07,15.43l-.34-1.38-2.33,0-.27,1.21L41.31,22.6l-1.24,2.63,2.45,0,.43-2,.59-1.52h3.51l.81,1.94.43,1.56h3.16l-1.07-1.86Zm-.69,4.62-1.12,0-1.1,0c.21-.53.44-1.07.66-1.6s.34-.79.5-1.18Z"/><path class="cls-2" d="M69.73,25.26l3.22,0-5.12-5.8,4.8-5.3-2.83,0L69,15.33S66.79,17.71,65.62,19V16.12l.33-2H63l.18,2,0,6.85L63,25.24h3L65.62,23V20.24Z"/><path class="cls-2" d="M61,21.92c0-.74,0-5.75,0-5.75l.26-2H58.34l.24,1.93s0,1.46,0,2.33H54.45a14.43,14.43,0,0,1,.3-3.81l.12-.45h-3l0,.41c0,.14.19,1.69.22,2.4,0,1.5,0,3,0,4.5v.33c0,.63-.15,2.56-.21,2.9l-.09.44h2.94l-.05-.41L54.6,24c-.08-.57-.15-1.12-.18-1.67s0-1.13,0-1.69v-.39h4.21c0,.27,0,.55,0,.82a12.65,12.65,0,0,1-.29,3.65l-.12.46h3.07l-.08-.43A15.73,15.73,0,0,1,61,21.92"/><path class="cls-2" d="M97.85,30.73l.09-.44H91.66l0,.42c.23,1.88.39,3.64.49,5.39.08,1.26.06,2.55,0,3.8,0,.45,0,.89,0,1.34H80.49a39.58,39.58,0,0,1,.79-10.48l.11-.46H74.93l0,.42s.49,4.23.55,6.22c.12,3.83.09,7.74,0,11.52v.9c0,1.64-.39,6.66-.56,7.56l-.09.44h6.23l0-.41c-.07-.65-.16-1.3-.24-2-.18-1.43-.37-2.9-.45-4.35s-.06-2.94,0-4.37c0-.53,0-1.05,0-1.58H92.32c0,.9,0,1.8,0,2.68a33.56,33.56,0,0,1-.77,9.52l-.12.47h6.48l-.08-.44a40.26,40.26,0,0,1-.61-7.31c0-2,0-10.86.08-13.31a35.74,35.74,0,0,1,.53-5.58"/><path class="cls-2" d="M59.57,54.06V44.47c3,.08,8.72.53,8.78.54l.39,0,0-4.4-9.19.52V33.6c2.75,0,7.87-.06,10.53.77l.42.13.06-.43a22.27,22.27,0,0,0,0-3.42l0-.34H54l.07.42a64.73,64.73,0,0,1,.48,10.65c0,.8,0,1.61,0,2.42C54.6,49,54,56.87,54,57l0,.39,16.48.08v-.36c0-.88.11-3.23.15-3.57l0-.5-.49.1a52.31,52.31,0,0,1-10.64,1"/><path class="cls-2" d="M45.49,42.2h0l.23-.15c1.49-1,3.21-2.5,3.31-5a6.29,6.29,0,0,0-5.26-6.81,18.8,18.8,0,0,0-9.47.34h0c-1.63.45-1.91.59-1.86,1,.1.71.24,1.51.37,2.28.1.57.2,1.14.29,1.7a.53.53,0,0,0,.37.43A.56.56,0,0,0,34,35.8l.21-.23a7.92,7.92,0,0,1,6.27-2.39,3.4,3.4,0,0,1,3.37,2.57c.44,2-.3,3.81-1.88,4.51a11.36,11.36,0,0,1-2.69.77c-1,.19-3,.32-3.06.32l-.36,0L36,44.82h.36s1.82-.06,3.32-.06h0a9.72,9.72,0,0,1,4,.81,4,4,0,0,1,1.88,2.57c.3,1.53.56,5.2-3.43,6.07-3.46.76-6.27,0-8.37-2.26l-.57-.61-.22-.23A.49.49,0,0,0,32.4,51a.47.47,0,0,0-.33.4l-.11.85c-.1.82-.19,1.6-.31,2.37A1.24,1.24,0,0,0,32.39,56,15.79,15.79,0,0,0,40,58c.53,0,1.06,0,1.6-.07a10.76,10.76,0,0,0,5.87-2.34,7.83,7.83,0,0,0,3.19-7c-.28-3.09-2-5.22-5.21-6.33"/><path class="cls-2" d="M124.51,45.56v-3.3a63,63,0,0,1,.65-11.52l.08-.43h-6.46l.08.43c.22,1.15.4,2.38.56,3.65a.87.87,0,0,1-.21.8c-2.06,2.2-4.07,4.44-6,6.6-1.77,2-3.6,4-5.47,6,0-1.69,0-3.38,0-5-.09-4.15-.16-8.07.86-12l.12-.46h-6.62l.14.48a20.4,20.4,0,0,1,.63,6.09v2c0,3.52,0,7.17,0,10.75,0,.54,0,1.08,0,1.61a21.46,21.46,0,0,1,0,3,15.32,15.32,0,0,1-.34,1.8c-.07.29-.13.57-.2.86l-.09.44h6.38l-.07-.42c-.14-.88-.23-1.75-.32-2.6,0-.49-.11-1-.17-1.48a.94.94,0,0,1,.2-.64c1.82-2,3.61-4,5.34-5.9,2-2.19,4-4.45,6.08-6.68v.67c0,1,0,2,0,3,0,1.2,0,2.41,0,3.59,0,1.81,0,3.68,0,5.51a25.84,25.84,0,0,1-.4,3.07c-.08.47-.16.94-.23,1.42l-.06.42h6.35l-.08-.43a61.61,61.61,0,0,1-.65-11.37"/><path class="cls-2" d="M140.82,33.91s0-.14,0-.23l8.16,1-.52-4.47H128.07l-.45,4.47,8.74-1v.47c0,3.39,0,16,0,16.6l-.84,6.61h6.19l-.78-6.49c0-.12-.08-11.37-.1-17"/></svg>